<?xml version="1.0" encoding="UTF-8" standalone="no"?>
<!DOCTYPE svg PUBLIC "-//W3C//DTD SVG 1.1//EN"
 "http://www.w3.org/Graphics/SVG/1.1/DTD/svg11.dtd">
<!-- Generated by graphviz version 2.43.0 (0)
 -->
<!-- Title: %3 Pages: 1 -->
<svg width="1802pt" height="780pt"
 viewBox="0.00 0.00 1802.00 780.00" xmlns="http://www.w3.org/2000/svg" xmlns:xlink="http://www.w3.org/1999/xlink">
<g id="graph0" class="graph" transform="scale(1 1) rotate(0) translate(36 744)">
<title>%3</title>
<polygon fill="white" stroke="transparent" points="-36,36 -36,-744 1766,-744 1766,36 -36,36"/>
<!-- httpstcathbrokenoff -->
<g id="node1" class="node">
<title>httpstcathbrokenoff</title>
<polygon fill="#fab565" stroke="transparent" points="1604,-515 1604,-559 1730,-559 1730,-515 1604,-515"/>
<polygon fill="none" stroke="black" points="1604,-515 1604,-559 1730,-559 1730,-515 1604,-515"/>
<text text-anchor="start" x="1633.5" y="-537.8" font-family="Ubuntu" font-size="14.00">broken off</text>
<text text-anchor="start" x="1615" y="-528.6" font-family="FreeMono" font-size="8.00">http://stcath.brokenoff</text>
<polygon fill="#fab565" stroke="transparent" points="1604,-471 1604,-515 1730,-515 1730,-471 1604,-471"/>
<polygon fill="none" stroke="black" points="1604,-471 1604,-515 1730,-515 1730,-471 1604,-471"/>
<text text-anchor="start" x="1652" y="-493.8" font-family="Ubuntu" font-style="italic" font-size="14.00">Type</text>
<text text-anchor="start" x="1639.5" y="-484.6" font-family="FreeMono" font-size="8.00">crm:E55_Type</text>
</g>
<!-- httpsdataligatusorgukstcatherinesmsfe845e6573e7426f850f2141a89598fdhttpwwwcidoccrmorgcidoccrmP45_consists_ofhttpw3idorglobconcept1658 -->
<g id="node2" class="node">
<title>httpsdataligatusorgukstcatherinesmsfe845e6573e7426f850f2141a89598fdhttpwwwcidoccrmorgcidoccrmP45_consists_ofhttpw3idorglobconcept1658</title>
<polygon fill="white" stroke="transparent" points="898.5,-461 898.5,-480 988.5,-480 988.5,-461 898.5,-461"/>
<text text-anchor="start" x="910" y="-466.8" font-family="Ubuntu" font-size="14.00">consists of</text>
<polygon fill="white" stroke="transparent" points="898.5,-446 898.5,-459 988.5,-459 988.5,-446 898.5,-446"/>
<text text-anchor="start" x="900.5" y="-450.6" font-family="FreeMono" font-size="8.00">crm:P45_consists_of</text>
</g>
<!-- httpw3idorglobconcept1658 -->
<g id="node4" class="node">
<title>httpw3idorglobconcept1658</title>
<polygon fill="#fab565" stroke="transparent" points="1142.5,-540 1142.5,-584 1309.5,-584 1309.5,-540 1142.5,-540"/>
<polygon fill="none" stroke="black" points="1142.5,-540 1142.5,-584 1309.5,-584 1309.5,-540 1142.5,-540"/>
<text text-anchor="start" x="1188.5" y="-562.8" font-family="Ubuntu" font-size="14.00">tanned skin</text>
<text text-anchor="start" x="1153.5" y="-553.6" font-family="FreeMono" font-size="8.00">http://w3id.org/lob/concept/1658</text>
<polygon fill="#fab565" stroke="transparent" points="1142.5,-496 1142.5,-540 1309.5,-540 1309.5,-496 1142.5,-496"/>
<polygon fill="none" stroke="black" points="1142.5,-496 1142.5,-540 1309.5,-540 1309.5,-496 1142.5,-496"/>
<text text-anchor="start" x="1211" y="-518.8" font-family="Ubuntu" font-style="italic" font-size="14.00">Type</text>
<text text-anchor="start" x="1198.5" y="-509.6" font-family="FreeMono" font-size="8.00">crm:E55_Type</text>
</g>
<!-- httpsdataligatusorgukstcatherinesmsfe845e6573e7426f850f2141a89598fdhttpwwwcidoccrmorgcidoccrmP45_consists_ofhttpw3idorglobconcept1658&#45;&gt;httpw3idorglobconcept1658 -->
<g id="edge2" class="edge">
<title>httpsdataligatusorgukstcatherinesmsfe845e6573e7426f850f2141a89598fdhttpwwwcidoccrmorgcidoccrmP45_consists_ofhttpw3idorglobconcept1658&#45;&gt;httpw3idorglobconcept1658:w</title>
<path fill="none" stroke="black" d="M982.48,-482.09C1029.44,-505.69 1106.36,-544.34 1132.49,-557.47"/>
<polygon fill="black" stroke="black" points="1130.99,-560.64 1141.5,-562 1134.14,-554.38 1130.99,-560.64"/>
</g>
<!-- httpsdataligatusorgukstcatherinesmsfe845e6573e7426f850f2141a89598fd -->
<g id="node3" class="node">
<title>httpsdataligatusorgukstcatherinesmsfe845e6573e7426f850f2141a89598fd</title>
<polygon fill="#e1ba9c" stroke="transparent" points="581.5,-416 581.5,-460 820.5,-460 820.5,-416 581.5,-416"/>
<polygon fill="none" stroke="black" points="581.5,-416 581.5,-460 820.5,-460 820.5,-416 581.5,-416"/>
<text text-anchor="start" x="592.5" y="-438.8" font-family="Ubuntu" font-size="14.00">Right board marker of Greek 0614</text>
<text text-anchor="start" x="604" y="-429.6" font-family="FreeMono" font-size="8.00">stcath:fe845e65&#45;73e7&#45;426f&#45;850f&#45;2141a89598fd</text>
<polygon fill="#e1ba9c" stroke="transparent" points="581.5,-372 581.5,-416 820.5,-416 820.5,-372 581.5,-372"/>
<polygon fill="none" stroke="black" points="581.5,-372 581.5,-416 820.5,-416 820.5,-372 581.5,-372"/>
<text text-anchor="start" x="646.5" y="-394.8" font-family="Ubuntu" font-style="italic" font-size="14.00">Man&#45;Made Object</text>
<text text-anchor="start" x="649" y="-385.6" font-family="FreeMono" font-size="8.00">crm:E22_Man&#45;Made_Object</text>
</g>
<!-- httpsdataligatusorgukstcatherinesmsfe845e6573e7426f850f2141a89598fd&#45;&gt;httpsdataligatusorgukstcatherinesmsfe845e6573e7426f850f2141a89598fdhttpwwwcidoccrmorgcidoccrmP45_consists_ofhttpw3idorglobconcept1658 -->
<g id="edge1" class="edge">
<title>httpsdataligatusorgukstcatherinesmsfe845e6573e7426f850f2141a89598fd:e&#45;&gt;httpsdataligatusorgukstcatherinesmsfe845e6573e7426f850f2141a89598fdhttpwwwcidoccrmorgcidoccrmP45_consists_ofhttpw3idorglobconcept1658</title>
<path fill="none" stroke="black" d="M820,-438C820,-438 861.5,-446.47 896.19,-453.55"/>
</g>
<!-- httpsdataligatusorgukstcatherinesmsfe845e6573e7426f850f2141a89598fdhttpwwwcidoccrmorgcidoccrmP2_has_typehttpw3idorglobconcept2833 -->
<g id="node11" class="node">
<title>httpsdataligatusorgukstcatherinesmsfe845e6573e7426f850f2141a89598fdhttpwwwcidoccrmorgcidoccrmP2_has_typehttpw3idorglobconcept2833</title>
<polygon fill="white" stroke="transparent" points="907.5,-387 907.5,-406 979.5,-406 979.5,-387 907.5,-387"/>
<text text-anchor="start" x="916.5" y="-392.8" font-family="Ubuntu" font-size="14.00">has type</text>
<polygon fill="white" stroke="transparent" points="907.5,-372 907.5,-385 979.5,-385 979.5,-372 907.5,-372"/>
<text text-anchor="start" x="909.5" y="-376.6" font-family="FreeMono" font-size="8.00">crm:P2_has_type</text>
</g>
<!-- httpsdataligatusorgukstcatherinesmsfe845e6573e7426f850f2141a89598fd&#45;&gt;httpsdataligatusorgukstcatherinesmsfe845e6573e7426f850f2141a89598fdhttpwwwcidoccrmorgcidoccrmP2_has_typehttpw3idorglobconcept2833 -->
<g id="edge7" class="edge">
<title>httpsdataligatusorgukstcatherinesmsfe845e6573e7426f850f2141a89598fd:e&#45;&gt;httpsdataligatusorgukstcatherinesmsfe845e6573e7426f850f2141a89598fdhttpwwwcidoccrmorgcidoccrmP2_has_typehttpw3idorglobconcept2833</title>
<path fill="none" stroke="black" d="M820,-438C820,-438 869.36,-418.26 905.41,-403.83"/>
</g>
<!-- httpsdataligatusorgukstcatherinesmsfe845e6573e7426f850f2141a89598fdhttpwwwcidoccrmorgcidoccrmP44_has_conditionhttpsdataligatusorgukstcatherinesms28316c92f0a14d1ab6b78a0e7028efb9 -->
<g id="node15" class="node">
<title>httpsdataligatusorgukstcatherinesmsfe845e6573e7426f850f2141a89598fdhttpwwwcidoccrmorgcidoccrmP44_has_conditionhttpsdataligatusorgukstcatherinesms28316c92f0a14d1ab6b78a0e7028efb9</title>
<polygon fill="white" stroke="transparent" points="894.5,-313 894.5,-332 993.5,-332 993.5,-313 894.5,-313"/>
<text text-anchor="start" x="901" y="-318.8" font-family="Ubuntu" font-size="14.00">has condition</text>
<polygon fill="white" stroke="transparent" points="894.5,-298 894.5,-311 993.5,-311 993.5,-298 894.5,-298"/>
<text text-anchor="start" x="896.5" y="-302.6" font-family="FreeMono" font-size="8.00">crm:P44_has_condition</text>
</g>
<!-- httpsdataligatusorgukstcatherinesmsfe845e6573e7426f850f2141a89598fd&#45;&gt;httpsdataligatusorgukstcatherinesmsfe845e6573e7426f850f2141a89598fdhttpwwwcidoccrmorgcidoccrmP44_has_conditionhttpsdataligatusorgukstcatherinesms28316c92f0a14d1ab6b78a0e7028efb9 -->
<g id="edge11" class="edge">
<title>httpsdataligatusorgukstcatherinesmsfe845e6573e7426f850f2141a89598fd:e&#45;&gt;httpsdataligatusorgukstcatherinesmsfe845e6573e7426f850f2141a89598fdhttpwwwcidoccrmorgcidoccrmP44_has_conditionhttpsdataligatusorgukstcatherinesms28316c92f0a14d1ab6b78a0e7028efb9</title>
<path fill="none" stroke="black" d="M820,-438C820,-438 888.91,-368.81 923.36,-334.22"/>
</g>
<!-- httpsdataligatusorgukstcatherinesmsbc0126d8712a4bb3a32c69be7d7dc78d -->
<g id="node5" class="node">
<title>httpsdataligatusorgukstcatherinesmsbc0126d8712a4bb3a32c69be7d7dc78d</title>
<polygon fill="#e1ba9c" stroke="transparent" points="592.5,-44 592.5,-88 808.5,-88 808.5,-44 592.5,-44"/>
<polygon fill="none" stroke="black" points="592.5,-44 592.5,-88 808.5,-88 808.5,-44 592.5,-44"/>
<text text-anchor="start" x="663.5" y="-66.8" font-family="Ubuntu" font-size="14.00">Greek 0614</text>
<text text-anchor="start" x="603.5" y="-57.6" font-family="FreeMono" font-size="8.00">stcath:bc0126d8&#45;712a&#45;4bb3&#45;a32c&#45;69be7d7dc78d</text>
<polygon fill="#e1ba9c" stroke="transparent" points="592.5,0 592.5,-44 808.5,-44 808.5,0 592.5,0"/>
<polygon fill="none" stroke="black" points="592.5,0 592.5,-44 808.5,-44 808.5,0 592.5,0"/>
<text text-anchor="start" x="646" y="-22.8" font-family="Ubuntu" font-style="italic" font-size="14.00">Man&#45;Made Object</text>
<text text-anchor="start" x="648.5" y="-13.6" font-family="FreeMono" font-size="8.00">crm:E22_Man&#45;Made_Object</text>
</g>
<!-- httpsdataligatusorgukstcatherinesmse1c490fce0b641efb6568870ef49fc9dhttpwwwcidoccrmorgcidoccrmP111_addedhttpsdataligatusorgukstcatherinesms4244522ffdb34effb552cdc4e1ce0ad9 -->
<g id="node6" class="node">
<title>httpsdataligatusorgukstcatherinesmse1c490fce0b641efb6568870ef49fc9dhttpwwwcidoccrmorgcidoccrmP111_addedhttpsdataligatusorgukstcatherinesms4244522ffdb34effb552cdc4e1ce0ad9</title>
<polygon fill="white" stroke="transparent" points="397,-522 397,-541 465,-541 465,-522 397,-522"/>
<text text-anchor="start" x="411" y="-527.8" font-family="Ubuntu" font-size="14.00">added</text>
<polygon fill="white" stroke="transparent" points="397,-507 397,-520 465,-520 465,-507 397,-507"/>
<text text-anchor="start" x="399" y="-511.6" font-family="FreeMono" font-size="8.00">crm:P111_added</text>
</g>
<!-- httpsdataligatusorgukstcatherinesms4244522ffdb34effb552cdc4e1ce0ad9 -->
<g id="node8" class="node">
<title>httpsdataligatusorgukstcatherinesms4244522ffdb34effb552cdc4e1ce0ad9</title>
<polygon fill="#e1ba9c" stroke="transparent" points="586.5,-564 586.5,-608 815.5,-608 815.5,-564 586.5,-564"/>
<polygon fill="none" stroke="black" points="586.5,-564 586.5,-608 815.5,-608 815.5,-564 586.5,-564"/>
<text text-anchor="start" x="597.5" y="-586.8" font-family="Ubuntu" font-size="14.00">Left board marker of Greek 0614</text>
<text text-anchor="start" x="604" y="-577.6" font-family="FreeMono" font-size="8.00">stcath:4244522f&#45;fdb3&#45;4eff&#45;b552&#45;cdc4e1ce0ad9</text>
<polygon fill="#e1ba9c" stroke="transparent" points="586.5,-520 586.5,-564 815.5,-564 815.5,-520 586.5,-520"/>
<polygon fill="none" stroke="black" points="586.5,-520 586.5,-564 815.5,-564 815.5,-520 586.5,-520"/>
<text text-anchor="start" x="646.5" y="-542.8" font-family="Ubuntu" font-style="italic" font-size="14.00">Man&#45;Made Object</text>
<text text-anchor="start" x="649" y="-533.6" font-family="FreeMono" font-size="8.00">crm:E22_Man&#45;Made_Object</text>
</g>
<!-- httpsdataligatusorgukstcatherinesmse1c490fce0b641efb6568870ef49fc9dhttpwwwcidoccrmorgcidoccrmP111_addedhttpsdataligatusorgukstcatherinesms4244522ffdb34effb552cdc4e1ce0ad9&#45;&gt;httpsdataligatusorgukstcatherinesms4244522ffdb34effb552cdc4e1ce0ad9 -->
<g id="edge4" class="edge">
<title>httpsdataligatusorgukstcatherinesmse1c490fce0b641efb6568870ef49fc9dhttpwwwcidoccrmorgcidoccrmP111_addedhttpsdataligatusorgukstcatherinesms4244522ffdb34effb552cdc4e1ce0ad9&#45;&gt;httpsdataligatusorgukstcatherinesms4244522ffdb34effb552cdc4e1ce0ad9:w</title>
<path fill="none" stroke="black" d="M467.22,-538.22C502.62,-552.52 554.9,-573.64 576.08,-582.19"/>
<polygon fill="black" stroke="black" points="574.92,-585.5 585.5,-586 577.54,-579.01 574.92,-585.5"/>
</g>
<!-- httpsdataligatusorgukstcatherinesmse1c490fce0b641efb6568870ef49fc9d -->
<g id="node7" class="node">
<title>httpsdataligatusorgukstcatherinesmse1c490fce0b641efb6568870ef49fc9d</title>
<polygon fill="#96e0f6" stroke="transparent" points="0.5,-292 0.5,-336 281.5,-336 281.5,-292 0.5,-292"/>
<polygon fill="none" stroke="black" points="0.5,-292 0.5,-336 281.5,-336 281.5,-292 0.5,-292"/>
<text text-anchor="start" x="11.5" y="-314.8" font-family="Ubuntu" font-size="14.00">Addition of board markers to Greek 0614</text>
<text text-anchor="start" x="44" y="-305.6" font-family="FreeMono" font-size="8.00">stcath:e1c490fc&#45;e0b6&#45;41ef&#45;b656&#45;8870ef49fc9d</text>
<polygon fill="#96e0f6" stroke="transparent" points="0.5,-248 0.5,-292 281.5,-292 281.5,-248 0.5,-248"/>
<polygon fill="none" stroke="black" points="0.5,-248 0.5,-292 281.5,-292 281.5,-248 0.5,-248"/>
<text text-anchor="start" x="100" y="-270.8" font-family="Ubuntu" font-style="italic" font-size="14.00">Part Addition</text>
<text text-anchor="start" x="93.5" y="-261.6" font-family="FreeMono" font-size="8.00">crm:E79_Part_Addition</text>
</g>
<!-- httpsdataligatusorgukstcatherinesmse1c490fce0b641efb6568870ef49fc9d&#45;&gt;httpsdataligatusorgukstcatherinesmse1c490fce0b641efb6568870ef49fc9dhttpwwwcidoccrmorgcidoccrmP111_addedhttpsdataligatusorgukstcatherinesms4244522ffdb34effb552cdc4e1ce0ad9 -->
<g id="edge3" class="edge">
<title>httpsdataligatusorgukstcatherinesmse1c490fce0b641efb6568870ef49fc9d:e&#45;&gt;httpsdataligatusorgukstcatherinesmse1c490fce0b641efb6568870ef49fc9dhttpwwwcidoccrmorgcidoccrmP111_addedhttpsdataligatusorgukstcatherinesms4244522ffdb34effb552cdc4e1ce0ad9</title>
<path fill="none" stroke="black" d="M281,-314C281,-314 379.84,-453.3 416.51,-504.99"/>
</g>
<!-- httpsdataligatusorgukstcatherinesmse1c490fce0b641efb6568870ef49fc9dhttpwwwcidoccrmorgcidoccrmP32_used_general_techniquehttpw3idorglobconcept5429 -->
<g id="node10" class="node">
<title>httpsdataligatusorgukstcatherinesmse1c490fce0b641efb6568870ef49fc9dhttpwwwcidoccrmorgcidoccrmP32_used_general_techniquehttpw3idorglobconcept5429</title>
<polygon fill="white" stroke="transparent" points="355,-312 355,-331 507,-331 507,-312 355,-312"/>
<text text-anchor="start" x="357" y="-317.8" font-family="Ubuntu" font-size="14.00">used general technique</text>
<polygon fill="white" stroke="transparent" points="355,-297 355,-310 507,-310 507,-297 355,-297"/>
<text text-anchor="start" x="363" y="-301.6" font-family="FreeMono" font-size="8.00">crm:P32_used_general_technique</text>
</g>
<!-- httpsdataligatusorgukstcatherinesmse1c490fce0b641efb6568870ef49fc9d&#45;&gt;httpsdataligatusorgukstcatherinesmse1c490fce0b641efb6568870ef49fc9dhttpwwwcidoccrmorgcidoccrmP32_used_general_techniquehttpw3idorglobconcept5429 -->
<g id="edge5" class="edge">
<title>httpsdataligatusorgukstcatherinesmse1c490fce0b641efb6568870ef49fc9d:e&#45;&gt;httpsdataligatusorgukstcatherinesmse1c490fce0b641efb6568870ef49fc9dhttpwwwcidoccrmorgcidoccrmP32_used_general_techniquehttpw3idorglobconcept5429</title>
<path fill="none" stroke="black" d="M281,-314C281,-314 316.52,-314 352.88,-314"/>
</g>
<!-- httpsdataligatusorgukstcatherinesmse1c490fce0b641efb6568870ef49fc9dhttpwwwcidoccrmorgcidoccrmP32_used_general_techniquehttpstcathunderturnin -->
<g id="node20" class="node">
<title>httpsdataligatusorgukstcatherinesmse1c490fce0b641efb6568870ef49fc9dhttpwwwcidoccrmorgcidoccrmP32_used_general_techniquehttpstcathunderturnin</title>
<polygon fill="white" stroke="transparent" points="355,-213 355,-232 507,-232 507,-213 355,-213"/>
<text text-anchor="start" x="357" y="-218.8" font-family="Ubuntu" font-size="14.00">used general technique</text>
<polygon fill="white" stroke="transparent" points="355,-198 355,-211 507,-211 507,-198 355,-198"/>
<text text-anchor="start" x="363" y="-202.6" font-family="FreeMono" font-size="8.00">crm:P32_used_general_technique</text>
</g>
<!-- httpsdataligatusorgukstcatherinesmse1c490fce0b641efb6568870ef49fc9d&#45;&gt;httpsdataligatusorgukstcatherinesmse1c490fce0b641efb6568870ef49fc9dhttpwwwcidoccrmorgcidoccrmP32_used_general_techniquehttpstcathunderturnin -->
<g id="edge17" class="edge">
<title>httpsdataligatusorgukstcatherinesmse1c490fce0b641efb6568870ef49fc9d:e&#45;&gt;httpsdataligatusorgukstcatherinesmse1c490fce0b641efb6568870ef49fc9dhttpwwwcidoccrmorgcidoccrmP32_used_general_techniquehttpstcathunderturnin</title>
<path fill="none" stroke="black" d="M281,-314C281,-314 357.97,-262.86 401.27,-234.09"/>
</g>
<!-- httpsdataligatusorgukstcatherinesmse1c490fce0b641efb6568870ef49fc9dhttpwwwcidoccrmorgcidoccrmP111_addedhttpsdataligatusorgukstcatherinesmsfe845e6573e7426f850f2141a89598fd -->
<g id="node21" class="node">
<title>httpsdataligatusorgukstcatherinesmse1c490fce0b641efb6568870ef49fc9dhttpwwwcidoccrmorgcidoccrmP111_addedhttpsdataligatusorgukstcatherinesmsfe845e6573e7426f850f2141a89598fd</title>
<polygon fill="white" stroke="transparent" points="397,-411 397,-430 465,-430 465,-411 397,-411"/>
<text text-anchor="start" x="411" y="-416.8" font-family="Ubuntu" font-size="14.00">added</text>
<polygon fill="white" stroke="transparent" points="397,-396 397,-409 465,-409 465,-396 397,-396"/>
<text text-anchor="start" x="399" y="-400.6" font-family="FreeMono" font-size="8.00">crm:P111_added</text>
</g>
<!-- httpsdataligatusorgukstcatherinesmse1c490fce0b641efb6568870ef49fc9d&#45;&gt;httpsdataligatusorgukstcatherinesmse1c490fce0b641efb6568870ef49fc9dhttpwwwcidoccrmorgcidoccrmP111_addedhttpsdataligatusorgukstcatherinesmsfe845e6573e7426f850f2141a89598fd -->
<g id="edge19" class="edge">
<title>httpsdataligatusorgukstcatherinesmse1c490fce0b641efb6568870ef49fc9d:e&#45;&gt;httpsdataligatusorgukstcatherinesmse1c490fce0b641efb6568870ef49fc9dhttpwwwcidoccrmorgcidoccrmP111_addedhttpsdataligatusorgukstcatherinesmsfe845e6573e7426f850f2141a89598fd</title>
<path fill="none" stroke="black" d="M281,-314C281,-314 357.97,-365.14 401.27,-393.91"/>
</g>
<!-- httpsdataligatusorgukstcatherinesmse1c490fce0b641efb6568870ef49fc9dhttpwwwcidoccrmorgcidoccrmP110_augmentedhttpsdataligatusorgukstcatherinesmsbc0126d8712a4bb3a32c69be7d7dc78d -->
<g id="node24" class="node">
<title>httpsdataligatusorgukstcatherinesmse1c490fce0b641efb6568870ef49fc9dhttpwwwcidoccrmorgcidoccrmP110_augmentedhttpsdataligatusorgukstcatherinesmsbc0126d8712a4bb3a32c69be7d7dc78d</title>
<polygon fill="white" stroke="transparent" points="388,-89 388,-108 474,-108 474,-89 388,-89"/>
<text text-anchor="start" x="394.5" y="-94.8" font-family="Ubuntu" font-size="14.00">augmented</text>
<polygon fill="white" stroke="transparent" points="388,-74 388,-87 474,-87 474,-74 388,-74"/>
<text text-anchor="start" x="390" y="-78.6" font-family="FreeMono" font-size="8.00">crm:P110_augmented</text>
</g>
<!-- httpsdataligatusorgukstcatherinesmse1c490fce0b641efb6568870ef49fc9d&#45;&gt;httpsdataligatusorgukstcatherinesmse1c490fce0b641efb6568870ef49fc9dhttpwwwcidoccrmorgcidoccrmP110_augmentedhttpsdataligatusorgukstcatherinesmsbc0126d8712a4bb3a32c69be7d7dc78d -->
<g id="edge25" class="edge">
<title>httpsdataligatusorgukstcatherinesmse1c490fce0b641efb6568870ef49fc9d:e&#45;&gt;httpsdataligatusorgukstcatherinesmse1c490fce0b641efb6568870ef49fc9dhttpwwwcidoccrmorgcidoccrmP110_augmentedhttpsdataligatusorgukstcatherinesmsbc0126d8712a4bb3a32c69be7d7dc78d</title>
<path fill="none" stroke="black" d="M281,-314C281,-314 381.26,-163.94 417.3,-110.01"/>
</g>
<!-- httpsdataligatusorgukstcatherinesms4244522ffdb34effb552cdc4e1ce0ad9httpwwwcidoccrmorgcidoccrmP44_has_conditionhttpsdataligatusorgukstcatherinesmscfa96f6f536a49f296d0c5bb39118ef9 -->
<g id="node17" class="node">
<title>httpsdataligatusorgukstcatherinesms4244522ffdb34effb552cdc4e1ce0ad9httpwwwcidoccrmorgcidoccrmP44_has_conditionhttpsdataligatusorgukstcatherinesmscfa96f6f536a49f296d0c5bb39118ef9</title>
<polygon fill="white" stroke="transparent" points="894.5,-683 894.5,-702 993.5,-702 993.5,-683 894.5,-683"/>
<text text-anchor="start" x="901" y="-688.8" font-family="Ubuntu" font-size="14.00">has condition</text>
<polygon fill="white" stroke="transparent" points="894.5,-668 894.5,-681 993.5,-681 993.5,-668 894.5,-668"/>
<text text-anchor="start" x="896.5" y="-672.6" font-family="FreeMono" font-size="8.00">crm:P44_has_condition</text>
</g>
<!-- httpsdataligatusorgukstcatherinesms4244522ffdb34effb552cdc4e1ce0ad9&#45;&gt;httpsdataligatusorgukstcatherinesms4244522ffdb34effb552cdc4e1ce0ad9httpwwwcidoccrmorgcidoccrmP44_has_conditionhttpsdataligatusorgukstcatherinesmscfa96f6f536a49f296d0c5bb39118ef9 -->
<g id="edge13" class="edge">
<title>httpsdataligatusorgukstcatherinesms4244522ffdb34effb552cdc4e1ce0ad9:e&#45;&gt;httpsdataligatusorgukstcatherinesms4244522ffdb34effb552cdc4e1ce0ad9httpwwwcidoccrmorgcidoccrmP44_has_conditionhttpsdataligatusorgukstcatherinesmscfa96f6f536a49f296d0c5bb39118ef9</title>
<path fill="none" stroke="black" d="M816.5,-586C816.5,-586 881.59,-637.14 918.21,-665.91"/>
</g>
<!-- httpsdataligatusorgukstcatherinesms4244522ffdb34effb552cdc4e1ce0ad9httpwwwcidoccrmorgcidoccrmP45_consists_ofhttpw3idorglobconcept1658 -->
<g id="node19" class="node">
<title>httpsdataligatusorgukstcatherinesms4244522ffdb34effb552cdc4e1ce0ad9httpwwwcidoccrmorgcidoccrmP45_consists_ofhttpw3idorglobconcept1658</title>
<polygon fill="white" stroke="transparent" points="898.5,-609 898.5,-628 988.5,-628 988.5,-609 898.5,-609"/>
<text text-anchor="start" x="910" y="-614.8" font-family="Ubuntu" font-size="14.00">consists of</text>
<polygon fill="white" stroke="transparent" points="898.5,-594 898.5,-607 988.5,-607 988.5,-594 898.5,-594"/>
<text text-anchor="start" x="900.5" y="-598.6" font-family="FreeMono" font-size="8.00">crm:P45_consists_of</text>
</g>
<!-- httpsdataligatusorgukstcatherinesms4244522ffdb34effb552cdc4e1ce0ad9&#45;&gt;httpsdataligatusorgukstcatherinesms4244522ffdb34effb552cdc4e1ce0ad9httpwwwcidoccrmorgcidoccrmP45_consists_ofhttpw3idorglobconcept1658 -->
<g id="edge15" class="edge">
<title>httpsdataligatusorgukstcatherinesms4244522ffdb34effb552cdc4e1ce0ad9:e&#45;&gt;httpsdataligatusorgukstcatherinesms4244522ffdb34effb552cdc4e1ce0ad9httpwwwcidoccrmorgcidoccrmP45_consists_ofhttpw3idorglobconcept1658</title>
<path fill="none" stroke="black" d="M816.5,-586C816.5,-586 860.34,-594.7 896.3,-601.83"/>
</g>
<!-- httpsdataligatusorgukstcatherinesms4244522ffdb34effb552cdc4e1ce0ad9httpwwwcidoccrmorgcidoccrmP2_has_typehttpw3idorglobconcept2833 -->
<g id="node23" class="node">
<title>httpsdataligatusorgukstcatherinesms4244522ffdb34effb552cdc4e1ce0ad9httpwwwcidoccrmorgcidoccrmP2_has_typehttpw3idorglobconcept2833</title>
<polygon fill="white" stroke="transparent" points="907.5,-535 907.5,-554 979.5,-554 979.5,-535 907.5,-535"/>
<text text-anchor="start" x="916.5" y="-540.8" font-family="Ubuntu" font-size="14.00">has type</text>
<polygon fill="white" stroke="transparent" points="907.5,-520 907.5,-533 979.5,-533 979.5,-520 907.5,-520"/>
<text text-anchor="start" x="909.5" y="-524.6" font-family="FreeMono" font-size="8.00">crm:P2_has_type</text>
</g>
<!-- httpsdataligatusorgukstcatherinesms4244522ffdb34effb552cdc4e1ce0ad9&#45;&gt;httpsdataligatusorgukstcatherinesms4244522ffdb34effb552cdc4e1ce0ad9httpwwwcidoccrmorgcidoccrmP2_has_typehttpw3idorglobconcept2833 -->
<g id="edge23" class="edge">
<title>httpsdataligatusorgukstcatherinesms4244522ffdb34effb552cdc4e1ce0ad9:e&#45;&gt;httpsdataligatusorgukstcatherinesms4244522ffdb34effb552cdc4e1ce0ad9httpwwwcidoccrmorgcidoccrmP2_has_typehttpw3idorglobconcept2833</title>
<path fill="none" stroke="black" d="M816.5,-586C816.5,-586 868.21,-565.89 905.38,-551.44"/>
</g>
<!-- httpw3idorglobconcept5429 -->
<g id="node9" class="node">
<title>httpw3idorglobconcept5429</title>
<polygon fill="#fab565" stroke="transparent" points="617.5,-292 617.5,-336 784.5,-336 784.5,-292 617.5,-292"/>
<polygon fill="none" stroke="black" points="617.5,-292 617.5,-336 784.5,-336 784.5,-292 617.5,-292"/>
<text text-anchor="start" x="672" y="-314.8" font-family="Ubuntu" font-size="14.00">adhering</text>
<text text-anchor="start" x="628.5" y="-305.6" font-family="FreeMono" font-size="8.00">http://w3id.org/lob/concept/5429</text>
<polygon fill="#fab565" stroke="transparent" points="617.5,-248 617.5,-292 784.5,-292 784.5,-248 617.5,-248"/>
<polygon fill="none" stroke="black" points="617.5,-248 617.5,-292 784.5,-292 784.5,-248 617.5,-248"/>
<text text-anchor="start" x="686" y="-270.8" font-family="Ubuntu" font-style="italic" font-size="14.00">Type</text>
<text text-anchor="start" x="673.5" y="-261.6" font-family="FreeMono" font-size="8.00">crm:E55_Type</text>
</g>
<!-- httpsdataligatusorgukstcatherinesmse1c490fce0b641efb6568870ef49fc9dhttpwwwcidoccrmorgcidoccrmP32_used_general_techniquehttpw3idorglobconcept5429&#45;&gt;httpw3idorglobconcept5429 -->
<g id="edge6" class="edge">
<title>httpsdataligatusorgukstcatherinesmse1c490fce0b641efb6568870ef49fc9dhttpwwwcidoccrmorgcidoccrmP32_used_general_techniquehttpw3idorglobconcept5429&#45;&gt;httpw3idorglobconcept5429:w</title>
<path fill="none" stroke="black" d="M509.18,-314C546.7,-314 587.64,-314 606.26,-314"/>
<polygon fill="black" stroke="black" points="606.5,-317.5 616.5,-314 606.5,-310.5 606.5,-317.5"/>
</g>
<!-- httpw3idorglobconcept2833 -->
<g id="node12" class="node">
<title>httpw3idorglobconcept2833</title>
<polygon fill="#fab565" stroke="transparent" points="1142.5,-416 1142.5,-460 1309.5,-460 1309.5,-416 1142.5,-416"/>
<polygon fill="none" stroke="black" points="1142.5,-416 1142.5,-460 1309.5,-460 1309.5,-416 1142.5,-416"/>
<text text-anchor="start" x="1162.5" y="-438.8" font-family="Ubuntu" font-size="14.00">board strap markers</text>
<text text-anchor="start" x="1153.5" y="-429.6" font-family="FreeMono" font-size="8.00">http://w3id.org/lob/concept/2833</text>
<polygon fill="#fab565" stroke="transparent" points="1142.5,-372 1142.5,-416 1309.5,-416 1309.5,-372 1142.5,-372"/>
<polygon fill="none" stroke="black" points="1142.5,-372 1142.5,-416 1309.5,-416 1309.5,-372 1142.5,-372"/>
<text text-anchor="start" x="1211" y="-394.8" font-family="Ubuntu" font-style="italic" font-size="14.00">Type</text>
<text text-anchor="start" x="1198.5" y="-385.6" font-family="FreeMono" font-size="8.00">crm:E55_Type</text>
</g>
<!-- httpsdataligatusorgukstcatherinesmsfe845e6573e7426f850f2141a89598fdhttpwwwcidoccrmorgcidoccrmP2_has_typehttpw3idorglobconcept2833&#45;&gt;httpw3idorglobconcept2833 -->
<g id="edge8" class="edge">
<title>httpsdataligatusorgukstcatherinesmsfe845e6573e7426f850f2141a89598fdhttpwwwcidoccrmorgcidoccrmP2_has_typehttpw3idorglobconcept2833&#45;&gt;httpw3idorglobconcept2833:w</title>
<path fill="none" stroke="black" d="M981.55,-398.22C1027.92,-409.75 1104.53,-428.8 1131.63,-435.54"/>
<polygon fill="black" stroke="black" points="1130.95,-438.98 1141.5,-438 1132.64,-432.19 1130.95,-438.98"/>
</g>
<!-- httpsdataligatusorgukstcatherinesmscfa96f6f536a49f296d0c5bb39118ef9httpwwwcidoccrmorgcidoccrmP2_has_typehttpstcathbrokenoff -->
<g id="node13" class="node">
<title>httpsdataligatusorgukstcatherinesmscfa96f6f536a49f296d0c5bb39118ef9httpwwwcidoccrmorgcidoccrmP2_has_typehttpstcathbrokenoff</title>
<polygon fill="white" stroke="transparent" points="1458,-609 1458,-628 1530,-628 1530,-609 1458,-609"/>
<text text-anchor="start" x="1467" y="-614.8" font-family="Ubuntu" font-size="14.00">has type</text>
<polygon fill="white" stroke="transparent" points="1458,-594 1458,-607 1530,-607 1530,-594 1458,-594"/>
<text text-anchor="start" x="1460" y="-598.6" font-family="FreeMono" font-size="8.00">crm:P2_has_type</text>
</g>
<!-- httpsdataligatusorgukstcatherinesmscfa96f6f536a49f296d0c5bb39118ef9httpwwwcidoccrmorgcidoccrmP2_has_typehttpstcathbrokenoff&#45;&gt;httpstcathbrokenoff -->
<g id="edge10" class="edge">
<title>httpsdataligatusorgukstcatherinesmscfa96f6f536a49f296d0c5bb39118ef9httpwwwcidoccrmorgcidoccrmP2_has_typehttpstcathbrokenoff&#45;&gt;httpstcathbrokenoff:w</title>
<path fill="none" stroke="black" d="M1523.07,-591.94C1547.04,-575.67 1580.01,-553.29 1595.42,-542.83"/>
<polygon fill="black" stroke="black" points="1597.69,-545.51 1604,-537 1593.76,-539.72 1597.69,-545.51"/>
</g>
<!-- httpsdataligatusorgukstcatherinesmscfa96f6f536a49f296d0c5bb39118ef9 -->
<g id="node14" class="node">
<title>httpsdataligatusorgukstcatherinesmscfa96f6f536a49f296d0c5bb39118ef9</title>
<polygon fill="#ffffff" stroke="transparent" points="1071.5,-664 1071.5,-708 1379.5,-708 1379.5,-664 1071.5,-664"/>
<polygon fill="none" stroke="black" points="1071.5,-664 1071.5,-708 1379.5,-708 1379.5,-664 1071.5,-664"/>
<text text-anchor="start" x="1082.5" y="-686.8" font-family="Ubuntu" font-size="14.00">Condition of left board marker of Greek 0614</text>
<text text-anchor="start" x="1128.5" y="-677.6" font-family="FreeMono" font-size="8.00">stcath:cfa96f6f&#45;536a&#45;49f2&#45;96d0&#45;c5bb39118ef9</text>
<polygon fill="#ffffff" stroke="transparent" points="1071.5,-620 1071.5,-664 1379.5,-664 1379.5,-620 1071.5,-620"/>
<polygon fill="none" stroke="black" points="1071.5,-620 1071.5,-664 1379.5,-664 1379.5,-620 1071.5,-620"/>
<text text-anchor="start" x="1178" y="-642.8" font-family="Ubuntu" font-style="italic" font-size="14.00">Condition State</text>
<text text-anchor="start" x="1175.5" y="-633.6" font-family="FreeMono" font-size="8.00">crm:E3_Condition_State</text>
</g>
<!-- httpsdataligatusorgukstcatherinesmscfa96f6f536a49f296d0c5bb39118ef9&#45;&gt;httpsdataligatusorgukstcatherinesmscfa96f6f536a49f296d0c5bb39118ef9httpwwwcidoccrmorgcidoccrmP2_has_typehttpstcathbrokenoff -->
<g id="edge9" class="edge">
<title>httpsdataligatusorgukstcatherinesmscfa96f6f536a49f296d0c5bb39118ef9:e&#45;&gt;httpsdataligatusorgukstcatherinesmscfa96f6f536a49f296d0c5bb39118ef9httpwwwcidoccrmorgcidoccrmP2_has_typehttpstcathbrokenoff</title>
<path fill="none" stroke="black" d="M1380.5,-686C1380.5,-686 1430.99,-652.34 1464.32,-630.12"/>
</g>
<!-- httpsdataligatusorgukstcatherinesms28316c92f0a14d1ab6b78a0e7028efb9 -->
<g id="node16" class="node">
<title>httpsdataligatusorgukstcatherinesms28316c92f0a14d1ab6b78a0e7028efb9</title>
<polygon fill="#ffffff" stroke="transparent" points="1067.5,-292 1067.5,-336 1384.5,-336 1384.5,-292 1067.5,-292"/>
<polygon fill="none" stroke="black" points="1067.5,-292 1067.5,-336 1384.5,-336 1384.5,-292 1067.5,-292"/>
<text text-anchor="start" x="1078.5" y="-314.8" font-family="Ubuntu" font-size="14.00">Condition of right board marker of Greek 0614</text>
<text text-anchor="start" x="1129" y="-305.6" font-family="FreeMono" font-size="8.00">stcath:28316c92&#45;f0a1&#45;4d1a&#45;b6b7&#45;8a0e7028efb9</text>
<polygon fill="#ffffff" stroke="transparent" points="1067.5,-248 1067.5,-292 1384.5,-292 1384.5,-248 1067.5,-248"/>
<polygon fill="none" stroke="black" points="1067.5,-248 1067.5,-292 1384.5,-292 1384.5,-248 1067.5,-248"/>
<text text-anchor="start" x="1178.5" y="-270.8" font-family="Ubuntu" font-style="italic" font-size="14.00">Condition State</text>
<text text-anchor="start" x="1176" y="-261.6" font-family="FreeMono" font-size="8.00">crm:E3_Condition_State</text>
</g>
<!-- httpsdataligatusorgukstcatherinesmsfe845e6573e7426f850f2141a89598fdhttpwwwcidoccrmorgcidoccrmP44_has_conditionhttpsdataligatusorgukstcatherinesms28316c92f0a14d1ab6b78a0e7028efb9&#45;&gt;httpsdataligatusorgukstcatherinesms28316c92f0a14d1ab6b78a0e7028efb9 -->
<g id="edge12" class="edge">
<title>httpsdataligatusorgukstcatherinesmsfe845e6573e7426f850f2141a89598fdhttpwwwcidoccrmorgcidoccrmP44_has_conditionhttpsdataligatusorgukstcatherinesms28316c92f0a14d1ab6b78a0e7028efb9&#45;&gt;httpsdataligatusorgukstcatherinesms28316c92f0a14d1ab6b78a0e7028efb9:w</title>
<path fill="none" stroke="black" d="M995.03,-314.59C1017.97,-314.4 1042.97,-314.2 1056.64,-314.08"/>
<polygon fill="black" stroke="black" points="1057.03,-317.58 1067,-314 1056.97,-310.58 1057.03,-317.58"/>
</g>
<!-- httpsdataligatusorgukstcatherinesms28316c92f0a14d1ab6b78a0e7028efb9httpwwwcidoccrmorgcidoccrmP2_has_typehttpstcathbrokenoff -->
<g id="node22" class="node">
<title>httpsdataligatusorgukstcatherinesms28316c92f0a14d1ab6b78a0e7028efb9httpwwwcidoccrmorgcidoccrmP2_has_typehttpstcathbrokenoff</title>
<polygon fill="white" stroke="transparent" points="1458,-461 1458,-480 1530,-480 1530,-461 1458,-461"/>
<text text-anchor="start" x="1467" y="-466.8" font-family="Ubuntu" font-size="14.00">has type</text>
<polygon fill="white" stroke="transparent" points="1458,-446 1458,-459 1530,-459 1530,-446 1458,-446"/>
<text text-anchor="start" x="1460" y="-450.6" font-family="FreeMono" font-size="8.00">crm:P2_has_type</text>
</g>
<!-- httpsdataligatusorgukstcatherinesms28316c92f0a14d1ab6b78a0e7028efb9&#45;&gt;httpsdataligatusorgukstcatherinesms28316c92f0a14d1ab6b78a0e7028efb9httpwwwcidoccrmorgcidoccrmP2_has_typehttpstcathbrokenoff -->
<g id="edge21" class="edge">
<title>httpsdataligatusorgukstcatherinesms28316c92f0a14d1ab6b78a0e7028efb9:e&#45;&gt;httpsdataligatusorgukstcatherinesms28316c92f0a14d1ab6b78a0e7028efb9httpwwwcidoccrmorgcidoccrmP2_has_typehttpstcathbrokenoff</title>
<path fill="none" stroke="black" d="M1384,-314C1384,-314 1449.53,-403.58 1478.97,-443.83"/>
</g>
<!-- httpsdataligatusorgukstcatherinesms4244522ffdb34effb552cdc4e1ce0ad9httpwwwcidoccrmorgcidoccrmP44_has_conditionhttpsdataligatusorgukstcatherinesmscfa96f6f536a49f296d0c5bb39118ef9&#45;&gt;httpsdataligatusorgukstcatherinesmscfa96f6f536a49f296d0c5bb39118ef9 -->
<g id="edge14" class="edge">
<title>httpsdataligatusorgukstcatherinesms4244522ffdb34effb552cdc4e1ce0ad9httpwwwcidoccrmorgcidoccrmP44_has_conditionhttpsdataligatusorgukstcatherinesmscfa96f6f536a49f296d0c5bb39118ef9&#45;&gt;httpsdataligatusorgukstcatherinesmscfa96f6f536a49f296d0c5bb39118ef9:w</title>
<path fill="none" stroke="black" d="M995.02,-685.4C1019.12,-685.59 1045.76,-685.8 1060.05,-685.92"/>
<polygon fill="black" stroke="black" points="1060.47,-689.42 1070.5,-686 1060.53,-682.42 1060.47,-689.42"/>
</g>
<!-- httpstcathunderturnin -->
<g id="node18" class="node">
<title>httpstcathunderturnin</title>
<polygon fill="#fab565" stroke="transparent" points="614.5,-168 614.5,-212 787.5,-212 787.5,-168 614.5,-168"/>
<polygon fill="none" stroke="black" points="614.5,-168 614.5,-212 787.5,-212 787.5,-168 614.5,-168"/>
<text text-anchor="start" x="625.5" y="-190.8" font-family="Ubuntu" font-size="14.00">under turn&#45;in attaching</text>
<text text-anchor="start" x="644.5" y="-181.6" font-family="FreeMono" font-size="8.00">http://stcath.underturnin</text>
<polygon fill="#fab565" stroke="transparent" points="614.5,-124 614.5,-168 787.5,-168 787.5,-124 614.5,-124"/>
<polygon fill="none" stroke="black" points="614.5,-124 614.5,-168 787.5,-168 787.5,-124 614.5,-124"/>
<text text-anchor="start" x="686" y="-146.8" font-family="Ubuntu" font-style="italic" font-size="14.00">Type</text>
<text text-anchor="start" x="673.5" y="-137.6" font-family="FreeMono" font-size="8.00">crm:E55_Type</text>
</g>
<!-- httpsdataligatusorgukstcatherinesms4244522ffdb34effb552cdc4e1ce0ad9httpwwwcidoccrmorgcidoccrmP45_consists_ofhttpw3idorglobconcept1658&#45;&gt;httpw3idorglobconcept1658 -->
<g id="edge16" class="edge">
<title>httpsdataligatusorgukstcatherinesms4244522ffdb34effb552cdc4e1ce0ad9httpwwwcidoccrmorgcidoccrmP45_consists_ofhttpw3idorglobconcept1658&#45;&gt;httpw3idorglobconcept1658:w</title>
<path fill="none" stroke="black" d="M990.69,-599.51C1037.32,-587.91 1105.97,-570.84 1131.48,-564.49"/>
<polygon fill="black" stroke="black" points="1132.64,-567.81 1141.5,-562 1130.95,-561.02 1132.64,-567.81"/>
</g>
<!-- httpsdataligatusorgukstcatherinesmse1c490fce0b641efb6568870ef49fc9dhttpwwwcidoccrmorgcidoccrmP32_used_general_techniquehttpstcathunderturnin&#45;&gt;httpstcathunderturnin -->
<g id="edge18" class="edge">
<title>httpsdataligatusorgukstcatherinesmse1c490fce0b641efb6568870ef49fc9dhttpwwwcidoccrmorgcidoccrmP32_used_general_techniquehttpstcathunderturnin&#45;&gt;httpstcathunderturnin:w</title>
<path fill="none" stroke="black" d="M509.24,-204.36C545.71,-199.34 585.16,-193.9 603.31,-191.4"/>
<polygon fill="black" stroke="black" points="604.07,-194.83 613.5,-190 603.12,-187.9 604.07,-194.83"/>
</g>
<!-- httpsdataligatusorgukstcatherinesmse1c490fce0b641efb6568870ef49fc9dhttpwwwcidoccrmorgcidoccrmP111_addedhttpsdataligatusorgukstcatherinesmsfe845e6573e7426f850f2141a89598fd&#45;&gt;httpsdataligatusorgukstcatherinesmsfe845e6573e7426f850f2141a89598fd -->
<g id="edge20" class="edge">
<title>httpsdataligatusorgukstcatherinesmse1c490fce0b641efb6568870ef49fc9dhttpwwwcidoccrmorgcidoccrmP111_addedhttpsdataligatusorgukstcatherinesmsfe845e6573e7426f850f2141a89598fd&#45;&gt;httpsdataligatusorgukstcatherinesmsfe845e6573e7426f850f2141a89598fd:w</title>
<path fill="none" stroke="black" d="M467.31,-418.92C501.22,-424.61 550.26,-432.84 571.07,-436.33"/>
<polygon fill="black" stroke="black" points="570.56,-439.8 581,-438 571.72,-432.89 570.56,-439.8"/>
</g>
<!-- httpsdataligatusorgukstcatherinesms28316c92f0a14d1ab6b78a0e7028efb9httpwwwcidoccrmorgcidoccrmP2_has_typehttpstcathbrokenoff&#45;&gt;httpstcathbrokenoff -->
<g id="edge22" class="edge">
<title>httpsdataligatusorgukstcatherinesms28316c92f0a14d1ab6b78a0e7028efb9httpwwwcidoccrmorgcidoccrmP2_has_typehttpstcathbrokenoff&#45;&gt;httpstcathbrokenoff:w</title>
<path fill="none" stroke="black" d="M1523.07,-482.06C1547.04,-498.33 1580.01,-520.71 1595.42,-531.17"/>
<polygon fill="black" stroke="black" points="1593.76,-534.28 1604,-537 1597.69,-528.49 1593.76,-534.28"/>
</g>
<!-- httpsdataligatusorgukstcatherinesms4244522ffdb34effb552cdc4e1ce0ad9httpwwwcidoccrmorgcidoccrmP2_has_typehttpw3idorglobconcept2833&#45;&gt;httpw3idorglobconcept2833 -->
<g id="edge24" class="edge">
<title>httpsdataligatusorgukstcatherinesms4244522ffdb34effb552cdc4e1ce0ad9httpwwwcidoccrmorgcidoccrmP2_has_typehttpw3idorglobconcept2833&#45;&gt;httpw3idorglobconcept2833:w</title>
<path fill="none" stroke="black" d="M981.55,-518.38C1028.37,-494.85 1106.01,-455.84 1132.4,-442.57"/>
<polygon fill="black" stroke="black" points="1134.14,-445.62 1141.5,-438 1130.99,-439.36 1134.14,-445.62"/>
</g>
<!-- httpsdataligatusorgukstcatherinesmse1c490fce0b641efb6568870ef49fc9dhttpwwwcidoccrmorgcidoccrmP110_augmentedhttpsdataligatusorgukstcatherinesmsbc0126d8712a4bb3a32c69be7d7dc78d&#45;&gt;httpsdataligatusorgukstcatherinesmsbc0126d8712a4bb3a32c69be7d7dc78d -->
<g id="edge26" class="edge">
<title>httpsdataligatusorgukstcatherinesmse1c490fce0b641efb6568870ef49fc9dhttpwwwcidoccrmorgcidoccrmP110_augmentedhttpsdataligatusorgukstcatherinesmsbc0126d8712a4bb3a32c69be7d7dc78d&#45;&gt;httpsdataligatusorgukstcatherinesmsbc0126d8712a4bb3a32c69be7d7dc78d:w</title>
<path fill="none" stroke="black" d="M476.01,-84.1C512.15,-78.44 560.65,-70.84 581.4,-67.58"/>
<polygon fill="black" stroke="black" points="582.16,-71.01 591.5,-66 581.08,-64.09 582.16,-71.01"/>
</g>
</g>
</svg>
