<?xml version="1.0" encoding="UTF-8" standalone="no"?>
<!DOCTYPE svg PUBLIC "-//W3C//DTD SVG 1.1//EN"
 "http://www.w3.org/Graphics/SVG/1.1/DTD/svg11.dtd">
<!-- Generated by graphviz version 2.43.0 (0)
 -->
<!-- Title: %3 Pages: 1 -->
<svg width="1582pt" height="780pt"
 viewBox="0.00 0.00 1582.00 780.00" xmlns="http://www.w3.org/2000/svg" xmlns:xlink="http://www.w3.org/1999/xlink">
<g id="graph0" class="graph" transform="scale(1 1) rotate(0) translate(36 744)">
<title>%3</title>
<polygon fill="white" stroke="transparent" points="-36,36 -36,-744 1546,-744 1546,36 -36,36"/>
<!-- httpstcathknotted -->
<g id="node1" class="node">
<title>httpstcathknotted</title>
<polygon fill="#fab565" stroke="transparent" points="555.5,-416 555.5,-460 784.5,-460 784.5,-416 555.5,-416"/>
<polygon fill="none" stroke="black" points="555.5,-416 555.5,-460 784.5,-460 784.5,-416 555.5,-416"/>
<text text-anchor="start" x="566.5" y="-438.8" font-family="Ubuntu" font-size="14.00">knotted (bookmark attachment)</text>
<text text-anchor="start" x="622.5" y="-429.6" font-family="FreeMono" font-size="8.00">http://stcath.knotted</text>
<polygon fill="#fab565" stroke="transparent" points="555.5,-372 555.5,-416 784.5,-416 784.5,-372 555.5,-372"/>
<polygon fill="none" stroke="black" points="555.5,-372 555.5,-416 784.5,-416 784.5,-372 555.5,-372"/>
<text text-anchor="start" x="655" y="-394.8" font-family="Ubuntu" font-style="italic" font-size="14.00">Type</text>
<text text-anchor="start" x="642.5" y="-385.6" font-family="FreeMono" font-size="8.00">crm:E55_Type</text>
</g>
<!-- httpsdataligatusorgukstcatherinesms4145def47d644d23b1ba28d5439a1d98httpwwwcidoccrmorgcidoccrmP45_consists_ofhttpw3idorglobconcept2468 -->
<g id="node2" class="node">
<title>httpsdataligatusorgukstcatherinesms4145def47d644d23b1ba28d5439a1d98httpwwwcidoccrmorgcidoccrmP45_consists_ofhttpw3idorglobconcept2468</title>
<polygon fill="white" stroke="transparent" points="931.5,-640 931.5,-659 1021.5,-659 1021.5,-640 931.5,-640"/>
<text text-anchor="start" x="943" y="-645.8" font-family="Ubuntu" font-size="14.00">consists of</text>
<polygon fill="white" stroke="transparent" points="931.5,-625 931.5,-638 1021.5,-638 1021.5,-625 931.5,-625"/>
<text text-anchor="start" x="933.5" y="-629.6" font-family="FreeMono" font-size="8.00">crm:P45_consists_of</text>
</g>
<!-- httpw3idorglobconcept2468 -->
<g id="node4" class="node">
<title>httpw3idorglobconcept2468</title>
<polygon fill="#fab565" stroke="transparent" points="1256.5,-664 1256.5,-708 1423.5,-708 1423.5,-664 1256.5,-664"/>
<polygon fill="none" stroke="black" points="1256.5,-664 1256.5,-708 1423.5,-708 1423.5,-664 1256.5,-664"/>
<text text-anchor="start" x="1329" y="-686.8" font-family="Ubuntu" font-size="14.00">silk</text>
<text text-anchor="start" x="1267.5" y="-677.6" font-family="FreeMono" font-size="8.00">http://w3id.org/lob/concept/2468</text>
<polygon fill="#fab565" stroke="transparent" points="1256.5,-620 1256.5,-664 1423.5,-664 1423.5,-620 1256.5,-620"/>
<polygon fill="none" stroke="black" points="1256.5,-620 1256.5,-664 1423.5,-664 1423.5,-620 1256.5,-620"/>
<text text-anchor="start" x="1313.5" y="-642.8" font-family="Ubuntu" font-style="italic" font-size="14.00">Material</text>
<text text-anchor="start" x="1303.5" y="-633.6" font-family="FreeMono" font-size="8.00">crm:E57_Material</text>
</g>
<!-- httpsdataligatusorgukstcatherinesms4145def47d644d23b1ba28d5439a1d98httpwwwcidoccrmorgcidoccrmP45_consists_ofhttpw3idorglobconcept2468&#45;&gt;httpw3idorglobconcept2468 -->
<g id="edge2" class="edge">
<title>httpsdataligatusorgukstcatherinesms4145def47d644d23b1ba28d5439a1d98httpwwwcidoccrmorgcidoccrmP45_consists_ofhttpw3idorglobconcept2468&#45;&gt;httpw3idorglobconcept2468:w</title>
<path fill="none" stroke="black" d="M1023.72,-649.32C1090.42,-659.87 1209.57,-678.73 1245.18,-684.37"/>
<polygon fill="black" stroke="black" points="1245.08,-687.89 1255.5,-686 1246.17,-680.98 1245.08,-687.89"/>
</g>
<!-- httpsdataligatusorgukstcatherinesms4145def47d644d23b1ba28d5439a1d98 -->
<g id="node3" class="node">
<title>httpsdataligatusorgukstcatherinesms4145def47d644d23b1ba28d5439a1d98</title>
<polygon fill="#e1ba9c" stroke="transparent" points="561.5,-292 561.5,-336 777.5,-336 777.5,-292 561.5,-292"/>
<polygon fill="none" stroke="black" points="561.5,-292 561.5,-336 777.5,-336 777.5,-292 561.5,-292"/>
<text text-anchor="start" x="590" y="-314.8" font-family="Ubuntu" font-size="14.00">Bookmark of Greek 0477</text>
<text text-anchor="start" x="572.5" y="-305.6" font-family="FreeMono" font-size="8.00">stcath:4145def4&#45;7d64&#45;4d23&#45;b1ba&#45;28d5439a1d98</text>
<polygon fill="#e1ba9c" stroke="transparent" points="561.5,-248 561.5,-292 777.5,-292 777.5,-248 561.5,-248"/>
<polygon fill="none" stroke="black" points="561.5,-248 561.5,-292 777.5,-292 777.5,-248 561.5,-248"/>
<text text-anchor="start" x="615" y="-270.8" font-family="Ubuntu" font-style="italic" font-size="14.00">Man&#45;Made Object</text>
<text text-anchor="start" x="617.5" y="-261.6" font-family="FreeMono" font-size="8.00">crm:E22_Man&#45;Made_Object</text>
</g>
<!-- httpsdataligatusorgukstcatherinesms4145def47d644d23b1ba28d5439a1d98&#45;&gt;httpsdataligatusorgukstcatherinesms4145def47d644d23b1ba28d5439a1d98httpwwwcidoccrmorgcidoccrmP45_consists_ofhttpw3idorglobconcept2468 -->
<g id="edge1" class="edge">
<title>httpsdataligatusorgukstcatherinesms4145def47d644d23b1ba28d5439a1d98:e&#45;&gt;httpsdataligatusorgukstcatherinesms4145def47d644d23b1ba28d5439a1d98httpwwwcidoccrmorgcidoccrmP45_consists_ofhttpw3idorglobconcept2468</title>
<path fill="none" stroke="black" d="M778.5,-314C778.5,-314 922.01,-552.94 964.06,-622.95"/>
</g>
<!-- httpsdataligatusorgukstcatherinesms4145def47d644d23b1ba28d5439a1d98httpwwwcidoccrmorgcidoccrmP2_has_typehttpw3idorglobconcept4917 -->
<g id="node10" class="node">
<title>httpsdataligatusorgukstcatherinesms4145def47d644d23b1ba28d5439a1d98httpwwwcidoccrmorgcidoccrmP2_has_typehttpw3idorglobconcept4917</title>
<polygon fill="white" stroke="transparent" points="940.5,-522 940.5,-541 1012.5,-541 1012.5,-522 940.5,-522"/>
<text text-anchor="start" x="949.5" y="-527.8" font-family="Ubuntu" font-size="14.00">has type</text>
<polygon fill="white" stroke="transparent" points="940.5,-507 940.5,-520 1012.5,-520 1012.5,-507 940.5,-507"/>
<text text-anchor="start" x="942.5" y="-511.6" font-family="FreeMono" font-size="8.00">crm:P2_has_type</text>
</g>
<!-- httpsdataligatusorgukstcatherinesms4145def47d644d23b1ba28d5439a1d98&#45;&gt;httpsdataligatusorgukstcatherinesms4145def47d644d23b1ba28d5439a1d98httpwwwcidoccrmorgcidoccrmP2_has_typehttpw3idorglobconcept4917 -->
<g id="edge5" class="edge">
<title>httpsdataligatusorgukstcatherinesms4145def47d644d23b1ba28d5439a1d98:e&#45;&gt;httpsdataligatusorgukstcatherinesms4145def47d644d23b1ba28d5439a1d98httpwwwcidoccrmorgcidoccrmP2_has_typehttpw3idorglobconcept4917</title>
<path fill="none" stroke="black" d="M778.5,-314C778.5,-314 909.18,-453.3 957.67,-504.99"/>
</g>
<!-- httpsdataligatusorgukstcatherinesms4145def47d644d23b1ba28d5439a1d98httpwwwcidoccrmorgcidoccrmP2_has_typehttpstcathspan1 -->
<g id="node15" class="node">
<title>httpsdataligatusorgukstcatherinesms4145def47d644d23b1ba28d5439a1d98httpwwwcidoccrmorgcidoccrmP2_has_typehttpstcathspan1</title>
<polygon fill="white" stroke="transparent" points="940.5,-411 940.5,-430 1012.5,-430 1012.5,-411 940.5,-411"/>
<text text-anchor="start" x="949.5" y="-416.8" font-family="Ubuntu" font-size="14.00">has type</text>
<polygon fill="white" stroke="transparent" points="940.5,-396 940.5,-409 1012.5,-409 1012.5,-396 940.5,-396"/>
<text text-anchor="start" x="942.5" y="-400.6" font-family="FreeMono" font-size="8.00">crm:P2_has_type</text>
</g>
<!-- httpsdataligatusorgukstcatherinesms4145def47d644d23b1ba28d5439a1d98&#45;&gt;httpsdataligatusorgukstcatherinesms4145def47d644d23b1ba28d5439a1d98httpwwwcidoccrmorgcidoccrmP2_has_typehttpstcathspan1 -->
<g id="edge11" class="edge">
<title>httpsdataligatusorgukstcatherinesms4145def47d644d23b1ba28d5439a1d98:e&#45;&gt;httpsdataligatusorgukstcatherinesms4145def47d644d23b1ba28d5439a1d98httpwwwcidoccrmorgcidoccrmP2_has_typehttpstcathspan1</title>
<path fill="none" stroke="black" d="M778.5,-314C778.5,-314 881.38,-365.7 938.45,-394.38"/>
</g>
<!-- httpsdataligatusorgukstcatherinesms4145def47d644d23b1ba28d5439a1d98httpwwwcidoccrmorgcidoccrmP2_has_typehttpstcathknotteddoublelength -->
<g id="node16" class="node">
<title>httpsdataligatusorgukstcatherinesms4145def47d644d23b1ba28d5439a1d98httpwwwcidoccrmorgcidoccrmP2_has_typehttpstcathknotteddoublelength</title>
<polygon fill="white" stroke="transparent" points="940.5,-312 940.5,-331 1012.5,-331 1012.5,-312 940.5,-312"/>
<text text-anchor="start" x="949.5" y="-317.8" font-family="Ubuntu" font-size="14.00">has type</text>
<polygon fill="white" stroke="transparent" points="940.5,-297 940.5,-310 1012.5,-310 1012.5,-297 940.5,-297"/>
<text text-anchor="start" x="942.5" y="-301.6" font-family="FreeMono" font-size="8.00">crm:P2_has_type</text>
</g>
<!-- httpsdataligatusorgukstcatherinesms4145def47d644d23b1ba28d5439a1d98&#45;&gt;httpsdataligatusorgukstcatherinesms4145def47d644d23b1ba28d5439a1d98httpwwwcidoccrmorgcidoccrmP2_has_typehttpstcathknotteddoublelength -->
<g id="edge13" class="edge">
<title>httpsdataligatusorgukstcatherinesms4145def47d644d23b1ba28d5439a1d98:e&#45;&gt;httpsdataligatusorgukstcatherinesms4145def47d644d23b1ba28d5439a1d98httpwwwcidoccrmorgcidoccrmP2_has_typehttpstcathknotteddoublelength</title>
<path fill="none" stroke="black" d="M778.5,-314C778.5,-314 881.38,-314 938.45,-314"/>
</g>
<!-- httpsdataligatusorgukstcatherinesms4145def47d644d23b1ba28d5439a1d98httpwwwcidoccrmorgcidoccrmP2_has_typehttpstcathwound -->
<g id="node18" class="node">
<title>httpsdataligatusorgukstcatherinesms4145def47d644d23b1ba28d5439a1d98httpwwwcidoccrmorgcidoccrmP2_has_typehttpstcathwound</title>
<polygon fill="white" stroke="transparent" points="940.5,-235 940.5,-254 1012.5,-254 1012.5,-235 940.5,-235"/>
<text text-anchor="start" x="949.5" y="-240.8" font-family="Ubuntu" font-size="14.00">has type</text>
<polygon fill="white" stroke="transparent" points="940.5,-220 940.5,-233 1012.5,-233 1012.5,-220 940.5,-220"/>
<text text-anchor="start" x="942.5" y="-224.6" font-family="FreeMono" font-size="8.00">crm:P2_has_type</text>
</g>
<!-- httpsdataligatusorgukstcatherinesms4145def47d644d23b1ba28d5439a1d98&#45;&gt;httpsdataligatusorgukstcatherinesms4145def47d644d23b1ba28d5439a1d98httpwwwcidoccrmorgcidoccrmP2_has_typehttpstcathwound -->
<g id="edge15" class="edge">
<title>httpsdataligatusorgukstcatherinesms4145def47d644d23b1ba28d5439a1d98:e&#45;&gt;httpsdataligatusorgukstcatherinesms4145def47d644d23b1ba28d5439a1d98httpwwwcidoccrmorgcidoccrmP2_has_typehttpstcathwound</title>
<path fill="none" stroke="black" d="M778.5,-314C778.5,-314 881.38,-273.79 938.45,-251.48"/>
</g>
<!-- httpsdataligatusorgukstcatherinesms4145def47d644d23b1ba28d5439a1d98httpwwwcidoccrmorgcidoccrmP2_has_typehttpw3idorglobconcept2837 -->
<g id="node19" class="node">
<title>httpsdataligatusorgukstcatherinesms4145def47d644d23b1ba28d5439a1d98httpwwwcidoccrmorgcidoccrmP2_has_typehttpw3idorglobconcept2837</title>
<polygon fill="white" stroke="transparent" points="940.5,-155 940.5,-174 1012.5,-174 1012.5,-155 940.5,-155"/>
<text text-anchor="start" x="949.5" y="-160.8" font-family="Ubuntu" font-size="14.00">has type</text>
<polygon fill="white" stroke="transparent" points="940.5,-140 940.5,-153 1012.5,-153 1012.5,-140 940.5,-140"/>
<text text-anchor="start" x="942.5" y="-144.6" font-family="FreeMono" font-size="8.00">crm:P2_has_type</text>
</g>
<!-- httpsdataligatusorgukstcatherinesms4145def47d644d23b1ba28d5439a1d98&#45;&gt;httpsdataligatusorgukstcatherinesms4145def47d644d23b1ba28d5439a1d98httpwwwcidoccrmorgcidoccrmP2_has_typehttpw3idorglobconcept2837 -->
<g id="edge17" class="edge">
<title>httpsdataligatusorgukstcatherinesms4145def47d644d23b1ba28d5439a1d98:e&#45;&gt;httpsdataligatusorgukstcatherinesms4145def47d644d23b1ba28d5439a1d98httpwwwcidoccrmorgcidoccrmP2_has_typehttpw3idorglobconcept2837</title>
<path fill="none" stroke="black" d="M778.5,-314C778.5,-314 898.74,-218.17 951.34,-176.25"/>
</g>
<!-- httpsdataligatusorgukstcatherinesmsbfba52b10a034898b07b1551225ad4e8httpwwwcidoccrmorgcidoccrmP32_used_general_techniquehttpstcathknotted -->
<g id="node5" class="node">
<title>httpsdataligatusorgukstcatherinesmsbfba52b10a034898b07b1551225ad4e8httpwwwcidoccrmorgcidoccrmP32_used_general_techniquehttpstcathknotted</title>
<polygon fill="white" stroke="transparent" points="329,-411 329,-430 481,-430 481,-411 329,-411"/>
<text text-anchor="start" x="331" y="-416.8" font-family="Ubuntu" font-size="14.00">used general technique</text>
<polygon fill="white" stroke="transparent" points="329,-396 329,-409 481,-409 481,-396 329,-396"/>
<text text-anchor="start" x="337" y="-400.6" font-family="FreeMono" font-size="8.00">crm:P32_used_general_technique</text>
</g>
<!-- httpsdataligatusorgukstcatherinesmsbfba52b10a034898b07b1551225ad4e8httpwwwcidoccrmorgcidoccrmP32_used_general_techniquehttpstcathknotted&#45;&gt;httpstcathknotted -->
<g id="edge4" class="edge">
<title>httpsdataligatusorgukstcatherinesmsbfba52b10a034898b07b1551225ad4e8httpwwwcidoccrmorgcidoccrmP32_used_general_techniquehttpstcathknotted&#45;&gt;httpstcathknotted:w</title>
<path fill="none" stroke="black" d="M483.12,-425.94C507.55,-430.04 531.6,-434.07 544.75,-436.28"/>
<polygon fill="black" stroke="black" points="544.56,-439.8 555,-438 545.72,-432.89 544.56,-439.8"/>
</g>
<!-- httpsdataligatusorgukstcatherinesmsbfba52b10a034898b07b1551225ad4e8 -->
<g id="node6" class="node">
<title>httpsdataligatusorgukstcatherinesmsbfba52b10a034898b07b1551225ad4e8</title>
<polygon fill="#96e0f6" stroke="transparent" points="0.5,-292 0.5,-336 255.5,-336 255.5,-292 0.5,-292"/>
<polygon fill="none" stroke="black" points="0.5,-292 0.5,-336 255.5,-336 255.5,-292 0.5,-292"/>
<text text-anchor="start" x="11.5" y="-314.8" font-family="Ubuntu" font-size="14.00">Addition of bookmark to Greek 0477</text>
<text text-anchor="start" x="31" y="-305.6" font-family="FreeMono" font-size="8.00">stcath:bfba52b1&#45;0a03&#45;4898&#45;b07b&#45;1551225ad4e8</text>
<polygon fill="#96e0f6" stroke="transparent" points="0.5,-248 0.5,-292 255.5,-292 255.5,-248 0.5,-248"/>
<polygon fill="none" stroke="black" points="0.5,-248 0.5,-292 255.5,-292 255.5,-248 0.5,-248"/>
<text text-anchor="start" x="87" y="-270.8" font-family="Ubuntu" font-style="italic" font-size="14.00">Part Addition</text>
<text text-anchor="start" x="80.5" y="-261.6" font-family="FreeMono" font-size="8.00">crm:E79_Part_Addition</text>
</g>
<!-- httpsdataligatusorgukstcatherinesmsbfba52b10a034898b07b1551225ad4e8&#45;&gt;httpsdataligatusorgukstcatherinesmsbfba52b10a034898b07b1551225ad4e8httpwwwcidoccrmorgcidoccrmP32_used_general_techniquehttpstcathknotted -->
<g id="edge3" class="edge">
<title>httpsdataligatusorgukstcatherinesmsbfba52b10a034898b07b1551225ad4e8:e&#45;&gt;httpsdataligatusorgukstcatherinesmsbfba52b10a034898b07b1551225ad4e8httpwwwcidoccrmorgcidoccrmP32_used_general_techniquehttpstcathknotted</title>
<path fill="none" stroke="black" d="M255,-314C255,-314 331.97,-365.14 375.27,-393.91"/>
</g>
<!-- httpsdataligatusorgukstcatherinesmsbfba52b10a034898b07b1551225ad4e8httpwwwcidoccrmorgcidoccrmP111_addedhttpsdataligatusorgukstcatherinesms4145def47d644d23b1ba28d5439a1d98 -->
<g id="node11" class="node">
<title>httpsdataligatusorgukstcatherinesmsbfba52b10a034898b07b1551225ad4e8httpwwwcidoccrmorgcidoccrmP111_addedhttpsdataligatusorgukstcatherinesms4145def47d644d23b1ba28d5439a1d98</title>
<polygon fill="white" stroke="transparent" points="371,-312 371,-331 439,-331 439,-312 371,-312"/>
<text text-anchor="start" x="385" y="-317.8" font-family="Ubuntu" font-size="14.00">added</text>
<polygon fill="white" stroke="transparent" points="371,-297 371,-310 439,-310 439,-297 371,-297"/>
<text text-anchor="start" x="373" y="-301.6" font-family="FreeMono" font-size="8.00">crm:P111_added</text>
</g>
<!-- httpsdataligatusorgukstcatherinesmsbfba52b10a034898b07b1551225ad4e8&#45;&gt;httpsdataligatusorgukstcatherinesmsbfba52b10a034898b07b1551225ad4e8httpwwwcidoccrmorgcidoccrmP111_addedhttpsdataligatusorgukstcatherinesms4145def47d644d23b1ba28d5439a1d98 -->
<g id="edge7" class="edge">
<title>httpsdataligatusorgukstcatherinesmsbfba52b10a034898b07b1551225ad4e8:e&#45;&gt;httpsdataligatusorgukstcatherinesmsbfba52b10a034898b07b1551225ad4e8httpwwwcidoccrmorgcidoccrmP111_addedhttpsdataligatusorgukstcatherinesms4145def47d644d23b1ba28d5439a1d98</title>
<path fill="none" stroke="black" d="M255,-314C255,-314 324.63,-314 368.69,-314"/>
</g>
<!-- httpsdataligatusorgukstcatherinesmsbfba52b10a034898b07b1551225ad4e8httpwwwcidoccrmorgcidoccrmP110_augmentedhttpsdataligatusorgukstcatherinesms8cf70c59347543168e9934bf9be7404c -->
<g id="node13" class="node">
<title>httpsdataligatusorgukstcatherinesmsbfba52b10a034898b07b1551225ad4e8httpwwwcidoccrmorgcidoccrmP110_augmentedhttpsdataligatusorgukstcatherinesms8cf70c59347543168e9934bf9be7404c</title>
<polygon fill="white" stroke="transparent" points="362,-213 362,-232 448,-232 448,-213 362,-213"/>
<text text-anchor="start" x="368.5" y="-218.8" font-family="Ubuntu" font-size="14.00">augmented</text>
<polygon fill="white" stroke="transparent" points="362,-198 362,-211 448,-211 448,-198 362,-198"/>
<text text-anchor="start" x="364" y="-202.6" font-family="FreeMono" font-size="8.00">crm:P110_augmented</text>
</g>
<!-- httpsdataligatusorgukstcatherinesmsbfba52b10a034898b07b1551225ad4e8&#45;&gt;httpsdataligatusorgukstcatherinesmsbfba52b10a034898b07b1551225ad4e8httpwwwcidoccrmorgcidoccrmP110_augmentedhttpsdataligatusorgukstcatherinesms8cf70c59347543168e9934bf9be7404c -->
<g id="edge9" class="edge">
<title>httpsdataligatusorgukstcatherinesmsbfba52b10a034898b07b1551225ad4e8:e&#45;&gt;httpsdataligatusorgukstcatherinesmsbfba52b10a034898b07b1551225ad4e8httpwwwcidoccrmorgcidoccrmP110_augmentedhttpsdataligatusorgukstcatherinesms8cf70c59347543168e9934bf9be7404c</title>
<path fill="none" stroke="black" d="M255,-314C255,-314 331.97,-262.86 375.27,-234.09"/>
</g>
<!-- httpw3idorglobconcept2837 -->
<g id="node7" class="node">
<title>httpw3idorglobconcept2837</title>
<polygon fill="#fab565" stroke="transparent" points="1256.5,-44 1256.5,-88 1423.5,-88 1423.5,-44 1256.5,-44"/>
<polygon fill="none" stroke="black" points="1256.5,-44 1256.5,-88 1423.5,-88 1423.5,-44 1256.5,-44"/>
<text text-anchor="start" x="1304.5" y="-66.8" font-family="Ubuntu" font-size="14.00">bookmarks</text>
<text text-anchor="start" x="1267.5" y="-57.6" font-family="FreeMono" font-size="8.00">http://w3id.org/lob/concept/2837</text>
<polygon fill="#fab565" stroke="transparent" points="1256.5,0 1256.5,-44 1423.5,-44 1423.5,0 1256.5,0"/>
<polygon fill="none" stroke="black" points="1256.5,0 1256.5,-44 1423.5,-44 1423.5,0 1256.5,0"/>
<text text-anchor="start" x="1325" y="-22.8" font-family="Ubuntu" font-style="italic" font-size="14.00">Type</text>
<text text-anchor="start" x="1312.5" y="-13.6" font-family="FreeMono" font-size="8.00">crm:E55_Type</text>
</g>
<!-- httpstcathspan1 -->
<g id="node8" class="node">
<title>httpstcathspan1</title>
<polygon fill="#fab565" stroke="transparent" points="1227.5,-416 1227.5,-460 1451.5,-460 1451.5,-416 1227.5,-416"/>
<polygon fill="none" stroke="black" points="1227.5,-416 1227.5,-460 1451.5,-460 1451.5,-416 1227.5,-416"/>
<text text-anchor="start" x="1238.5" y="-438.8" font-family="Ubuntu" font-size="14.00">span 1 (bookmark primary type)</text>
<text text-anchor="start" x="1296.5" y="-429.6" font-family="FreeMono" font-size="8.00">http://stcath.span1</text>
<polygon fill="#fab565" stroke="transparent" points="1227.5,-372 1227.5,-416 1451.5,-416 1451.5,-372 1227.5,-372"/>
<polygon fill="none" stroke="black" points="1227.5,-372 1227.5,-416 1451.5,-416 1451.5,-372 1227.5,-372"/>
<text text-anchor="start" x="1324.5" y="-394.8" font-family="Ubuntu" font-style="italic" font-size="14.00">Type</text>
<text text-anchor="start" x="1312" y="-385.6" font-family="FreeMono" font-size="8.00">crm:E55_Type</text>
</g>
<!-- httpw3idorglobconcept4917 -->
<g id="node9" class="node">
<title>httpw3idorglobconcept4917</title>
<polygon fill="#fab565" stroke="transparent" points="1256.5,-540 1256.5,-584 1423.5,-584 1423.5,-540 1256.5,-540"/>
<polygon fill="none" stroke="black" points="1256.5,-540 1256.5,-584 1423.5,-584 1423.5,-540 1256.5,-540"/>
<text text-anchor="start" x="1279.5" y="-562.8" font-family="Ubuntu" font-size="14.00">compound markers</text>
<text text-anchor="start" x="1267.5" y="-553.6" font-family="FreeMono" font-size="8.00">http://w3id.org/lob/concept/4917</text>
<polygon fill="#fab565" stroke="transparent" points="1256.5,-496 1256.5,-540 1423.5,-540 1423.5,-496 1256.5,-496"/>
<polygon fill="none" stroke="black" points="1256.5,-496 1256.5,-540 1423.5,-540 1423.5,-496 1256.5,-496"/>
<text text-anchor="start" x="1325" y="-518.8" font-family="Ubuntu" font-style="italic" font-size="14.00">Type</text>
<text text-anchor="start" x="1312.5" y="-509.6" font-family="FreeMono" font-size="8.00">crm:E55_Type</text>
</g>
<!-- httpsdataligatusorgukstcatherinesms4145def47d644d23b1ba28d5439a1d98httpwwwcidoccrmorgcidoccrmP2_has_typehttpw3idorglobconcept4917&#45;&gt;httpw3idorglobconcept4917 -->
<g id="edge6" class="edge">
<title>httpsdataligatusorgukstcatherinesms4145def47d644d23b1ba28d5439a1d98httpwwwcidoccrmorgcidoccrmP2_has_typehttpw3idorglobconcept4917&#45;&gt;httpw3idorglobconcept4917:w</title>
<path fill="none" stroke="black" d="M1014.7,-529.09C1079.21,-537.9 1208.47,-555.57 1245.42,-560.62"/>
<polygon fill="black" stroke="black" points="1245.12,-564.11 1255.5,-562 1246.07,-557.18 1245.12,-564.11"/>
</g>
<!-- httpsdataligatusorgukstcatherinesmsbfba52b10a034898b07b1551225ad4e8httpwwwcidoccrmorgcidoccrmP111_addedhttpsdataligatusorgukstcatherinesms4145def47d644d23b1ba28d5439a1d98&#45;&gt;httpsdataligatusorgukstcatherinesms4145def47d644d23b1ba28d5439a1d98 -->
<g id="edge8" class="edge">
<title>httpsdataligatusorgukstcatherinesmsbfba52b10a034898b07b1551225ad4e8httpwwwcidoccrmorgcidoccrmP111_addedhttpsdataligatusorgukstcatherinesms4145def47d644d23b1ba28d5439a1d98&#45;&gt;httpsdataligatusorgukstcatherinesms4145def47d644d23b1ba28d5439a1d98:w</title>
<path fill="none" stroke="black" d="M441.06,-314C476.31,-314 528.48,-314 550.31,-314"/>
<polygon fill="black" stroke="black" points="550.5,-317.5 560.5,-314 550.5,-310.5 550.5,-317.5"/>
</g>
<!-- httpstcathwound -->
<g id="node12" class="node">
<title>httpstcathwound</title>
<polygon fill="#fab565" stroke="transparent" points="1216.5,-168 1216.5,-212 1462.5,-212 1462.5,-168 1216.5,-168"/>
<polygon fill="none" stroke="black" points="1216.5,-168 1216.5,-212 1462.5,-212 1462.5,-168 1216.5,-168"/>
<text text-anchor="start" x="1227.5" y="-190.8" font-family="Ubuntu" font-size="14.00">wound (bookmark decoration type)</text>
<text text-anchor="start" x="1296.5" y="-181.6" font-family="FreeMono" font-size="8.00">http://stcath.wound</text>
<polygon fill="#fab565" stroke="transparent" points="1216.5,-124 1216.5,-168 1462.5,-168 1462.5,-124 1216.5,-124"/>
<polygon fill="none" stroke="black" points="1216.5,-124 1216.5,-168 1462.5,-168 1462.5,-124 1216.5,-124"/>
<text text-anchor="start" x="1324.5" y="-146.8" font-family="Ubuntu" font-style="italic" font-size="14.00">Type</text>
<text text-anchor="start" x="1312" y="-137.6" font-family="FreeMono" font-size="8.00">crm:E55_Type</text>
</g>
<!-- httpsdataligatusorgukstcatherinesms8cf70c59347543168e9934bf9be7404c -->
<g id="node14" class="node">
<title>httpsdataligatusorgukstcatherinesms8cf70c59347543168e9934bf9be7404c</title>
<polygon fill="#e1ba9c" stroke="transparent" points="561.5,-108 561.5,-152 777.5,-152 777.5,-108 561.5,-108"/>
<polygon fill="none" stroke="black" points="561.5,-108 561.5,-152 777.5,-152 777.5,-108 561.5,-108"/>
<text text-anchor="start" x="632.5" y="-130.8" font-family="Ubuntu" font-size="14.00">Greek 0477</text>
<text text-anchor="start" x="572.5" y="-121.6" font-family="FreeMono" font-size="8.00">stcath:8cf70c59&#45;3475&#45;4316&#45;8e99&#45;34bf9be7404c</text>
<polygon fill="#e1ba9c" stroke="transparent" points="561.5,-64 561.5,-108 777.5,-108 777.5,-64 561.5,-64"/>
<polygon fill="none" stroke="black" points="561.5,-64 561.5,-108 777.5,-108 777.5,-64 561.5,-64"/>
<text text-anchor="start" x="615" y="-86.8" font-family="Ubuntu" font-style="italic" font-size="14.00">Man&#45;Made Object</text>
<text text-anchor="start" x="617.5" y="-77.6" font-family="FreeMono" font-size="8.00">crm:E22_Man&#45;Made_Object</text>
</g>
<!-- httpsdataligatusorgukstcatherinesmsbfba52b10a034898b07b1551225ad4e8httpwwwcidoccrmorgcidoccrmP110_augmentedhttpsdataligatusorgukstcatherinesms8cf70c59347543168e9934bf9be7404c&#45;&gt;httpsdataligatusorgukstcatherinesms8cf70c59347543168e9934bf9be7404c -->
<g id="edge10" class="edge">
<title>httpsdataligatusorgukstcatherinesmsbfba52b10a034898b07b1551225ad4e8httpwwwcidoccrmorgcidoccrmP110_augmentedhttpsdataligatusorgukstcatherinesms8cf70c59347543168e9934bf9be7404c&#45;&gt;httpsdataligatusorgukstcatherinesms8cf70c59347543168e9934bf9be7404c:w</title>
<path fill="none" stroke="black" d="M440.67,-195.92C476.62,-176.15 530.44,-146.54 551.55,-134.92"/>
<polygon fill="black" stroke="black" points="553.43,-137.89 560.5,-130 550.05,-131.75 553.43,-137.89"/>
</g>
<!-- httpsdataligatusorgukstcatherinesms8cf70c59347543168e9934bf9be7404chttpwwwcidoccrmorgcidoccrmTP46_is_composed_of_physical_thing_of_typehttpw3idorglobconcept2837 -->
<g id="node20" class="node">
<title>httpsdataligatusorgukstcatherinesms8cf70c59347543168e9934bf9be7404chttpwwwcidoccrmorgcidoccrmTP46_is_composed_of_physical_thing_of_typehttpw3idorglobconcept2837</title>
<polygon fill="white" stroke="transparent" points="858.5,-68 858.5,-87 1095.5,-87 1095.5,-68 858.5,-68"/>
<text text-anchor="start" x="860.5" y="-73.8" font-family="Ubuntu" font-size="14.00">is composed of physical thing of type</text>
<polygon fill="white" stroke="transparent" points="858.5,-53 858.5,-66 1095.5,-66 1095.5,-53 858.5,-53"/>
<text text-anchor="start" x="873" y="-57.6" font-family="FreeMono" font-size="8.00">crm:TP46_is_composed_of_physical_thing_of_type</text>
</g>
<!-- httpsdataligatusorgukstcatherinesms8cf70c59347543168e9934bf9be7404c&#45;&gt;httpsdataligatusorgukstcatherinesms8cf70c59347543168e9934bf9be7404chttpwwwcidoccrmorgcidoccrmTP46_is_composed_of_physical_thing_of_typehttpw3idorglobconcept2837 -->
<g id="edge19" class="edge">
<title>httpsdataligatusorgukstcatherinesms8cf70c59347543168e9934bf9be7404c:e&#45;&gt;httpsdataligatusorgukstcatherinesms8cf70c59347543168e9934bf9be7404chttpwwwcidoccrmorgcidoccrmTP46_is_composed_of_physical_thing_of_typehttpw3idorglobconcept2837</title>
<path fill="none" stroke="black" d="M778.5,-130C778.5,-130 855.21,-106.64 912.9,-89.07"/>
</g>
<!-- httpsdataligatusorgukstcatherinesms4145def47d644d23b1ba28d5439a1d98httpwwwcidoccrmorgcidoccrmP2_has_typehttpstcathspan1&#45;&gt;httpstcathspan1 -->
<g id="edge12" class="edge">
<title>httpsdataligatusorgukstcatherinesms4145def47d644d23b1ba28d5439a1d98httpwwwcidoccrmorgcidoccrmP2_has_typehttpstcathspan1&#45;&gt;httpstcathspan1:w</title>
<path fill="none" stroke="black" d="M1014.51,-416.72C1072.76,-422.56 1182.69,-433.6 1216.41,-436.99"/>
<polygon fill="black" stroke="black" points="1216.2,-440.48 1226.5,-438 1216.9,-433.52 1216.2,-440.48"/>
</g>
<!-- httpstcathknotteddoublelength -->
<g id="node17" class="node">
<title>httpstcathknotteddoublelength</title>
<polygon fill="#fab565" stroke="transparent" points="1169.5,-292 1169.5,-336 1510.5,-336 1510.5,-292 1169.5,-292"/>
<polygon fill="none" stroke="black" points="1169.5,-292 1169.5,-336 1510.5,-336 1510.5,-292 1169.5,-292"/>
<text text-anchor="start" x="1180.5" y="-314.8" font-family="Ubuntu" font-size="14.00">knotted double length (bookmark secondary type)</text>
<text text-anchor="start" x="1265.5" y="-305.6" font-family="FreeMono" font-size="8.00">http://stcath.knotteddoublelength</text>
<polygon fill="#fab565" stroke="transparent" points="1169.5,-248 1169.5,-292 1510.5,-292 1510.5,-248 1169.5,-248"/>
<polygon fill="none" stroke="black" points="1169.5,-248 1169.5,-292 1510.5,-292 1510.5,-248 1169.5,-248"/>
<text text-anchor="start" x="1325" y="-270.8" font-family="Ubuntu" font-style="italic" font-size="14.00">Type</text>
<text text-anchor="start" x="1312.5" y="-261.6" font-family="FreeMono" font-size="8.00">crm:E55_Type</text>
</g>
<!-- httpsdataligatusorgukstcatherinesms4145def47d644d23b1ba28d5439a1d98httpwwwcidoccrmorgcidoccrmP2_has_typehttpstcathknotteddoublelength&#45;&gt;httpstcathknotteddoublelength -->
<g id="edge14" class="edge">
<title>httpsdataligatusorgukstcatherinesms4145def47d644d23b1ba28d5439a1d98httpwwwcidoccrmorgcidoccrmP2_has_typehttpstcathknotteddoublelength&#45;&gt;httpstcathknotteddoublelength:w</title>
<path fill="none" stroke="black" d="M1014.88,-314C1059.72,-314 1132.19,-314 1158.79,-314"/>
<polygon fill="black" stroke="black" points="1159,-317.5 1169,-314 1159,-310.5 1159,-317.5"/>
</g>
<!-- httpsdataligatusorgukstcatherinesms4145def47d644d23b1ba28d5439a1d98httpwwwcidoccrmorgcidoccrmP2_has_typehttpstcathwound&#45;&gt;httpstcathwound -->
<g id="edge16" class="edge">
<title>httpsdataligatusorgukstcatherinesms4145def47d644d23b1ba28d5439a1d98httpwwwcidoccrmorgcidoccrmP2_has_typehttpstcathwound&#45;&gt;httpstcathwound:w</title>
<path fill="none" stroke="black" d="M1014.69,-229.66C1070.64,-218.61 1173.37,-198.32 1205.58,-191.96"/>
<polygon fill="black" stroke="black" points="1206.37,-195.37 1215.5,-190 1205.01,-188.5 1206.37,-195.37"/>
</g>
<!-- httpsdataligatusorgukstcatherinesms4145def47d644d23b1ba28d5439a1d98httpwwwcidoccrmorgcidoccrmP2_has_typehttpw3idorglobconcept2837&#45;&gt;httpw3idorglobconcept2837 -->
<g id="edge18" class="edge">
<title>httpsdataligatusorgukstcatherinesms4145def47d644d23b1ba28d5439a1d98httpwwwcidoccrmorgcidoccrmP2_has_typehttpw3idorglobconcept2837&#45;&gt;httpw3idorglobconcept2837:w</title>
<path fill="none" stroke="black" d="M1014.7,-144.82C1079.51,-123.61 1209.66,-81.01 1245.92,-69.13"/>
<polygon fill="black" stroke="black" points="1247.09,-72.44 1255.5,-66 1244.91,-65.78 1247.09,-72.44"/>
</g>
<!-- httpsdataligatusorgukstcatherinesms8cf70c59347543168e9934bf9be7404chttpwwwcidoccrmorgcidoccrmTP46_is_composed_of_physical_thing_of_typehttpw3idorglobconcept2837&#45;&gt;httpw3idorglobconcept2837 -->
<g id="edge20" class="edge">
<title>httpsdataligatusorgukstcatherinesms8cf70c59347543168e9934bf9be7404chttpwwwcidoccrmorgcidoccrmTP46_is_composed_of_physical_thing_of_typehttpw3idorglobconcept2837&#45;&gt;httpw3idorglobconcept2837:w</title>
<path fill="none" stroke="black" d="M1097.01,-68.28C1156.46,-67.42 1220.77,-66.5 1245.26,-66.15"/>
<polygon fill="black" stroke="black" points="1245.55,-69.64 1255.5,-66 1245.45,-62.64 1245.55,-69.64"/>
</g>
</g>
</svg>
