<?xml version="1.0" encoding="UTF-8" standalone="no"?>
<!DOCTYPE svg PUBLIC "-//W3C//DTD SVG 1.1//EN"
 "http://www.w3.org/Graphics/SVG/1.1/DTD/svg11.dtd">
<!-- Generated by graphviz version 2.43.0 (0)
 -->
<!-- Title: %3 Pages: 1 -->
<svg width="239pt" height="284pt"
 viewBox="0.00 0.00 239.00 284.00" xmlns="http://www.w3.org/2000/svg" xmlns:xlink="http://www.w3.org/1999/xlink">
<g id="graph0" class="graph" transform="scale(1 1) rotate(0) translate(36 248)">
<title>%3</title>
<polygon fill="white" stroke="transparent" points="-36,36 -36,-248 203,-248 203,36 -36,36"/>
<!-- httpstcathloose -->
<g id="node1" class="node">
<title>httpstcathloose</title>
<polygon fill="#fab565" stroke="transparent" points="14.5,-44 14.5,-88 153.5,-88 153.5,-44 14.5,-44"/>
<polygon fill="none" stroke="black" points="14.5,-44 14.5,-88 153.5,-88 153.5,-44 14.5,-44"/>
<text text-anchor="start" x="25.5" y="-66.8" font-family="Ubuntu" font-size="14.00">loose (bookmarks)</text>
<text text-anchor="start" x="41" y="-57.6" font-family="FreeMono" font-size="8.00">http://stcath.loose</text>
<polygon fill="#fab565" stroke="transparent" points="14.5,0 14.5,-44 153.5,-44 153.5,0 14.5,0"/>
<polygon fill="none" stroke="black" points="14.5,0 14.5,-44 153.5,-44 153.5,0 14.5,0"/>
<text text-anchor="start" x="69" y="-22.8" font-family="Ubuntu" font-style="italic" font-size="14.00">Type</text>
<text text-anchor="start" x="56.5" y="-13.6" font-family="FreeMono" font-size="8.00">crm:E55_Type</text>
</g>
<!-- httpw3idorglobconcept2837 -->
<g id="node2" class="node">
<title>httpw3idorglobconcept2837</title>
<polygon fill="#fab565" stroke="transparent" points="0.5,-168 0.5,-212 167.5,-212 167.5,-168 0.5,-168"/>
<polygon fill="none" stroke="black" points="0.5,-168 0.5,-212 167.5,-212 167.5,-168 0.5,-168"/>
<text text-anchor="start" x="48.5" y="-190.8" font-family="Ubuntu" font-size="14.00">bookmarks</text>
<text text-anchor="start" x="11.5" y="-181.6" font-family="FreeMono" font-size="8.00">http://w3id.org/lob/concept/2837</text>
<polygon fill="#fab565" stroke="transparent" points="0.5,-124 0.5,-168 167.5,-168 167.5,-124 0.5,-124"/>
<polygon fill="none" stroke="black" points="0.5,-124 0.5,-168 167.5,-168 167.5,-124 0.5,-124"/>
<text text-anchor="start" x="69" y="-146.8" font-family="Ubuntu" font-style="italic" font-size="14.00">Type</text>
<text text-anchor="start" x="56.5" y="-137.6" font-family="FreeMono" font-size="8.00">crm:E55_Type</text>
</g>
</g>
</svg>
