<?xml version="1.0" encoding="UTF-8" standalone="no"?>
<!DOCTYPE svg PUBLIC "-//W3C//DTD SVG 1.1//EN"
 "http://www.w3.org/Graphics/SVG/1.1/DTD/svg11.dtd">
<!-- Generated by graphviz version 2.43.0 (0)
 -->
<!-- Title: %3 Pages: 1 -->
<svg width="1048pt" height="202pt"
 viewBox="0.00 0.00 1048.00 202.00" xmlns="http://www.w3.org/2000/svg" xmlns:xlink="http://www.w3.org/1999/xlink">
<g id="graph0" class="graph" transform="scale(1 1) rotate(0) translate(4 198)">
<title>%3</title>
<polygon fill="white" stroke="transparent" points="-4,4 -4,-198 1044,-198 1044,4 -4,4"/>
<!-- httpsdataligatusorgukstcatherinesms5e8ede4e6a3f4726aa8d504741bb0154 -->
<g id="node1" class="node">
<title>httpsdataligatusorgukstcatherinesms5e8ede4e6a3f4726aa8d504741bb0154</title>
<polygon fill="#fffa40" stroke="transparent" points="824,-150 824,-194 1040,-194 1040,-150 824,-150"/>
<polygon fill="none" stroke="black" points="824,-150 824,-194 1040,-194 1040,-150 824,-150"/>
<text text-anchor="start" x="852" y="-172.8" font-family="Ubuntu" font-size="14.00">Arabica 0001 (shelfmark)</text>
<text text-anchor="start" x="835" y="-163.6" font-family="FreeMono" font-size="8.00">stcath:5e8ede4e&#45;6a3f&#45;4726&#45;aa8d&#45;504741bb0154</text>
<polygon fill="#fffa40" stroke="transparent" points="824,-106 824,-150 1040,-150 1040,-106 824,-106"/>
<polygon fill="none" stroke="black" points="824,-106 824,-150 1040,-150 1040,-106 824,-106"/>
<text text-anchor="start" x="903" y="-128.8" font-family="Ubuntu" font-style="italic" font-size="14.00">Identifier</text>
<text text-anchor="start" x="891" y="-119.6" font-family="FreeMono" font-size="8.00">crm:E42_Identifier</text>
</g>
<!-- httpw3idorglobconcept4886 -->
<g id="node2" class="node">
<title>httpw3idorglobconcept4886</title>
<polygon fill="#fab565" stroke="transparent" points="849,-44 849,-88 1016,-88 1016,-44 849,-44"/>
<polygon fill="none" stroke="black" points="849,-44 849,-88 1016,-88 1016,-44 849,-44"/>
<text text-anchor="start" x="875" y="-66.8" font-family="Ubuntu" font-size="14.00">codex&#45;form books</text>
<text text-anchor="start" x="860" y="-57.6" font-family="FreeMono" font-size="8.00">http://w3id.org/lob/concept/4886</text>
<polygon fill="#fab565" stroke="transparent" points="849,0 849,-44 1016,-44 1016,0 849,0"/>
<polygon fill="none" stroke="black" points="849,0 849,-44 1016,-44 1016,0 849,0"/>
<text text-anchor="start" x="917.5" y="-22.8" font-family="Ubuntu" font-style="italic" font-size="14.00">Type</text>
<text text-anchor="start" x="905" y="-13.6" font-family="FreeMono" font-size="8.00">crm:E55_Type</text>
</g>
<!-- httpsdataligatusorgukstcatherinesms780c99acb3ee4b219e4832b53a721830 -->
<g id="node3" class="node">
<title>httpsdataligatusorgukstcatherinesms780c99acb3ee4b219e4832b53a721830</title>
<polygon fill="#e1ba9c" stroke="transparent" points="0,-97 0,-141 216,-141 216,-97 0,-97"/>
<polygon fill="none" stroke="black" points="0,-97 0,-141 216,-141 216,-97 0,-97"/>
<text text-anchor="start" x="87.5" y="-119.8" font-family="Ubuntu" font-size="14.00">Arabic</text>
<text text-anchor="start" x="11" y="-110.6" font-family="FreeMono" font-size="8.00">stcath:780c99ac&#45;b3ee&#45;4b21&#45;9e48&#45;32b53a721830</text>
<polygon fill="#e1ba9c" stroke="transparent" points="0,-53 0,-97 216,-97 216,-53 0,-53"/>
<polygon fill="none" stroke="black" points="0,-53 0,-97 216,-97 216,-53 0,-53"/>
<text text-anchor="start" x="77.5" y="-75.8" font-family="Ubuntu" font-style="italic" font-size="14.00">Collection</text>
<text text-anchor="start" x="67" y="-66.6" font-family="FreeMono" font-size="8.00">crm:E78_Collection</text>
</g>
<!-- httpwwwcidoccrmorgcidoccrmP46_is_composed_of -->
<g id="node7" class="node">
<title>httpwwwcidoccrmorgcidoccrmP46_is_composed_of</title>
<text text-anchor="start" x="255" y="-119.8" font-family="Ubuntu" font-size="14.00">is composed of</text>
<text text-anchor="start" x="252" y="-110.6" font-family="FreeMono" font-size="8.00">crm:P46_is_composed_of</text>
</g>
<!-- httpsdataligatusorgukstcatherinesms780c99acb3ee4b219e4832b53a721830&#45;&gt;httpwwwcidoccrmorgcidoccrmP46_is_composed_of -->
<g id="edge5" class="edge">
<title>httpsdataligatusorgukstcatherinesms780c99acb3ee4b219e4832b53a721830:instance&#45;&gt;httpwwwcidoccrmorgcidoccrmP46_is_composed_of</title>
<path fill="none" stroke="black" d="M216,-119C216,-119 232.86,-119 251.56,-119"/>
</g>
<!-- httpsdataligatusorgukstcatherinesms961e50ea2895472e94aeb69ff8c2e56d -->
<g id="node4" class="node">
<title>httpsdataligatusorgukstcatherinesms961e50ea2895472e94aeb69ff8c2e56d</title>
<polygon fill="#e1ba9c" stroke="transparent" points="388,-97 388,-141 604,-141 604,-97 388,-97"/>
<polygon fill="none" stroke="black" points="388,-97 388,-141 604,-141 604,-97 388,-97"/>
<text text-anchor="start" x="453.5" y="-119.8" font-family="Ubuntu" font-size="14.00">Arabica 0001</text>
<text text-anchor="start" x="399" y="-110.6" font-family="FreeMono" font-size="8.00">stcath:961e50ea&#45;2895&#45;472e&#45;94ae&#45;b69ff8c2e56d</text>
<polygon fill="#e1ba9c" stroke="transparent" points="388,-53 388,-97 604,-97 604,-53 388,-53"/>
<polygon fill="none" stroke="black" points="388,-53 388,-97 604,-97 604,-53 388,-53"/>
<text text-anchor="start" x="441.5" y="-75.8" font-family="Ubuntu" font-style="italic" font-size="14.00">Man&#45;Made Object</text>
<text text-anchor="start" x="444" y="-66.6" font-family="FreeMono" font-size="8.00">crm:E22_Man&#45;Made_Object</text>
</g>
<!-- httpwwwcidoccrmorgcidoccrmP48_has_preferred_identifier -->
<g id="node5" class="node">
<title>httpwwwcidoccrmorgcidoccrmP48_has_preferred_identifier</title>
<text text-anchor="start" x="640" y="-159.8" font-family="Ubuntu" font-size="14.00">has preferred identifier</text>
<text text-anchor="start" x="641.5" y="-150.6" font-family="FreeMono" font-size="8.00">crm:P48_has_preferred_identifier</text>
</g>
<!-- httpsdataligatusorgukstcatherinesms961e50ea2895472e94aeb69ff8c2e56d&#45;&gt;httpwwwcidoccrmorgcidoccrmP48_has_preferred_identifier -->
<g id="edge1" class="edge">
<title>httpsdataligatusorgukstcatherinesms961e50ea2895472e94aeb69ff8c2e56d:instance&#45;&gt;httpwwwcidoccrmorgcidoccrmP48_has_preferred_identifier</title>
<path fill="none" stroke="black" d="M604,-119C604,-119 634.99,-130.37 663.92,-140.99"/>
</g>
<!-- httpwwwcidoccrmorgcidoccrmP2_has_type -->
<g id="node6" class="node">
<title>httpwwwcidoccrmorgcidoccrmP2_has_type</title>
<text text-anchor="start" x="687" y="-92.8" font-family="Ubuntu" font-size="14.00">has type</text>
<text text-anchor="start" x="680" y="-83.6" font-family="FreeMono" font-size="8.00">crm:P2_has_type</text>
</g>
<!-- httpsdataligatusorgukstcatherinesms961e50ea2895472e94aeb69ff8c2e56d&#45;&gt;httpwwwcidoccrmorgcidoccrmP2_has_type -->
<g id="edge3" class="edge">
<title>httpsdataligatusorgukstcatherinesms961e50ea2895472e94aeb69ff8c2e56d:instance&#45;&gt;httpwwwcidoccrmorgcidoccrmP2_has_type</title>
<path fill="none" stroke="black" d="M604,-119C604,-119 647.65,-108.19 679.7,-100.25"/>
</g>
<!-- httpwwwcidoccrmorgcidoccrmP48_has_preferred_identifier&#45;&gt;httpsdataligatusorgukstcatherinesms5e8ede4e6a3f4726aa8d504741bb0154 -->
<g id="edge2" class="edge">
<title>httpwwwcidoccrmorgcidoccrmP48_has_preferred_identifier&#45;&gt;httpsdataligatusorgukstcatherinesms5e8ede4e6a3f4726aa8d504741bb0154:instance</title>
<path fill="none" stroke="black" d="M788.01,-167.71C798.25,-168.93 807.49,-170.03 814.05,-170.81"/>
<polygon fill="black" stroke="black" points="813.66,-174.29 824,-172 814.48,-167.34 813.66,-174.29"/>
</g>
<!-- httpwwwcidoccrmorgcidoccrmP2_has_type&#45;&gt;httpw3idorglobconcept4886 -->
<g id="edge4" class="edge">
<title>httpwwwcidoccrmorgcidoccrmP2_has_type&#45;&gt;httpw3idorglobconcept4886:instance</title>
<path fill="none" stroke="black" d="M748.22,-85.51C777.76,-79.73 819.12,-71.65 837.95,-67.96"/>
<polygon fill="black" stroke="black" points="838.86,-71.35 848,-66 837.51,-64.48 838.86,-71.35"/>
</g>
<!-- httpwwwcidoccrmorgcidoccrmP46_is_composed_of&#45;&gt;httpsdataligatusorgukstcatherinesms961e50ea2895472e94aeb69ff8c2e56d -->
<g id="edge6" class="edge">
<title>httpwwwcidoccrmorgcidoccrmP46_is_composed_of&#45;&gt;httpsdataligatusorgukstcatherinesms961e50ea2895472e94aeb69ff8c2e56d:instance</title>
<path fill="none" stroke="black" d="M352.44,-119C362.09,-119 371.24,-119 377.84,-119"/>
<polygon fill="black" stroke="black" points="378,-122.5 388,-119 378,-115.5 378,-122.5"/>
</g>
</g>
</svg>
