<?xml version="1.0" encoding="UTF-8" standalone="no"?>
<!DOCTYPE svg PUBLIC "-//W3C//DTD SVG 1.1//EN"
 "http://www.w3.org/Graphics/SVG/1.1/DTD/svg11.dtd">
<!-- Generated by graphviz version 2.43.0 (0)
 -->
<!-- Title: %3 Pages: 1 -->
<svg width="3000pt" height="697pt"
 viewBox="0.00 0.00 3000.00 697.00" xmlns="http://www.w3.org/2000/svg" xmlns:xlink="http://www.w3.org/1999/xlink">
<g id="graph0" class="graph" transform="scale(1 1) rotate(0) translate(36 661)">
<title>%3</title>
<polygon fill="white" stroke="transparent" points="-36,36 -36,-661 2964,-661 2964,36 -36,36"/>
<!-- httpsdataligatusorgukstcatherinesmsc09f98b8c5734ca58b0be51f1fa8df2chttpwwwcidoccrmorgcidoccrmP32_used_general_techniquehttpw3idorglobconcept5429 -->
<g id="node1" class="node">
<title>httpsdataligatusorgukstcatherinesmsc09f98b8c5734ca58b0be51f1fa8df2chttpwwwcidoccrmorgcidoccrmP32_used_general_techniquehttpw3idorglobconcept5429</title>
<polygon fill="white" stroke="transparent" points="357,-525 357,-544 509,-544 509,-525 357,-525"/>
<text text-anchor="start" x="359" y="-530.8" font-family="Ubuntu" font-size="14.00">used general technique</text>
<polygon fill="white" stroke="transparent" points="357,-510 357,-523 509,-523 509,-510 357,-510"/>
<text text-anchor="start" x="365" y="-514.6" font-family="FreeMono" font-size="8.00">crm:P32_used_general_technique</text>
</g>
<!-- httpw3idorglobconcept5429 -->
<g id="node3" class="node">
<title>httpw3idorglobconcept5429</title>
<polygon fill="#fab565" stroke="transparent" points="608,-530 608,-574 775,-574 775,-530 608,-530"/>
<polygon fill="none" stroke="black" points="608,-530 608,-574 775,-574 775,-530 608,-530"/>
<text text-anchor="start" x="662.5" y="-552.8" font-family="Ubuntu" font-size="14.00">adhering</text>
<text text-anchor="start" x="619" y="-543.6" font-family="FreeMono" font-size="8.00">http://w3id.org/lob/concept/5429</text>
<polygon fill="#fab565" stroke="transparent" points="608,-486 608,-530 775,-530 775,-486 608,-486"/>
<polygon fill="none" stroke="black" points="608,-486 608,-530 775,-530 775,-486 608,-486"/>
<text text-anchor="start" x="676.5" y="-508.8" font-family="Ubuntu" font-style="italic" font-size="14.00">Type</text>
<text text-anchor="start" x="664" y="-499.6" font-family="FreeMono" font-size="8.00">crm:E55_Type</text>
</g>
<!-- httpsdataligatusorgukstcatherinesmsc09f98b8c5734ca58b0be51f1fa8df2chttpwwwcidoccrmorgcidoccrmP32_used_general_techniquehttpw3idorglobconcept5429&#45;&gt;httpw3idorglobconcept5429 -->
<g id="edge2" class="edge">
<title>httpsdataligatusorgukstcatherinesmsc09f98b8c5734ca58b0be51f1fa8df2chttpwwwcidoccrmorgcidoccrmP32_used_general_techniquehttpw3idorglobconcept5429&#45;&gt;httpw3idorglobconcept5429:w</title>
<path fill="none" stroke="black" d="M511.14,-538.15C544.66,-542.99 580.07,-548.11 596.94,-550.55"/>
<polygon fill="black" stroke="black" points="596.6,-554.03 607,-552 597.6,-547.11 596.6,-554.03"/>
</g>
<!-- httpsdataligatusorgukstcatherinesmsc09f98b8c5734ca58b0be51f1fa8df2c -->
<g id="node2" class="node">
<title>httpsdataligatusorgukstcatherinesmsc09f98b8c5734ca58b0be51f1fa8df2c</title>
<polygon fill="#96e0f6" stroke="transparent" points="0.5,-406 0.5,-450 283.5,-450 283.5,-406 0.5,-406"/>
<polygon fill="none" stroke="black" points="0.5,-406 0.5,-450 283.5,-450 283.5,-406 0.5,-406"/>
<text text-anchor="start" x="11.5" y="-428.8" font-family="Ubuntu" font-size="14.00">Addition of pagemarkers to Arabica 0402</text>
<text text-anchor="start" x="45" y="-419.6" font-family="FreeMono" font-size="8.00">stcath:c09f98b8&#45;c573&#45;4ca5&#45;8b0b&#45;e51f1fa8df2c</text>
<polygon fill="#96e0f6" stroke="transparent" points="0.5,-362 0.5,-406 283.5,-406 283.5,-362 0.5,-362"/>
<polygon fill="none" stroke="black" points="0.5,-362 0.5,-406 283.5,-406 283.5,-362 0.5,-362"/>
<text text-anchor="start" x="101" y="-384.8" font-family="Ubuntu" font-style="italic" font-size="14.00">Part Addition</text>
<text text-anchor="start" x="94.5" y="-375.6" font-family="FreeMono" font-size="8.00">crm:E79_Part_Addition</text>
</g>
<!-- httpsdataligatusorgukstcatherinesmsc09f98b8c5734ca58b0be51f1fa8df2c&#45;&gt;httpsdataligatusorgukstcatherinesmsc09f98b8c5734ca58b0be51f1fa8df2chttpwwwcidoccrmorgcidoccrmP32_used_general_techniquehttpw3idorglobconcept5429 -->
<g id="edge1" class="edge">
<title>httpsdataligatusorgukstcatherinesmsc09f98b8c5734ca58b0be51f1fa8df2c:e&#45;&gt;httpsdataligatusorgukstcatherinesmsc09f98b8c5734ca58b0be51f1fa8df2chttpwwwcidoccrmorgcidoccrmP32_used_general_techniquehttpw3idorglobconcept5429</title>
<path fill="none" stroke="black" d="M283,-428C283,-428 359.97,-479.14 403.27,-507.91"/>
</g>
<!-- httpsdataligatusorgukstcatherinesmsc09f98b8c5734ca58b0be51f1fa8df2chttpwwwcidoccrmorgcidoccrmP110_augmentedhttpsdataligatusorgukstcatherinesmsbabdafbc4d5f41c7aceb9ee499cb320f -->
<g id="node7" class="node">
<title>httpsdataligatusorgukstcatherinesmsc09f98b8c5734ca58b0be51f1fa8df2chttpwwwcidoccrmorgcidoccrmP110_augmentedhttpsdataligatusorgukstcatherinesmsbabdafbc4d5f41c7aceb9ee499cb320f</title>
<polygon fill="white" stroke="transparent" points="390,-426 390,-445 476,-445 476,-426 390,-426"/>
<text text-anchor="start" x="396.5" y="-431.8" font-family="Ubuntu" font-size="14.00">augmented</text>
<polygon fill="white" stroke="transparent" points="390,-411 390,-424 476,-424 476,-411 390,-411"/>
<text text-anchor="start" x="392" y="-415.6" font-family="FreeMono" font-size="8.00">crm:P110_augmented</text>
</g>
<!-- httpsdataligatusorgukstcatherinesmsc09f98b8c5734ca58b0be51f1fa8df2c&#45;&gt;httpsdataligatusorgukstcatherinesmsc09f98b8c5734ca58b0be51f1fa8df2chttpwwwcidoccrmorgcidoccrmP110_augmentedhttpsdataligatusorgukstcatherinesmsbabdafbc4d5f41c7aceb9ee499cb320f -->
<g id="edge5" class="edge">
<title>httpsdataligatusorgukstcatherinesmsc09f98b8c5734ca58b0be51f1fa8df2c:e&#45;&gt;httpsdataligatusorgukstcatherinesmsc09f98b8c5734ca58b0be51f1fa8df2chttpwwwcidoccrmorgcidoccrmP110_augmentedhttpsdataligatusorgukstcatherinesmsbabdafbc4d5f41c7aceb9ee499cb320f</title>
<path fill="none" stroke="black" d="M283,-428C283,-428 343.78,-428 387.7,-428"/>
</g>
<!-- httpsdataligatusorgukstcatherinesmsc09f98b8c5734ca58b0be51f1fa8df2chttpwwwcidoccrmorgcidoccrmP111_addedhttpsdataligatusorgukstcatherinesms513b975d97044171aaba3555474400b3 -->
<g id="node25" class="node">
<title>httpsdataligatusorgukstcatherinesmsc09f98b8c5734ca58b0be51f1fa8df2chttpwwwcidoccrmorgcidoccrmP111_addedhttpsdataligatusorgukstcatherinesms513b975d97044171aaba3555474400b3</title>
<polygon fill="white" stroke="transparent" points="657,-305 657,-324 725,-324 725,-305 657,-305"/>
<text text-anchor="start" x="671" y="-310.8" font-family="Ubuntu" font-size="14.00">added</text>
<polygon fill="white" stroke="transparent" points="657,-290 657,-303 725,-303 725,-290 657,-290"/>
<text text-anchor="start" x="659" y="-294.6" font-family="FreeMono" font-size="8.00">crm:P111_added</text>
</g>
<!-- httpsdataligatusorgukstcatherinesmsc09f98b8c5734ca58b0be51f1fa8df2c&#45;&gt;httpsdataligatusorgukstcatherinesmsc09f98b8c5734ca58b0be51f1fa8df2chttpwwwcidoccrmorgcidoccrmP111_addedhttpsdataligatusorgukstcatherinesms513b975d97044171aaba3555474400b3 -->
<g id="edge23" class="edge">
<title>httpsdataligatusorgukstcatherinesmsc09f98b8c5734ca58b0be51f1fa8df2c:e&#45;&gt;httpsdataligatusorgukstcatherinesmsc09f98b8c5734ca58b0be51f1fa8df2chttpwwwcidoccrmorgcidoccrmP111_addedhttpsdataligatusorgukstcatherinesms513b975d97044171aaba3555474400b3</title>
<path fill="none" stroke="black" d="M283.5,-428C283.5,-428 555.11,-347.35 654.84,-317.74"/>
</g>
<!-- httpsdataligatusorgukstcatherinesmsbabdafbc4d5f41c7aceb9ee499cb320fhttpwwwcidoccrmorgcidoccrmP46_is_composed_ofhttpsdataligatusorgukstcatherinesms513b975d97044171aaba3555474400b3 -->
<g id="node4" class="node">
<title>httpsdataligatusorgukstcatherinesmsbabdafbc4d5f41c7aceb9ee499cb320fhttpwwwcidoccrmorgcidoccrmP46_is_composed_ofhttpsdataligatusorgukstcatherinesms513b975d97044171aaba3555474400b3</title>
<polygon fill="white" stroke="transparent" points="873,-402 873,-421 977,-421 977,-402 873,-402"/>
<text text-anchor="start" x="878" y="-407.8" font-family="Ubuntu" font-size="14.00">is composed of</text>
<polygon fill="white" stroke="transparent" points="873,-387 873,-400 977,-400 977,-387 873,-387"/>
<text text-anchor="start" x="875" y="-391.6" font-family="FreeMono" font-size="8.00">crm:P46_is_composed_of</text>
</g>
<!-- httpsdataligatusorgukstcatherinesms513b975d97044171aaba3555474400b3 -->
<g id="node6" class="node">
<title>httpsdataligatusorgukstcatherinesms513b975d97044171aaba3555474400b3</title>
<polygon fill="#e1ba9c" stroke="transparent" points="1063.5,-285 1063.5,-329 1279.5,-329 1279.5,-285 1063.5,-285"/>
<polygon fill="none" stroke="black" points="1063.5,-285 1063.5,-329 1279.5,-329 1279.5,-285 1063.5,-285"/>
<text text-anchor="start" x="1076.5" y="-307.8" font-family="Ubuntu" font-size="14.00">Page&#45;markers of Arabica 0402</text>
<text text-anchor="start" x="1074.5" y="-298.6" font-family="FreeMono" font-size="8.00">stcath:513b975d&#45;9704&#45;4171&#45;aaba&#45;3555474400b3</text>
<polygon fill="#e1ba9c" stroke="transparent" points="1063.5,-241 1063.5,-285 1279.5,-285 1279.5,-241 1063.5,-241"/>
<polygon fill="none" stroke="black" points="1063.5,-241 1063.5,-285 1279.5,-285 1279.5,-241 1063.5,-241"/>
<text text-anchor="start" x="1117" y="-263.8" font-family="Ubuntu" font-style="italic" font-size="14.00">Man&#45;Made Object</text>
<text text-anchor="start" x="1119.5" y="-254.6" font-family="FreeMono" font-size="8.00">crm:E22_Man&#45;Made_Object</text>
</g>
<!-- httpsdataligatusorgukstcatherinesmsbabdafbc4d5f41c7aceb9ee499cb320fhttpwwwcidoccrmorgcidoccrmP46_is_composed_ofhttpsdataligatusorgukstcatherinesms513b975d97044171aaba3555474400b3&#45;&gt;httpsdataligatusorgukstcatherinesms513b975d97044171aaba3555474400b3 -->
<g id="edge4" class="edge">
<title>httpsdataligatusorgukstcatherinesmsbabdafbc4d5f41c7aceb9ee499cb320fhttpwwwcidoccrmorgcidoccrmP46_is_composed_ofhttpsdataligatusorgukstcatherinesms513b975d97044171aaba3555474400b3&#45;&gt;httpsdataligatusorgukstcatherinesms513b975d97044171aaba3555474400b3:w</title>
<path fill="none" stroke="black" d="M952.97,-384.84C984.36,-362.53 1034.41,-326.96 1054.13,-312.95"/>
<polygon fill="black" stroke="black" points="1056.38,-315.65 1062.5,-307 1052.32,-309.94 1056.38,-315.65"/>
</g>
<!-- httpsdataligatusorgukstcatherinesmsbabdafbc4d5f41c7aceb9ee499cb320f -->
<g id="node5" class="node">
<title>httpsdataligatusorgukstcatherinesmsbabdafbc4d5f41c7aceb9ee499cb320f</title>
<polygon fill="#e1ba9c" stroke="transparent" points="583,-406 583,-450 799,-450 799,-406 583,-406"/>
<polygon fill="none" stroke="black" points="583,-406 583,-450 799,-450 799,-406 583,-406"/>
<text text-anchor="start" x="648.5" y="-428.8" font-family="Ubuntu" font-size="14.00">Arabica 0402</text>
<text text-anchor="start" x="594" y="-419.6" font-family="FreeMono" font-size="8.00">stcath:babdafbc&#45;4d5f&#45;41c7&#45;aceb&#45;9ee499cb320f</text>
<polygon fill="#e1ba9c" stroke="transparent" points="583,-362 583,-406 799,-406 799,-362 583,-362"/>
<polygon fill="none" stroke="black" points="583,-362 583,-406 799,-406 799,-362 583,-362"/>
<text text-anchor="start" x="636.5" y="-384.8" font-family="Ubuntu" font-style="italic" font-size="14.00">Man&#45;Made Object</text>
<text text-anchor="start" x="639" y="-375.6" font-family="FreeMono" font-size="8.00">crm:E22_Man&#45;Made_Object</text>
</g>
<!-- httpsdataligatusorgukstcatherinesmsbabdafbc4d5f41c7aceb9ee499cb320f&#45;&gt;httpsdataligatusorgukstcatherinesmsbabdafbc4d5f41c7aceb9ee499cb320fhttpwwwcidoccrmorgcidoccrmP46_is_composed_ofhttpsdataligatusorgukstcatherinesms513b975d97044171aaba3555474400b3 -->
<g id="edge3" class="edge">
<title>httpsdataligatusorgukstcatherinesmsbabdafbc4d5f41c7aceb9ee499cb320f:e&#45;&gt;httpsdataligatusorgukstcatherinesmsbabdafbc4d5f41c7aceb9ee499cb320fhttpwwwcidoccrmorgcidoccrmP46_is_composed_ofhttpsdataligatusorgukstcatherinesms513b975d97044171aaba3555474400b3</title>
<path fill="none" stroke="black" d="M799,-428C799,-428 836.92,-420.72 870.99,-414.18"/>
</g>
<!-- httpsdataligatusorgukstcatherinesmsbabdafbc4d5f41c7aceb9ee499cb320fhttpwwwcidoccrmorgcidoccrmTP46_is_composed_of_physical_thing_of_typehttpw3idorglobconcept2945 -->
<g id="node24" class="node">
<title>httpsdataligatusorgukstcatherinesmsbabdafbc4d5f41c7aceb9ee499cb320fhttpwwwcidoccrmorgcidoccrmTP46_is_composed_of_physical_thing_of_typehttpw3idorglobconcept2945</title>
<polygon fill="white" stroke="transparent" points="1053.5,-514 1053.5,-533 1290.5,-533 1290.5,-514 1053.5,-514"/>
<text text-anchor="start" x="1055.5" y="-519.8" font-family="Ubuntu" font-size="14.00">is composed of physical thing of type</text>
<polygon fill="white" stroke="transparent" points="1053.5,-499 1053.5,-512 1290.5,-512 1290.5,-499 1053.5,-499"/>
<text text-anchor="start" x="1068" y="-503.6" font-family="FreeMono" font-size="8.00">crm:TP46_is_composed_of_physical_thing_of_type</text>
</g>
<!-- httpsdataligatusorgukstcatherinesmsbabdafbc4d5f41c7aceb9ee499cb320f&#45;&gt;httpsdataligatusorgukstcatherinesmsbabdafbc4d5f41c7aceb9ee499cb320fhttpwwwcidoccrmorgcidoccrmTP46_is_composed_of_physical_thing_of_typehttpw3idorglobconcept2945 -->
<g id="edge21" class="edge">
<title>httpsdataligatusorgukstcatherinesmsbabdafbc4d5f41c7aceb9ee499cb320f:e&#45;&gt;httpsdataligatusorgukstcatherinesmsbabdafbc4d5f41c7aceb9ee499cb320fhttpwwwcidoccrmorgcidoccrmTP46_is_composed_of_physical_thing_of_typehttpw3idorglobconcept2945</title>
<path fill="none" stroke="black" d="M799,-428C799,-428 981.12,-471.02 1090.67,-496.91"/>
</g>
<!-- httpsdataligatusorgukstcatherinesms513b975d97044171aaba3555474400b3httpwwwcidoccrmorgcidoccrmP46_is_composed_ofhttpsdataligatusorgukstcatherinesms69e8c68d5ead4e8ba090580811f6d2a6 -->
<g id="node9" class="node">
<title>httpsdataligatusorgukstcatherinesms513b975d97044171aaba3555474400b3httpwwwcidoccrmorgcidoccrmP46_is_composed_ofhttpsdataligatusorgukstcatherinesms69e8c68d5ead4e8ba090580811f6d2a6</title>
<polygon fill="white" stroke="transparent" points="1366,-299 1366,-318 1470,-318 1470,-299 1366,-299"/>
<text text-anchor="start" x="1371" y="-304.8" font-family="Ubuntu" font-size="14.00">is composed of</text>
<polygon fill="white" stroke="transparent" points="1366,-284 1366,-297 1470,-297 1470,-284 1366,-284"/>
<text text-anchor="start" x="1368" y="-288.6" font-family="FreeMono" font-size="8.00">crm:P46_is_composed_of</text>
</g>
<!-- httpsdataligatusorgukstcatherinesms513b975d97044171aaba3555474400b3&#45;&gt;httpsdataligatusorgukstcatherinesms513b975d97044171aaba3555474400b3httpwwwcidoccrmorgcidoccrmP46_is_composed_ofhttpsdataligatusorgukstcatherinesms69e8c68d5ead4e8ba090580811f6d2a6 -->
<g id="edge7" class="edge">
<title>httpsdataligatusorgukstcatherinesms513b975d97044171aaba3555474400b3:e&#45;&gt;httpsdataligatusorgukstcatherinesms513b975d97044171aaba3555474400b3httpwwwcidoccrmorgcidoccrmP46_is_composed_ofhttpsdataligatusorgukstcatherinesms69e8c68d5ead4e8ba090580811f6d2a6</title>
<path fill="none" stroke="black" d="M1280.5,-307C1280.5,-307 1325.51,-305.02 1363.83,-303.34"/>
</g>
<!-- httpsdataligatusorgukstcatherinesms513b975d97044171aaba3555474400b3httpwwwcidoccrmorgcidoccrmP56_bears_featurehttpvocabgettyeduaat300129361 -->
<g id="node12" class="node">
<title>httpsdataligatusorgukstcatherinesms513b975d97044171aaba3555474400b3httpwwwcidoccrmorgcidoccrmP56_bears_featurehttpvocabgettyeduaat300129361</title>
<polygon fill="white" stroke="transparent" points="1369,-200 1369,-219 1468,-219 1468,-200 1369,-200"/>
<text text-anchor="start" x="1376" y="-205.8" font-family="Ubuntu" font-size="14.00">bears feature</text>
<polygon fill="white" stroke="transparent" points="1369,-185 1369,-198 1468,-198 1468,-185 1369,-185"/>
<text text-anchor="start" x="1371" y="-189.6" font-family="FreeMono" font-size="8.00">crm:P56_bears_feature</text>
</g>
<!-- httpsdataligatusorgukstcatherinesms513b975d97044171aaba3555474400b3&#45;&gt;httpsdataligatusorgukstcatherinesms513b975d97044171aaba3555474400b3httpwwwcidoccrmorgcidoccrmP56_bears_featurehttpvocabgettyeduaat300129361 -->
<g id="edge9" class="edge">
<title>httpsdataligatusorgukstcatherinesms513b975d97044171aaba3555474400b3:e&#45;&gt;httpsdataligatusorgukstcatherinesms513b975d97044171aaba3555474400b3httpwwwcidoccrmorgcidoccrmP56_bears_featurehttpvocabgettyeduaat300129361</title>
<path fill="none" stroke="black" d="M1280.5,-307C1280.5,-307 1352.95,-251.27 1392.28,-221.01"/>
</g>
<!-- httpsdataligatusorgukstcatherinesms513b975d97044171aaba3555474400b3httpwwwcidoccrmorgcidoccrmP45_consists_ofhttpw3idorglobconcept2470 -->
<g id="node13" class="node">
<title>httpsdataligatusorgukstcatherinesms513b975d97044171aaba3555474400b3httpwwwcidoccrmorgcidoccrmP45_consists_ofhttpw3idorglobconcept2470</title>
<polygon fill="white" stroke="transparent" points="1373,-101 1373,-120 1463,-120 1463,-101 1373,-101"/>
<text text-anchor="start" x="1384.5" y="-106.8" font-family="Ubuntu" font-size="14.00">consists of</text>
<polygon fill="white" stroke="transparent" points="1373,-86 1373,-99 1463,-99 1463,-86 1373,-86"/>
<text text-anchor="start" x="1375" y="-90.6" font-family="FreeMono" font-size="8.00">crm:P45_consists_of</text>
</g>
<!-- httpsdataligatusorgukstcatherinesms513b975d97044171aaba3555474400b3&#45;&gt;httpsdataligatusorgukstcatherinesms513b975d97044171aaba3555474400b3httpwwwcidoccrmorgcidoccrmP45_consists_ofhttpw3idorglobconcept2470 -->
<g id="edge11" class="edge">
<title>httpsdataligatusorgukstcatherinesms513b975d97044171aaba3555474400b3:e&#45;&gt;httpsdataligatusorgukstcatherinesms513b975d97044171aaba3555474400b3httpwwwcidoccrmorgcidoccrmP45_consists_ofhttpw3idorglobconcept2470</title>
<path fill="none" stroke="black" d="M1280.5,-307C1280.5,-307 1370.18,-172.97 1404.16,-122.19"/>
</g>
<!-- httpsdataligatusorgukstcatherinesms513b975d97044171aaba3555474400b3httpwwwcidoccrmorgcidoccrmP46_is_composed_ofhttpsdataligatusorgukstcatherinesmseff9ee0e4a784bd2af7833f8259c14a1 -->
<g id="node26" class="node">
<title>httpsdataligatusorgukstcatherinesms513b975d97044171aaba3555474400b3httpwwwcidoccrmorgcidoccrmP46_is_composed_ofhttpsdataligatusorgukstcatherinesmseff9ee0e4a784bd2af7833f8259c14a1</title>
<polygon fill="white" stroke="transparent" points="1366,-447 1366,-466 1470,-466 1470,-447 1366,-447"/>
<text text-anchor="start" x="1371" y="-452.8" font-family="Ubuntu" font-size="14.00">is composed of</text>
<polygon fill="white" stroke="transparent" points="1366,-432 1366,-445 1470,-445 1470,-432 1366,-432"/>
<text text-anchor="start" x="1368" y="-436.6" font-family="FreeMono" font-size="8.00">crm:P46_is_composed_of</text>
</g>
<!-- httpsdataligatusorgukstcatherinesms513b975d97044171aaba3555474400b3&#45;&gt;httpsdataligatusorgukstcatherinesms513b975d97044171aaba3555474400b3httpwwwcidoccrmorgcidoccrmP46_is_composed_ofhttpsdataligatusorgukstcatherinesmseff9ee0e4a784bd2af7833f8259c14a1 -->
<g id="edge25" class="edge">
<title>httpsdataligatusorgukstcatherinesms513b975d97044171aaba3555474400b3:e&#45;&gt;httpsdataligatusorgukstcatherinesms513b975d97044171aaba3555474400b3httpwwwcidoccrmorgcidoccrmP46_is_composed_ofhttpsdataligatusorgukstcatherinesmseff9ee0e4a784bd2af7833f8259c14a1</title>
<path fill="none" stroke="black" d="M1280.5,-307C1280.5,-307 1361.33,-391.09 1398.59,-429.85"/>
</g>
<!-- httpsdataligatusorgukstcatherinesms513b975d97044171aaba3555474400b3httpwwwcidoccrmorgcidoccrmP2_has_typehttpw3idorglobconcept2945 -->
<g id="node27" class="node">
<title>httpsdataligatusorgukstcatherinesms513b975d97044171aaba3555474400b3httpwwwcidoccrmorgcidoccrmP2_has_typehttpw3idorglobconcept2945</title>
<polygon fill="white" stroke="transparent" points="1382,-373 1382,-392 1454,-392 1454,-373 1382,-373"/>
<text text-anchor="start" x="1391" y="-378.8" font-family="Ubuntu" font-size="14.00">has type</text>
<polygon fill="white" stroke="transparent" points="1382,-358 1382,-371 1454,-371 1454,-358 1382,-358"/>
<text text-anchor="start" x="1384" y="-362.6" font-family="FreeMono" font-size="8.00">crm:P2_has_type</text>
</g>
<!-- httpsdataligatusorgukstcatherinesms513b975d97044171aaba3555474400b3&#45;&gt;httpsdataligatusorgukstcatherinesms513b975d97044171aaba3555474400b3httpwwwcidoccrmorgcidoccrmP2_has_typehttpw3idorglobconcept2945 -->
<g id="edge27" class="edge">
<title>httpsdataligatusorgukstcatherinesms513b975d97044171aaba3555474400b3:e&#45;&gt;httpsdataligatusorgukstcatherinesms513b975d97044171aaba3555474400b3httpwwwcidoccrmorgcidoccrmP2_has_typehttpw3idorglobconcept2945</title>
<path fill="none" stroke="black" d="M1280.5,-307C1280.5,-307 1339.29,-336.29 1379.7,-356.42"/>
</g>
<!-- httpsdataligatusorgukstcatherinesmsc09f98b8c5734ca58b0be51f1fa8df2chttpwwwcidoccrmorgcidoccrmP110_augmentedhttpsdataligatusorgukstcatherinesmsbabdafbc4d5f41c7aceb9ee499cb320f&#45;&gt;httpsdataligatusorgukstcatherinesmsbabdafbc4d5f41c7aceb9ee499cb320f -->
<g id="edge6" class="edge">
<title>httpsdataligatusorgukstcatherinesmsc09f98b8c5734ca58b0be51f1fa8df2chttpwwwcidoccrmorgcidoccrmP110_augmentedhttpsdataligatusorgukstcatherinesmsbabdafbc4d5f41c7aceb9ee499cb320f&#45;&gt;httpsdataligatusorgukstcatherinesmsbabdafbc4d5f41c7aceb9ee499cb320f:w</title>
<path fill="none" stroke="black" d="M478.3,-428C511.24,-428 553.66,-428 572.82,-428"/>
<polygon fill="black" stroke="black" points="573,-431.5 583,-428 573,-424.5 573,-431.5"/>
</g>
<!-- httpvocabgettyeduaat300129361 -->
<g id="node8" class="node">
<title>httpvocabgettyeduaat300129361</title>
<polygon fill="#fab565" stroke="transparent" points="1662.5,-168 1662.5,-212 1847.5,-212 1847.5,-168 1662.5,-168"/>
<polygon fill="none" stroke="black" points="1662.5,-168 1662.5,-212 1847.5,-212 1847.5,-168 1662.5,-168"/>
<text text-anchor="start" x="1719" y="-190.8" font-family="Ubuntu" font-size="14.00">blue (color)</text>
<text text-anchor="start" x="1673.5" y="-181.6" font-family="FreeMono" font-size="8.00">http://vocab.getty.edu/aat/300129361</text>
<polygon fill="#fab565" stroke="transparent" points="1662.5,-124 1662.5,-168 1847.5,-168 1847.5,-124 1662.5,-124"/>
<polygon fill="none" stroke="black" points="1662.5,-124 1662.5,-168 1847.5,-168 1847.5,-124 1662.5,-124"/>
<text text-anchor="start" x="1740" y="-146.8" font-family="Ubuntu" font-style="italic" font-size="14.00">Type</text>
<text text-anchor="start" x="1727.5" y="-137.6" font-family="FreeMono" font-size="8.00">crm:E55_Type</text>
</g>
<!-- httpsdataligatusorgukstcatherinesms69e8c68d5ead4e8ba090580811f6d2a6 -->
<g id="node10" class="node">
<title>httpsdataligatusorgukstcatherinesms69e8c68d5ead4e8ba090580811f6d2a6</title>
<polygon fill="#e1ba9c" stroke="transparent" points="1576.5,-292 1576.5,-336 1932.5,-336 1932.5,-292 1576.5,-292"/>
<polygon fill="none" stroke="black" points="1576.5,-292 1576.5,-336 1932.5,-336 1932.5,-292 1576.5,-292"/>
<text text-anchor="start" x="1587.5" y="-314.8" font-family="Ubuntu" font-size="14.00">Subset of &#39;Page&#45;markers of Arabica 0402&#39; on Foredge</text>
<text text-anchor="start" x="1657.5" y="-305.6" font-family="FreeMono" font-size="8.00">stcath:69e8c68d&#45;5ead&#45;4e8b&#45;a090&#45;580811f6d2a6</text>
<polygon fill="#e1ba9c" stroke="transparent" points="1576.5,-248 1576.5,-292 1932.5,-292 1932.5,-248 1576.5,-248"/>
<polygon fill="none" stroke="black" points="1576.5,-248 1576.5,-292 1932.5,-292 1932.5,-248 1576.5,-248"/>
<text text-anchor="start" x="1700" y="-270.8" font-family="Ubuntu" font-style="italic" font-size="14.00">Man&#45;Made Object</text>
<text text-anchor="start" x="1702.5" y="-261.6" font-family="FreeMono" font-size="8.00">crm:E22_Man&#45;Made_Object</text>
</g>
<!-- httpsdataligatusorgukstcatherinesms513b975d97044171aaba3555474400b3httpwwwcidoccrmorgcidoccrmP46_is_composed_ofhttpsdataligatusorgukstcatherinesms69e8c68d5ead4e8ba090580811f6d2a6&#45;&gt;httpsdataligatusorgukstcatherinesms69e8c68d5ead4e8ba090580811f6d2a6 -->
<g id="edge8" class="edge">
<title>httpsdataligatusorgukstcatherinesms513b975d97044171aaba3555474400b3httpwwwcidoccrmorgcidoccrmP46_is_composed_ofhttpsdataligatusorgukstcatherinesms69e8c68d5ead4e8ba090580811f6d2a6&#45;&gt;httpsdataligatusorgukstcatherinesms69e8c68d5ead4e8ba090580811f6d2a6:w</title>
<path fill="none" stroke="black" d="M1472.42,-305.44C1506.25,-308.25 1546.98,-311.63 1565.48,-313.17"/>
<polygon fill="black" stroke="black" points="1565.24,-316.66 1575.5,-314 1565.82,-309.68 1565.24,-316.66"/>
</g>
<!-- httpsdataligatusorgukstcatherinesms69e8c68d5ead4e8ba090580811f6d2a6httpwwwcidoccrmorgcidoccrmP57_has_number_of_partsb2ac999c0eba4bc8b0a82f4869201a79 -->
<g id="node21" class="node">
<title>httpsdataligatusorgukstcatherinesms69e8c68d5ead4e8ba090580811f6d2a6httpwwwcidoccrmorgcidoccrmP57_has_number_of_partsb2ac999c0eba4bc8b0a82f4869201a79</title>
<polygon fill="white" stroke="transparent" points="2039.5,-312 2039.5,-331 2170.5,-331 2170.5,-312 2039.5,-312"/>
<text text-anchor="start" x="2041.5" y="-317.8" font-family="Ubuntu" font-size="14.00">has number of parts</text>
<polygon fill="white" stroke="transparent" points="2039.5,-297 2039.5,-310 2170.5,-310 2170.5,-297 2039.5,-297"/>
<text text-anchor="start" x="2044" y="-301.6" font-family="FreeMono" font-size="8.00">crm:P57_has_number_of_parts</text>
</g>
<!-- httpsdataligatusorgukstcatherinesms69e8c68d5ead4e8ba090580811f6d2a6&#45;&gt;httpsdataligatusorgukstcatherinesms69e8c68d5ead4e8ba090580811f6d2a6httpwwwcidoccrmorgcidoccrmP57_has_number_of_partsb2ac999c0eba4bc8b0a82f4869201a79 -->
<g id="edge17" class="edge">
<title>httpsdataligatusorgukstcatherinesms69e8c68d5ead4e8ba090580811f6d2a6:e&#45;&gt;httpsdataligatusorgukstcatherinesms69e8c68d5ead4e8ba090580811f6d2a6httpwwwcidoccrmorgcidoccrmP57_has_number_of_partsb2ac999c0eba4bc8b0a82f4869201a79</title>
<path fill="none" stroke="black" d="M1933.5,-314C1933.5,-314 1989.17,-314 2036.8,-314"/>
</g>
<!-- httpw3idorglobconcept2470 -->
<g id="node11" class="node">
<title>httpw3idorglobconcept2470</title>
<polygon fill="#fab565" stroke="transparent" points="1671.5,-44 1671.5,-88 1838.5,-88 1838.5,-44 1671.5,-44"/>
<polygon fill="none" stroke="black" points="1671.5,-44 1671.5,-88 1838.5,-88 1838.5,-44 1671.5,-44"/>
<text text-anchor="start" x="1734" y="-66.8" font-family="Ubuntu" font-size="14.00">textile</text>
<text text-anchor="start" x="1682.5" y="-57.6" font-family="FreeMono" font-size="8.00">http://w3id.org/lob/concept/2470</text>
<polygon fill="#fab565" stroke="transparent" points="1671.5,0 1671.5,-44 1838.5,-44 1838.5,0 1671.5,0"/>
<polygon fill="none" stroke="black" points="1671.5,0 1671.5,-44 1838.5,-44 1838.5,0 1671.5,0"/>
<text text-anchor="start" x="1728.5" y="-22.8" font-family="Ubuntu" font-style="italic" font-size="14.00">Material</text>
<text text-anchor="start" x="1718.5" y="-13.6" font-family="FreeMono" font-size="8.00">crm:E57_Material</text>
</g>
<!-- httpsdataligatusorgukstcatherinesms513b975d97044171aaba3555474400b3httpwwwcidoccrmorgcidoccrmP56_bears_featurehttpvocabgettyeduaat300129361&#45;&gt;httpvocabgettyeduaat300129361 -->
<g id="edge10" class="edge">
<title>httpsdataligatusorgukstcatherinesms513b975d97044171aaba3555474400b3httpwwwcidoccrmorgcidoccrmP56_bears_featurehttpvocabgettyeduaat300129361&#45;&gt;httpvocabgettyeduaat300129361:w</title>
<path fill="none" stroke="black" d="M1469.54,-199.5C1528.12,-196.6 1620.54,-192.03 1651.22,-190.51"/>
<polygon fill="black" stroke="black" points="1651.69,-193.99 1661.5,-190 1651.34,-187 1651.69,-193.99"/>
</g>
<!-- httpsdataligatusorgukstcatherinesms513b975d97044171aaba3555474400b3httpwwwcidoccrmorgcidoccrmP45_consists_ofhttpw3idorglobconcept2470&#45;&gt;httpw3idorglobconcept2470 -->
<g id="edge12" class="edge">
<title>httpsdataligatusorgukstcatherinesms513b975d97044171aaba3555474400b3httpwwwcidoccrmorgcidoccrmP45_consists_ofhttpw3idorglobconcept2470&#45;&gt;httpw3idorglobconcept2470:w</title>
<path fill="none" stroke="black" d="M1465.13,-96.21C1525.54,-87.33 1627.6,-72.31 1660.18,-67.52"/>
<polygon fill="black" stroke="black" points="1661.12,-70.92 1670.5,-66 1660.1,-63.99 1661.12,-70.92"/>
</g>
<!-- httpsdataligatusorgukstcatherinesmseff9ee0e4a784bd2af7833f8259c14a1httpwwwcidoccrmorgcidoccrmP44_has_conditionhttpsdataligatusorgukstcatherinesmse084b4f0133545bf81845247231fea3e -->
<g id="node14" class="node">
<title>httpsdataligatusorgukstcatherinesmseff9ee0e4a784bd2af7833f8259c14a1httpwwwcidoccrmorgcidoccrmP44_has_conditionhttpsdataligatusorgukstcatherinesmse084b4f0133545bf81845247231fea3e</title>
<polygon fill="white" stroke="transparent" points="2055.5,-522 2055.5,-541 2154.5,-541 2154.5,-522 2055.5,-522"/>
<text text-anchor="start" x="2062" y="-527.8" font-family="Ubuntu" font-size="14.00">has condition</text>
<polygon fill="white" stroke="transparent" points="2055.5,-507 2055.5,-520 2154.5,-520 2154.5,-507 2055.5,-507"/>
<text text-anchor="start" x="2057.5" y="-511.6" font-family="FreeMono" font-size="8.00">crm:P44_has_condition</text>
</g>
<!-- httpsdataligatusorgukstcatherinesmse084b4f0133545bf81845247231fea3e -->
<g id="node16" class="node">
<title>httpsdataligatusorgukstcatherinesmse084b4f0133545bf81845247231fea3e</title>
<polygon fill="#ffffff" stroke="transparent" points="2244,-501 2244,-545 2600,-545 2600,-501 2244,-501"/>
<polygon fill="none" stroke="black" points="2244,-501 2244,-545 2600,-545 2600,-501 2244,-501"/>
<text text-anchor="start" x="2255" y="-523.8" font-family="Ubuntu" font-size="14.00">Condition of subset of Page&#45;markers of Arabica 0402</text>
<text text-anchor="start" x="2325" y="-514.6" font-family="FreeMono" font-size="8.00">stcath:e084b4f0&#45;1335&#45;45bf&#45;8184&#45;5247231fea3e</text>
<polygon fill="#ffffff" stroke="transparent" points="2244,-457 2244,-501 2600,-501 2600,-457 2244,-457"/>
<polygon fill="none" stroke="black" points="2244,-457 2244,-501 2600,-501 2600,-457 2244,-457"/>
<text text-anchor="start" x="2374.5" y="-479.8" font-family="Ubuntu" font-style="italic" font-size="14.00">Condition State</text>
<text text-anchor="start" x="2372" y="-470.6" font-family="FreeMono" font-size="8.00">crm:E3_Condition_State</text>
</g>
<!-- httpsdataligatusorgukstcatherinesmseff9ee0e4a784bd2af7833f8259c14a1httpwwwcidoccrmorgcidoccrmP44_has_conditionhttpsdataligatusorgukstcatherinesmse084b4f0133545bf81845247231fea3e&#45;&gt;httpsdataligatusorgukstcatherinesmse084b4f0133545bf81845247231fea3e -->
<g id="edge14" class="edge">
<title>httpsdataligatusorgukstcatherinesmseff9ee0e4a784bd2af7833f8259c14a1httpwwwcidoccrmorgcidoccrmP44_has_conditionhttpsdataligatusorgukstcatherinesmse084b4f0133545bf81845247231fea3e&#45;&gt;httpsdataligatusorgukstcatherinesmse084b4f0133545bf81845247231fea3e:w</title>
<path fill="none" stroke="black" d="M2156.29,-523.63C2184.7,-523.43 2217.58,-523.19 2233.83,-523.07"/>
<polygon fill="black" stroke="black" points="2234.03,-526.57 2244,-523 2233.97,-519.57 2234.03,-526.57"/>
</g>
<!-- httpsdataligatusorgukstcatherinesmseff9ee0e4a784bd2af7833f8259c14a1 -->
<g id="node15" class="node">
<title>httpsdataligatusorgukstcatherinesmseff9ee0e4a784bd2af7833f8259c14a1</title>
<polygon fill="#e1ba9c" stroke="transparent" points="1544.5,-540 1544.5,-584 1965.5,-584 1965.5,-540 1544.5,-540"/>
<polygon fill="none" stroke="black" points="1544.5,-540 1544.5,-584 1965.5,-584 1965.5,-540 1544.5,-540"/>
<text text-anchor="start" x="1555.5" y="-562.8" font-family="Ubuntu" font-size="14.00">Subset of &#39;Page&#45;markers of Arabica 0402&#39; with condition Sound</text>
<text text-anchor="start" x="1658" y="-553.6" font-family="FreeMono" font-size="8.00">stcath:eff9ee0e&#45;4a78&#45;4bd2&#45;af78&#45;33f8259c14a1</text>
<polygon fill="#e1ba9c" stroke="transparent" points="1544.5,-496 1544.5,-540 1965.5,-540 1965.5,-496 1544.5,-496"/>
<polygon fill="none" stroke="black" points="1544.5,-496 1544.5,-540 1965.5,-540 1965.5,-496 1544.5,-496"/>
<text text-anchor="start" x="1700.5" y="-518.8" font-family="Ubuntu" font-style="italic" font-size="14.00">Man&#45;Made Object</text>
<text text-anchor="start" x="1703" y="-509.6" font-family="FreeMono" font-size="8.00">crm:E22_Man&#45;Made_Object</text>
</g>
<!-- httpsdataligatusorgukstcatherinesmseff9ee0e4a784bd2af7833f8259c14a1&#45;&gt;httpsdataligatusorgukstcatherinesmseff9ee0e4a784bd2af7833f8259c14a1httpwwwcidoccrmorgcidoccrmP44_has_conditionhttpsdataligatusorgukstcatherinesmse084b4f0133545bf81845247231fea3e -->
<g id="edge13" class="edge">
<title>httpsdataligatusorgukstcatherinesmseff9ee0e4a784bd2af7833f8259c14a1:e&#45;&gt;httpsdataligatusorgukstcatherinesmseff9ee0e4a784bd2af7833f8259c14a1httpwwwcidoccrmorgcidoccrmP44_has_conditionhttpsdataligatusorgukstcatherinesmse084b4f0133545bf81845247231fea3e</title>
<path fill="none" stroke="black" d="M1965,-562C1965,-562 2013.19,-548.78 2052.71,-537.93"/>
</g>
<!-- httpsdataligatusorgukstcatherinesmseff9ee0e4a784bd2af7833f8259c14a1httpwwwcidoccrmorgcidoccrmP57_has_number_of_parts43207cb82ee8474d823cc51a96885be0 -->
<g id="node23" class="node">
<title>httpsdataligatusorgukstcatherinesmseff9ee0e4a784bd2af7833f8259c14a1httpwwwcidoccrmorgcidoccrmP57_has_number_of_parts43207cb82ee8474d823cc51a96885be0</title>
<polygon fill="white" stroke="transparent" points="2039.5,-598 2039.5,-617 2170.5,-617 2170.5,-598 2039.5,-598"/>
<text text-anchor="start" x="2041.5" y="-603.8" font-family="Ubuntu" font-size="14.00">has number of parts</text>
<polygon fill="white" stroke="transparent" points="2039.5,-583 2039.5,-596 2170.5,-596 2170.5,-583 2039.5,-583"/>
<text text-anchor="start" x="2044" y="-587.6" font-family="FreeMono" font-size="8.00">crm:P57_has_number_of_parts</text>
</g>
<!-- httpsdataligatusorgukstcatherinesmseff9ee0e4a784bd2af7833f8259c14a1&#45;&gt;httpsdataligatusorgukstcatherinesmseff9ee0e4a784bd2af7833f8259c14a1httpwwwcidoccrmorgcidoccrmP57_has_number_of_parts43207cb82ee8474d823cc51a96885be0 -->
<g id="edge19" class="edge">
<title>httpsdataligatusorgukstcatherinesmseff9ee0e4a784bd2af7833f8259c14a1:e&#45;&gt;httpsdataligatusorgukstcatherinesmseff9ee0e4a784bd2af7833f8259c14a1httpwwwcidoccrmorgcidoccrmP57_has_number_of_parts43207cb82ee8474d823cc51a96885be0</title>
<path fill="none" stroke="black" d="M1965,-562C1965,-562 2001.27,-571.95 2036.68,-581.67"/>
</g>
<!-- httpsdataligatusorgukstcatherinesmse084b4f0133545bf81845247231fea3ehttpwwwcidoccrmorgcidoccrmP2_has_typehttpstcathsound -->
<g id="node18" class="node">
<title>httpsdataligatusorgukstcatherinesmse084b4f0133545bf81845247231fea3ehttpwwwcidoccrmorgcidoccrmP2_has_typehttpstcathsound</title>
<polygon fill="white" stroke="transparent" points="2674,-521 2674,-540 2746,-540 2746,-521 2674,-521"/>
<text text-anchor="start" x="2683" y="-526.8" font-family="Ubuntu" font-size="14.00">has type</text>
<polygon fill="white" stroke="transparent" points="2674,-506 2674,-519 2746,-519 2746,-506 2674,-506"/>
<text text-anchor="start" x="2676" y="-510.6" font-family="FreeMono" font-size="8.00">crm:P2_has_type</text>
</g>
<!-- httpsdataligatusorgukstcatherinesmse084b4f0133545bf81845247231fea3e&#45;&gt;httpsdataligatusorgukstcatherinesmse084b4f0133545bf81845247231fea3ehttpwwwcidoccrmorgcidoccrmP2_has_typehttpstcathsound -->
<g id="edge15" class="edge">
<title>httpsdataligatusorgukstcatherinesmse084b4f0133545bf81845247231fea3e:e&#45;&gt;httpsdataligatusorgukstcatherinesmse084b4f0133545bf81845247231fea3ehttpwwwcidoccrmorgcidoccrmP2_has_typehttpstcathsound</title>
<path fill="none" stroke="black" d="M2600,-523C2600,-523 2640.22,-523 2671.79,-523"/>
</g>
<!-- httpw3idorglobconcept2945 -->
<g id="node17" class="node">
<title>httpw3idorglobconcept2945</title>
<polygon fill="#fab565" stroke="transparent" points="1671.5,-416 1671.5,-460 1838.5,-460 1838.5,-416 1671.5,-416"/>
<polygon fill="none" stroke="black" points="1671.5,-416 1671.5,-460 1838.5,-460 1838.5,-416 1671.5,-416"/>
<text text-anchor="start" x="1703.5" y="-438.8" font-family="Ubuntu" font-size="14.00">leaf tab markers</text>
<text text-anchor="start" x="1682.5" y="-429.6" font-family="FreeMono" font-size="8.00">http://w3id.org/lob/concept/2945</text>
<polygon fill="#fab565" stroke="transparent" points="1671.5,-372 1671.5,-416 1838.5,-416 1838.5,-372 1671.5,-372"/>
<polygon fill="none" stroke="black" points="1671.5,-372 1671.5,-416 1838.5,-416 1838.5,-372 1671.5,-372"/>
<text text-anchor="start" x="1740" y="-394.8" font-family="Ubuntu" font-style="italic" font-size="14.00">Type</text>
<text text-anchor="start" x="1727.5" y="-385.6" font-family="FreeMono" font-size="8.00">crm:E55_Type</text>
</g>
<!-- httpstcathsound -->
<g id="node19" class="node">
<title>httpstcathsound</title>
<polygon fill="#fab565" stroke="transparent" points="2820,-501 2820,-545 2928,-545 2928,-501 2820,-501"/>
<polygon fill="none" stroke="black" points="2820,-501 2820,-545 2928,-545 2928,-501 2820,-501"/>
<text text-anchor="start" x="2854" y="-523.8" font-family="Ubuntu" font-size="14.00">sound</text>
<text text-anchor="start" x="2831" y="-514.6" font-family="FreeMono" font-size="8.00">http://stcath.sound</text>
<polygon fill="#fab565" stroke="transparent" points="2820,-457 2820,-501 2928,-501 2928,-457 2820,-457"/>
<polygon fill="none" stroke="black" points="2820,-457 2820,-501 2928,-501 2928,-457 2820,-457"/>
<text text-anchor="start" x="2859" y="-479.8" font-family="Ubuntu" font-style="italic" font-size="14.00">Type</text>
<text text-anchor="start" x="2846.5" y="-470.6" font-family="FreeMono" font-size="8.00">crm:E55_Type</text>
</g>
<!-- httpsdataligatusorgukstcatherinesmse084b4f0133545bf81845247231fea3ehttpwwwcidoccrmorgcidoccrmP2_has_typehttpstcathsound&#45;&gt;httpstcathsound -->
<g id="edge16" class="edge">
<title>httpsdataligatusorgukstcatherinesmse084b4f0133545bf81845247231fea3ehttpwwwcidoccrmorgcidoccrmP2_has_typehttpstcathsound&#45;&gt;httpstcathsound:w</title>
<path fill="none" stroke="black" d="M2748.21,-523C2769.92,-523 2795.71,-523 2809.71,-523"/>
<polygon fill="black" stroke="black" points="2810,-526.5 2820,-523 2810,-519.5 2810,-526.5"/>
</g>
<!-- b2ac999c0eba4bc8b0a82f4869201a79 -->
<g id="node20" class="node">
<title>b2ac999c0eba4bc8b0a82f4869201a79</title>
<polygon fill="white" stroke="transparent" points="2395,-292 2395,-336 2449,-336 2449,-292 2395,-292"/>
<polygon fill="none" stroke="black" points="2395,-292 2395,-336 2449,-336 2449,-292 2395,-292"/>
<text text-anchor="start" x="2413.5" y="-314.8" font-family="Ubuntu" font-size="14.00">10</text>
<text text-anchor="start" x="2406" y="-305.6" font-family="FreeMono" font-size="8.00">Literal</text>
</g>
<!-- httpsdataligatusorgukstcatherinesms69e8c68d5ead4e8ba090580811f6d2a6httpwwwcidoccrmorgcidoccrmP57_has_number_of_partsb2ac999c0eba4bc8b0a82f4869201a79&#45;&gt;b2ac999c0eba4bc8b0a82f4869201a79 -->
<g id="edge18" class="edge">
<title>httpsdataligatusorgukstcatherinesms69e8c68d5ead4e8ba090580811f6d2a6httpwwwcidoccrmorgcidoccrmP57_has_number_of_partsb2ac999c0eba4bc8b0a82f4869201a79&#45;&gt;b2ac999c0eba4bc8b0a82f4869201a79:w</title>
<path fill="none" stroke="black" d="M2172.05,-314C2243.27,-314 2350.52,-314 2383.79,-314"/>
<polygon fill="black" stroke="black" points="2384,-317.5 2394,-314 2384,-310.5 2384,-317.5"/>
</g>
<!-- 43207cb82ee8474d823cc51a96885be0 -->
<g id="node22" class="node">
<title>43207cb82ee8474d823cc51a96885be0</title>
<polygon fill="white" stroke="transparent" points="2395,-581 2395,-625 2449,-625 2449,-581 2395,-581"/>
<polygon fill="none" stroke="black" points="2395,-581 2395,-625 2449,-625 2449,-581 2395,-581"/>
<text text-anchor="start" x="2413.5" y="-603.8" font-family="Ubuntu" font-size="14.00">10</text>
<text text-anchor="start" x="2406" y="-594.6" font-family="FreeMono" font-size="8.00">Literal</text>
</g>
<!-- httpsdataligatusorgukstcatherinesmseff9ee0e4a784bd2af7833f8259c14a1httpwwwcidoccrmorgcidoccrmP57_has_number_of_parts43207cb82ee8474d823cc51a96885be0&#45;&gt;43207cb82ee8474d823cc51a96885be0 -->
<g id="edge20" class="edge">
<title>httpsdataligatusorgukstcatherinesmseff9ee0e4a784bd2af7833f8259c14a1httpwwwcidoccrmorgcidoccrmP57_has_number_of_parts43207cb82ee8474d823cc51a96885be0&#45;&gt;43207cb82ee8474d823cc51a96885be0:w</title>
<path fill="none" stroke="black" d="M2172.05,-600.69C2243.27,-601.43 2350.52,-602.55 2383.79,-602.89"/>
<polygon fill="black" stroke="black" points="2383.96,-606.4 2394,-603 2384.04,-599.4 2383.96,-606.4"/>
</g>
<!-- httpsdataligatusorgukstcatherinesmsbabdafbc4d5f41c7aceb9ee499cb320fhttpwwwcidoccrmorgcidoccrmTP46_is_composed_of_physical_thing_of_typehttpw3idorglobconcept2945&#45;&gt;httpw3idorglobconcept2945 -->
<g id="edge22" class="edge">
<title>httpsdataligatusorgukstcatherinesmsbabdafbc4d5f41c7aceb9ee499cb320fhttpwwwcidoccrmorgcidoccrmTP46_is_composed_of_physical_thing_of_typehttpw3idorglobconcept2945&#45;&gt;httpw3idorglobconcept2945:w</title>
<path fill="none" stroke="black" d="M1292.22,-497.17C1421.97,-476.93 1615.84,-446.68 1661.58,-439.55"/>
<polygon fill="black" stroke="black" points="1662.16,-443 1671.5,-438 1661.08,-436.08 1662.16,-443"/>
</g>
<!-- httpsdataligatusorgukstcatherinesmsc09f98b8c5734ca58b0be51f1fa8df2chttpwwwcidoccrmorgcidoccrmP111_addedhttpsdataligatusorgukstcatherinesms513b975d97044171aaba3555474400b3&#45;&gt;httpsdataligatusorgukstcatherinesms513b975d97044171aaba3555474400b3 -->
<g id="edge24" class="edge">
<title>httpsdataligatusorgukstcatherinesmsc09f98b8c5734ca58b0be51f1fa8df2chttpwwwcidoccrmorgcidoccrmP111_addedhttpsdataligatusorgukstcatherinesms513b975d97044171aaba3555474400b3&#45;&gt;httpsdataligatusorgukstcatherinesms513b975d97044171aaba3555474400b3:w</title>
<path fill="none" stroke="black" d="M727.06,-307C809.04,-307 1005.97,-307 1053.2,-307"/>
<polygon fill="black" stroke="black" points="1053.5,-310.5 1063.5,-307 1053.5,-303.5 1053.5,-310.5"/>
</g>
<!-- httpsdataligatusorgukstcatherinesms513b975d97044171aaba3555474400b3httpwwwcidoccrmorgcidoccrmP46_is_composed_ofhttpsdataligatusorgukstcatherinesmseff9ee0e4a784bd2af7833f8259c14a1&#45;&gt;httpsdataligatusorgukstcatherinesmseff9ee0e4a784bd2af7833f8259c14a1 -->
<g id="edge26" class="edge">
<title>httpsdataligatusorgukstcatherinesms513b975d97044171aaba3555474400b3httpwwwcidoccrmorgcidoccrmP46_is_composed_ofhttpsdataligatusorgukstcatherinesmseff9ee0e4a784bd2af7833f8259c14a1&#45;&gt;httpsdataligatusorgukstcatherinesmseff9ee0e4a784bd2af7833f8259c14a1:w</title>
<path fill="none" stroke="black" d="M1440.2,-468.17C1468.62,-493.86 1517.66,-538.19 1536.41,-555.14"/>
<polygon fill="black" stroke="black" points="1534.23,-557.89 1544,-562 1538.93,-552.7 1534.23,-557.89"/>
</g>
<!-- httpsdataligatusorgukstcatherinesms513b975d97044171aaba3555474400b3httpwwwcidoccrmorgcidoccrmP2_has_typehttpw3idorglobconcept2945&#45;&gt;httpw3idorglobconcept2945 -->
<g id="edge28" class="edge">
<title>httpsdataligatusorgukstcatherinesms513b975d97044171aaba3555474400b3httpwwwcidoccrmorgcidoccrmP2_has_typehttpw3idorglobconcept2945&#45;&gt;httpw3idorglobconcept2945:w</title>
<path fill="none" stroke="black" d="M1456.11,-384.3C1515.14,-399.08 1627.18,-427.15 1660.76,-435.56"/>
<polygon fill="black" stroke="black" points="1659.95,-438.97 1670.5,-438 1661.65,-432.17 1659.95,-438.97"/>
</g>
</g>
</svg>
