<?xml version="1.0" encoding="UTF-8" standalone="no"?>
<!DOCTYPE svg PUBLIC "-//W3C//DTD SVG 1.1//EN"
 "http://www.w3.org/Graphics/SVG/1.1/DTD/svg11.dtd">
<!-- Generated by graphviz version 2.43.0 (0)
 -->
<!-- Title: %3 Pages: 1 -->
<svg width="3117pt" height="736pt"
 viewBox="0.00 0.00 3117.00 736.00" xmlns="http://www.w3.org/2000/svg" xmlns:xlink="http://www.w3.org/1999/xlink">
<g id="graph0" class="graph" transform="scale(1 1) rotate(0) translate(36 700)">
<title>%3</title>
<polygon fill="white" stroke="transparent" points="-36,36 -36,-700 3081,-700 3081,36 -36,36"/>
<!-- httpsdataligatusorgukstcatherinesms8dc2dd1954a04907858e924e32e5fb1dhttpwwwcidoccrmorgcidoccrmP46_is_composed_ofhttpsdataligatusorgukstcatherinesmsf1abe675fc564e0d95f4fd6dc47bc3a7 -->
<g id="node1" class="node">
<title>httpsdataligatusorgukstcatherinesms8dc2dd1954a04907858e924e32e5fb1dhttpwwwcidoccrmorgcidoccrmP46_is_composed_ofhttpsdataligatusorgukstcatherinesmsf1abe675fc564e0d95f4fd6dc47bc3a7</title>
<polygon fill="white" stroke="transparent" points="873,-240 873,-259 977,-259 977,-240 873,-240"/>
<text text-anchor="start" x="878" y="-245.8" font-family="Ubuntu" font-size="14.00">is composed of</text>
<polygon fill="white" stroke="transparent" points="873,-225 873,-238 977,-238 977,-225 873,-225"/>
<text text-anchor="start" x="875" y="-229.6" font-family="FreeMono" font-size="8.00">crm:P46_is_composed_of</text>
</g>
<!-- httpsdataligatusorgukstcatherinesmsf1abe675fc564e0d95f4fd6dc47bc3a7 -->
<g id="node3" class="node">
<title>httpsdataligatusorgukstcatherinesmsf1abe675fc564e0d95f4fd6dc47bc3a7</title>
<polygon fill="#e1ba9c" stroke="transparent" points="1063.5,-295 1063.5,-339 1279.5,-339 1279.5,-295 1063.5,-295"/>
<polygon fill="none" stroke="black" points="1063.5,-295 1063.5,-339 1279.5,-339 1279.5,-295 1063.5,-295"/>
<text text-anchor="start" x="1076.5" y="-317.8" font-family="Ubuntu" font-size="14.00">Page&#45;markers of Arabica 0589</text>
<text text-anchor="start" x="1074.5" y="-308.6" font-family="FreeMono" font-size="8.00">stcath:f1abe675&#45;fc56&#45;4e0d&#45;95f4&#45;fd6dc47bc3a7</text>
<polygon fill="#e1ba9c" stroke="transparent" points="1063.5,-251 1063.5,-295 1279.5,-295 1279.5,-251 1063.5,-251"/>
<polygon fill="none" stroke="black" points="1063.5,-251 1063.5,-295 1279.5,-295 1279.5,-251 1063.5,-251"/>
<text text-anchor="start" x="1117" y="-273.8" font-family="Ubuntu" font-style="italic" font-size="14.00">Man&#45;Made Object</text>
<text text-anchor="start" x="1119.5" y="-264.6" font-family="FreeMono" font-size="8.00">crm:E22_Man&#45;Made_Object</text>
</g>
<!-- httpsdataligatusorgukstcatherinesms8dc2dd1954a04907858e924e32e5fb1dhttpwwwcidoccrmorgcidoccrmP46_is_composed_ofhttpsdataligatusorgukstcatherinesmsf1abe675fc564e0d95f4fd6dc47bc3a7&#45;&gt;httpsdataligatusorgukstcatherinesmsf1abe675fc564e0d95f4fd6dc47bc3a7 -->
<g id="edge2" class="edge">
<title>httpsdataligatusorgukstcatherinesms8dc2dd1954a04907858e924e32e5fb1dhttpwwwcidoccrmorgcidoccrmP46_is_composed_ofhttpsdataligatusorgukstcatherinesmsf1abe675fc564e0d95f4fd6dc47bc3a7&#45;&gt;httpsdataligatusorgukstcatherinesmsf1abe675fc564e0d95f4fd6dc47bc3a7:w</title>
<path fill="none" stroke="black" d="M960.8,-261.12C991.76,-278.13 1034.93,-301.85 1053.46,-312.03"/>
<polygon fill="black" stroke="black" points="1052.05,-315.25 1062.5,-317 1055.42,-309.12 1052.05,-315.25"/>
</g>
<!-- httpsdataligatusorgukstcatherinesms8dc2dd1954a04907858e924e32e5fb1d -->
<g id="node2" class="node">
<title>httpsdataligatusorgukstcatherinesms8dc2dd1954a04907858e924e32e5fb1d</title>
<polygon fill="#e1ba9c" stroke="transparent" points="583,-218 583,-262 799,-262 799,-218 583,-218"/>
<polygon fill="none" stroke="black" points="583,-218 583,-262 799,-262 799,-218 583,-218"/>
<text text-anchor="start" x="648.5" y="-240.8" font-family="Ubuntu" font-size="14.00">Arabica 0589</text>
<text text-anchor="start" x="594" y="-231.6" font-family="FreeMono" font-size="8.00">stcath:8dc2dd19&#45;54a0&#45;4907&#45;858e&#45;924e32e5fb1d</text>
<polygon fill="#e1ba9c" stroke="transparent" points="583,-174 583,-218 799,-218 799,-174 583,-174"/>
<polygon fill="none" stroke="black" points="583,-174 583,-218 799,-218 799,-174 583,-174"/>
<text text-anchor="start" x="636.5" y="-196.8" font-family="Ubuntu" font-style="italic" font-size="14.00">Man&#45;Made Object</text>
<text text-anchor="start" x="639" y="-187.6" font-family="FreeMono" font-size="8.00">crm:E22_Man&#45;Made_Object</text>
</g>
<!-- httpsdataligatusorgukstcatherinesms8dc2dd1954a04907858e924e32e5fb1d&#45;&gt;httpsdataligatusorgukstcatherinesms8dc2dd1954a04907858e924e32e5fb1dhttpwwwcidoccrmorgcidoccrmP46_is_composed_ofhttpsdataligatusorgukstcatherinesmsf1abe675fc564e0d95f4fd6dc47bc3a7 -->
<g id="edge1" class="edge">
<title>httpsdataligatusorgukstcatherinesms8dc2dd1954a04907858e924e32e5fb1d:e&#45;&gt;httpsdataligatusorgukstcatherinesms8dc2dd1954a04907858e924e32e5fb1dhttpwwwcidoccrmorgcidoccrmP46_is_composed_ofhttpsdataligatusorgukstcatherinesmsf1abe675fc564e0d95f4fd6dc47bc3a7</title>
<path fill="none" stroke="black" d="M799,-240C799,-240 836.92,-240.61 870.99,-241.15"/>
</g>
<!-- httpsdataligatusorgukstcatherinesms8dc2dd1954a04907858e924e32e5fb1dhttpwwwcidoccrmorgcidoccrmTP46_is_composed_of_physical_thing_of_typehttpw3idorglobconcept2944 -->
<g id="node22" class="node">
<title>httpsdataligatusorgukstcatherinesms8dc2dd1954a04907858e924e32e5fb1dhttpwwwcidoccrmorgcidoccrmTP46_is_composed_of_physical_thing_of_typehttpw3idorglobconcept2944</title>
<polygon fill="white" stroke="transparent" points="1053.5,-139 1053.5,-158 1290.5,-158 1290.5,-139 1053.5,-139"/>
<text text-anchor="start" x="1055.5" y="-144.8" font-family="Ubuntu" font-size="14.00">is composed of physical thing of type</text>
<polygon fill="white" stroke="transparent" points="1053.5,-124 1053.5,-137 1290.5,-137 1290.5,-124 1053.5,-124"/>
<text text-anchor="start" x="1068" y="-128.6" font-family="FreeMono" font-size="8.00">crm:TP46_is_composed_of_physical_thing_of_type</text>
</g>
<!-- httpsdataligatusorgukstcatherinesms8dc2dd1954a04907858e924e32e5fb1d&#45;&gt;httpsdataligatusorgukstcatherinesms8dc2dd1954a04907858e924e32e5fb1dhttpwwwcidoccrmorgcidoccrmTP46_is_composed_of_physical_thing_of_typehttpw3idorglobconcept2944 -->
<g id="edge19" class="edge">
<title>httpsdataligatusorgukstcatherinesms8dc2dd1954a04907858e924e32e5fb1d:e&#45;&gt;httpsdataligatusorgukstcatherinesms8dc2dd1954a04907858e924e32e5fb1dhttpwwwcidoccrmorgcidoccrmTP46_is_composed_of_physical_thing_of_typehttpw3idorglobconcept2944</title>
<path fill="none" stroke="black" d="M799,-240C799,-240 991.43,-188.86 1099.68,-160.09"/>
</g>
<!-- httpsdataligatusorgukstcatherinesmsf1abe675fc564e0d95f4fd6dc47bc3a7httpwwwcidoccrmorgcidoccrmNTP56_does_not_bear_feature_of_typehttpvocabgettyeduaat300056130 -->
<g id="node7" class="node">
<title>httpsdataligatusorgukstcatherinesmsf1abe675fc564e0d95f4fd6dc47bc3a7httpwwwcidoccrmorgcidoccrmNTP56_does_not_bear_feature_of_typehttpvocabgettyeduaat300056130</title>
<polygon fill="white" stroke="transparent" points="1366,-324 1366,-343 1556,-343 1556,-324 1366,-324"/>
<text text-anchor="start" x="1368" y="-329.8" font-family="Ubuntu" font-size="14.00">does not bear feature of type</text>
<polygon fill="white" stroke="transparent" points="1366,-309 1366,-322 1556,-322 1556,-309 1366,-309"/>
<text text-anchor="start" x="1373" y="-313.6" font-family="FreeMono" font-size="8.00">crm:NTP56_does_not_bear_feature_of_type</text>
</g>
<!-- httpsdataligatusorgukstcatherinesmsf1abe675fc564e0d95f4fd6dc47bc3a7&#45;&gt;httpsdataligatusorgukstcatherinesmsf1abe675fc564e0d95f4fd6dc47bc3a7httpwwwcidoccrmorgcidoccrmNTP56_does_not_bear_feature_of_typehttpvocabgettyeduaat300056130 -->
<g id="edge5" class="edge">
<title>httpsdataligatusorgukstcatherinesmsf1abe675fc564e0d95f4fd6dc47bc3a7:e&#45;&gt;httpsdataligatusorgukstcatherinesmsf1abe675fc564e0d95f4fd6dc47bc3a7httpwwwcidoccrmorgcidoccrmNTP56_does_not_bear_feature_of_typehttpvocabgettyeduaat300056130</title>
<path fill="none" stroke="black" d="M1280.5,-317C1280.5,-317 1321.27,-319.04 1363.94,-321.18"/>
</g>
<!-- httpsdataligatusorgukstcatherinesmsf1abe675fc564e0d95f4fd6dc47bc3a7httpwwwcidoccrmorgcidoccrmP45_consists_ofhttpw3idorglobconcept2474 -->
<g id="node12" class="node">
<title>httpsdataligatusorgukstcatherinesmsf1abe675fc564e0d95f4fd6dc47bc3a7httpwwwcidoccrmorgcidoccrmP45_consists_ofhttpw3idorglobconcept2474</title>
<polygon fill="white" stroke="transparent" points="1416,-176 1416,-195 1506,-195 1506,-176 1416,-176"/>
<text text-anchor="start" x="1427.5" y="-181.8" font-family="Ubuntu" font-size="14.00">consists of</text>
<polygon fill="white" stroke="transparent" points="1416,-161 1416,-174 1506,-174 1506,-161 1416,-161"/>
<text text-anchor="start" x="1418" y="-165.6" font-family="FreeMono" font-size="8.00">crm:P45_consists_of</text>
</g>
<!-- httpsdataligatusorgukstcatherinesmsf1abe675fc564e0d95f4fd6dc47bc3a7&#45;&gt;httpsdataligatusorgukstcatherinesmsf1abe675fc564e0d95f4fd6dc47bc3a7httpwwwcidoccrmorgcidoccrmP45_consists_ofhttpw3idorglobconcept2474 -->
<g id="edge9" class="edge">
<title>httpsdataligatusorgukstcatherinesmsf1abe675fc564e0d95f4fd6dc47bc3a7:e&#45;&gt;httpsdataligatusorgukstcatherinesmsf1abe675fc564e0d95f4fd6dc47bc3a7httpwwwcidoccrmorgcidoccrmP45_consists_ofhttpw3idorglobconcept2474</title>
<path fill="none" stroke="black" d="M1280.5,-317C1280.5,-317 1386.26,-235.1 1435.42,-197.04"/>
</g>
<!-- httpsdataligatusorgukstcatherinesmsf1abe675fc564e0d95f4fd6dc47bc3a7httpwwwcidoccrmorgcidoccrmP2_has_typehttpw3idorglobconcept2944 -->
<g id="node14" class="node">
<title>httpsdataligatusorgukstcatherinesmsf1abe675fc564e0d95f4fd6dc47bc3a7httpwwwcidoccrmorgcidoccrmP2_has_typehttpw3idorglobconcept2944</title>
<polygon fill="white" stroke="transparent" points="1425,-250 1425,-269 1497,-269 1497,-250 1425,-250"/>
<text text-anchor="start" x="1434" y="-255.8" font-family="Ubuntu" font-size="14.00">has type</text>
<polygon fill="white" stroke="transparent" points="1425,-235 1425,-248 1497,-248 1497,-235 1425,-235"/>
<text text-anchor="start" x="1427" y="-239.6" font-family="FreeMono" font-size="8.00">crm:P2_has_type</text>
</g>
<!-- httpsdataligatusorgukstcatherinesmsf1abe675fc564e0d95f4fd6dc47bc3a7&#45;&gt;httpsdataligatusorgukstcatherinesmsf1abe675fc564e0d95f4fd6dc47bc3a7httpwwwcidoccrmorgcidoccrmP2_has_typehttpw3idorglobconcept2944 -->
<g id="edge11" class="edge">
<title>httpsdataligatusorgukstcatherinesmsf1abe675fc564e0d95f4fd6dc47bc3a7:e&#45;&gt;httpsdataligatusorgukstcatherinesmsf1abe675fc564e0d95f4fd6dc47bc3a7httpwwwcidoccrmorgcidoccrmP2_has_typehttpw3idorglobconcept2944</title>
<path fill="none" stroke="black" d="M1280.5,-317C1280.5,-317 1370.23,-284.51 1422.81,-265.47"/>
</g>
<!-- httpsdataligatusorgukstcatherinesmsf1abe675fc564e0d95f4fd6dc47bc3a7httpwwwcidoccrmorgcidoccrmP46_is_composed_ofhttpsdataligatusorgukstcatherinesms5b9532ba730d45dd9f6f2127545de752 -->
<g id="node18" class="node">
<title>httpsdataligatusorgukstcatherinesmsf1abe675fc564e0d95f4fd6dc47bc3a7httpwwwcidoccrmorgcidoccrmP46_is_composed_ofhttpsdataligatusorgukstcatherinesms5b9532ba730d45dd9f6f2127545de752</title>
<polygon fill="white" stroke="transparent" points="1409,-423 1409,-442 1513,-442 1513,-423 1409,-423"/>
<text text-anchor="start" x="1414" y="-428.8" font-family="Ubuntu" font-size="14.00">is composed of</text>
<polygon fill="white" stroke="transparent" points="1409,-408 1409,-421 1513,-421 1513,-408 1409,-408"/>
<text text-anchor="start" x="1411" y="-412.6" font-family="FreeMono" font-size="8.00">crm:P46_is_composed_of</text>
</g>
<!-- httpsdataligatusorgukstcatherinesmsf1abe675fc564e0d95f4fd6dc47bc3a7&#45;&gt;httpsdataligatusorgukstcatherinesmsf1abe675fc564e0d95f4fd6dc47bc3a7httpwwwcidoccrmorgcidoccrmP46_is_composed_ofhttpsdataligatusorgukstcatherinesms5b9532ba730d45dd9f6f2127545de752 -->
<g id="edge15" class="edge">
<title>httpsdataligatusorgukstcatherinesmsf1abe675fc564e0d95f4fd6dc47bc3a7:e&#45;&gt;httpsdataligatusorgukstcatherinesmsf1abe675fc564e0d95f4fd6dc47bc3a7httpwwwcidoccrmorgcidoccrmP46_is_composed_ofhttpsdataligatusorgukstcatherinesms5b9532ba730d45dd9f6f2127545de752</title>
<path fill="none" stroke="black" d="M1280.5,-317C1280.5,-317 1376.79,-374.94 1428.32,-405.94"/>
</g>
<!-- httpsdataligatusorgukstcatherinesmsf1abe675fc564e0d95f4fd6dc47bc3a7httpwwwcidoccrmorgcidoccrmP46_is_composed_ofhttpsdataligatusorgukstcatherinesms9b59ed56b0f644f1a3c4ca0bcba3bb43 -->
<g id="node21" class="node">
<title>httpsdataligatusorgukstcatherinesmsf1abe675fc564e0d95f4fd6dc47bc3a7httpwwwcidoccrmorgcidoccrmP46_is_composed_ofhttpsdataligatusorgukstcatherinesms9b59ed56b0f644f1a3c4ca0bcba3bb43</title>
<polygon fill="white" stroke="transparent" points="1409,-547 1409,-566 1513,-566 1513,-547 1409,-547"/>
<text text-anchor="start" x="1414" y="-552.8" font-family="Ubuntu" font-size="14.00">is composed of</text>
<polygon fill="white" stroke="transparent" points="1409,-532 1409,-545 1513,-545 1513,-532 1409,-532"/>
<text text-anchor="start" x="1411" y="-536.6" font-family="FreeMono" font-size="8.00">crm:P46_is_composed_of</text>
</g>
<!-- httpsdataligatusorgukstcatherinesmsf1abe675fc564e0d95f4fd6dc47bc3a7&#45;&gt;httpsdataligatusorgukstcatherinesmsf1abe675fc564e0d95f4fd6dc47bc3a7httpwwwcidoccrmorgcidoccrmP46_is_composed_ofhttpsdataligatusorgukstcatherinesms9b59ed56b0f644f1a3c4ca0bcba3bb43 -->
<g id="edge17" class="edge">
<title>httpsdataligatusorgukstcatherinesmsf1abe675fc564e0d95f4fd6dc47bc3a7:e&#45;&gt;httpsdataligatusorgukstcatherinesmsf1abe675fc564e0d95f4fd6dc47bc3a7httpwwwcidoccrmorgcidoccrmP46_is_composed_ofhttpsdataligatusorgukstcatherinesms9b59ed56b0f644f1a3c4ca0bcba3bb43</title>
<path fill="none" stroke="black" d="M1280.5,-317C1280.5,-317 1401.86,-473.86 1445,-529.62"/>
</g>
<!-- httpsdataligatusorgukstcatherinesmsbc676a40931c431e8491926838964df6 -->
<g id="node4" class="node">
<title>httpsdataligatusorgukstcatherinesmsbc676a40931c431e8491926838964df6</title>
<polygon fill="#96e0f6" stroke="transparent" points="0.5,-218 0.5,-262 283.5,-262 283.5,-218 0.5,-218"/>
<polygon fill="none" stroke="black" points="0.5,-218 0.5,-262 283.5,-262 283.5,-218 0.5,-218"/>
<text text-anchor="start" x="11.5" y="-240.8" font-family="Ubuntu" font-size="14.00">Addition of pagemarkers to Arabica 0589</text>
<text text-anchor="start" x="45" y="-231.6" font-family="FreeMono" font-size="8.00">stcath:bc676a40&#45;931c&#45;431e&#45;8491&#45;926838964df6</text>
<polygon fill="#96e0f6" stroke="transparent" points="0.5,-174 0.5,-218 283.5,-218 283.5,-174 0.5,-174"/>
<polygon fill="none" stroke="black" points="0.5,-174 0.5,-218 283.5,-218 283.5,-174 0.5,-174"/>
<text text-anchor="start" x="101" y="-196.8" font-family="Ubuntu" font-style="italic" font-size="14.00">Part Addition</text>
<text text-anchor="start" x="94.5" y="-187.6" font-family="FreeMono" font-size="8.00">crm:E79_Part_Addition</text>
</g>
<!-- httpsdataligatusorgukstcatherinesmsbc676a40931c431e8491926838964df6httpwwwcidoccrmorgcidoccrmP110_augmentedhttpsdataligatusorgukstcatherinesms8dc2dd1954a04907858e924e32e5fb1d -->
<g id="node6" class="node">
<title>httpsdataligatusorgukstcatherinesmsbc676a40931c431e8491926838964df6httpwwwcidoccrmorgcidoccrmP110_augmentedhttpsdataligatusorgukstcatherinesms8dc2dd1954a04907858e924e32e5fb1d</title>
<polygon fill="white" stroke="transparent" points="390,-238 390,-257 476,-257 476,-238 390,-238"/>
<text text-anchor="start" x="396.5" y="-243.8" font-family="Ubuntu" font-size="14.00">augmented</text>
<polygon fill="white" stroke="transparent" points="390,-223 390,-236 476,-236 476,-223 390,-223"/>
<text text-anchor="start" x="392" y="-227.6" font-family="FreeMono" font-size="8.00">crm:P110_augmented</text>
</g>
<!-- httpsdataligatusorgukstcatherinesmsbc676a40931c431e8491926838964df6&#45;&gt;httpsdataligatusorgukstcatherinesmsbc676a40931c431e8491926838964df6httpwwwcidoccrmorgcidoccrmP110_augmentedhttpsdataligatusorgukstcatherinesms8dc2dd1954a04907858e924e32e5fb1d -->
<g id="edge3" class="edge">
<title>httpsdataligatusorgukstcatherinesmsbc676a40931c431e8491926838964df6:e&#45;&gt;httpsdataligatusorgukstcatherinesmsbc676a40931c431e8491926838964df6httpwwwcidoccrmorgcidoccrmP110_augmentedhttpsdataligatusorgukstcatherinesms8dc2dd1954a04907858e924e32e5fb1d</title>
<path fill="none" stroke="black" d="M283,-240C283,-240 343.78,-240 387.7,-240"/>
</g>
<!-- httpsdataligatusorgukstcatherinesmsbc676a40931c431e8491926838964df6httpwwwcidoccrmorgcidoccrmP32_used_general_techniquehttpstcathlooped -->
<g id="node25" class="node">
<title>httpsdataligatusorgukstcatherinesmsbc676a40931c431e8491926838964df6httpwwwcidoccrmorgcidoccrmP32_used_general_techniquehttpstcathlooped</title>
<polygon fill="white" stroke="transparent" points="357,-139 357,-158 509,-158 509,-139 357,-139"/>
<text text-anchor="start" x="359" y="-144.8" font-family="Ubuntu" font-size="14.00">used general technique</text>
<polygon fill="white" stroke="transparent" points="357,-124 357,-137 509,-137 509,-124 357,-124"/>
<text text-anchor="start" x="365" y="-128.6" font-family="FreeMono" font-size="8.00">crm:P32_used_general_technique</text>
</g>
<!-- httpsdataligatusorgukstcatherinesmsbc676a40931c431e8491926838964df6&#45;&gt;httpsdataligatusorgukstcatherinesmsbc676a40931c431e8491926838964df6httpwwwcidoccrmorgcidoccrmP32_used_general_techniquehttpstcathlooped -->
<g id="edge23" class="edge">
<title>httpsdataligatusorgukstcatherinesmsbc676a40931c431e8491926838964df6:e&#45;&gt;httpsdataligatusorgukstcatherinesmsbc676a40931c431e8491926838964df6httpwwwcidoccrmorgcidoccrmP32_used_general_techniquehttpstcathlooped</title>
<path fill="none" stroke="black" d="M283,-240C283,-240 359.97,-188.86 403.27,-160.09"/>
</g>
<!-- httpsdataligatusorgukstcatherinesmsbc676a40931c431e8491926838964df6httpwwwcidoccrmorgcidoccrmP111_addedhttpsdataligatusorgukstcatherinesmsf1abe675fc564e0d95f4fd6dc47bc3a7 -->
<g id="node26" class="node">
<title>httpsdataligatusorgukstcatherinesmsbc676a40931c431e8491926838964df6httpwwwcidoccrmorgcidoccrmP111_addedhttpsdataligatusorgukstcatherinesmsf1abe675fc564e0d95f4fd6dc47bc3a7</title>
<polygon fill="white" stroke="transparent" points="657,-315 657,-334 725,-334 725,-315 657,-315"/>
<text text-anchor="start" x="671" y="-320.8" font-family="Ubuntu" font-size="14.00">added</text>
<polygon fill="white" stroke="transparent" points="657,-300 657,-313 725,-313 725,-300 657,-300"/>
<text text-anchor="start" x="659" y="-304.6" font-family="FreeMono" font-size="8.00">crm:P111_added</text>
</g>
<!-- httpsdataligatusorgukstcatherinesmsbc676a40931c431e8491926838964df6&#45;&gt;httpsdataligatusorgukstcatherinesmsbc676a40931c431e8491926838964df6httpwwwcidoccrmorgcidoccrmP111_addedhttpsdataligatusorgukstcatherinesmsf1abe675fc564e0d95f4fd6dc47bc3a7 -->
<g id="edge25" class="edge">
<title>httpsdataligatusorgukstcatherinesmsbc676a40931c431e8491926838964df6:e&#45;&gt;httpsdataligatusorgukstcatherinesmsbc676a40931c431e8491926838964df6httpwwwcidoccrmorgcidoccrmP111_addedhttpsdataligatusorgukstcatherinesmsf1abe675fc564e0d95f4fd6dc47bc3a7</title>
<path fill="none" stroke="black" d="M283.5,-240C283.5,-240 555.11,-291.32 654.84,-310.17"/>
</g>
<!-- httpstcathdangling -->
<g id="node5" class="node">
<title>httpstcathdangling</title>
<polygon fill="#fab565" stroke="transparent" points="2923,-540 2923,-584 3045,-584 3045,-540 2923,-540"/>
<polygon fill="none" stroke="black" points="2923,-540 2923,-584 3045,-584 3045,-540 2923,-540"/>
<text text-anchor="start" x="2955.5" y="-562.8" font-family="Ubuntu" font-size="14.00">dangling</text>
<text text-anchor="start" x="2934" y="-553.6" font-family="FreeMono" font-size="8.00">http://stcath.dangling</text>
<polygon fill="#fab565" stroke="transparent" points="2923,-496 2923,-540 3045,-540 3045,-496 2923,-496"/>
<polygon fill="none" stroke="black" points="2923,-496 2923,-540 3045,-540 3045,-496 2923,-496"/>
<text text-anchor="start" x="2969" y="-518.8" font-family="Ubuntu" font-style="italic" font-size="14.00">Type</text>
<text text-anchor="start" x="2956.5" y="-509.6" font-family="FreeMono" font-size="8.00">crm:E55_Type</text>
</g>
<!-- httpsdataligatusorgukstcatherinesmsbc676a40931c431e8491926838964df6httpwwwcidoccrmorgcidoccrmP110_augmentedhttpsdataligatusorgukstcatherinesms8dc2dd1954a04907858e924e32e5fb1d&#45;&gt;httpsdataligatusorgukstcatherinesms8dc2dd1954a04907858e924e32e5fb1d -->
<g id="edge4" class="edge">
<title>httpsdataligatusorgukstcatherinesmsbc676a40931c431e8491926838964df6httpwwwcidoccrmorgcidoccrmP110_augmentedhttpsdataligatusorgukstcatherinesms8dc2dd1954a04907858e924e32e5fb1d&#45;&gt;httpsdataligatusorgukstcatherinesms8dc2dd1954a04907858e924e32e5fb1d:w</title>
<path fill="none" stroke="black" d="M478.3,-240C511.24,-240 553.66,-240 572.82,-240"/>
<polygon fill="black" stroke="black" points="573,-243.5 583,-240 573,-236.5 573,-243.5"/>
</g>
<!-- httpvocabgettyeduaat300056130 -->
<g id="node8" class="node">
<title>httpvocabgettyeduaat300056130</title>
<polygon fill="#fab565" stroke="transparent" points="1755,-292 1755,-336 1943,-336 1943,-292 1755,-292"/>
<polygon fill="none" stroke="black" points="1755,-292 1755,-336 1943,-336 1943,-292 1755,-292"/>
<text text-anchor="start" x="1766" y="-314.8" font-family="Ubuntu" font-size="14.00">color (perceived attribute)</text>
<text text-anchor="start" x="1767.5" y="-305.6" font-family="FreeMono" font-size="8.00">http://vocab.getty.edu/aat/300056130</text>
<polygon fill="#fab565" stroke="transparent" points="1755,-248 1755,-292 1943,-292 1943,-248 1755,-248"/>
<polygon fill="none" stroke="black" points="1755,-248 1755,-292 1943,-292 1943,-248 1755,-248"/>
<text text-anchor="start" x="1834" y="-270.8" font-family="Ubuntu" font-style="italic" font-size="14.00">Type</text>
<text text-anchor="start" x="1821.5" y="-261.6" font-family="FreeMono" font-size="8.00">crm:E55_Type</text>
</g>
<!-- httpsdataligatusorgukstcatherinesmsf1abe675fc564e0d95f4fd6dc47bc3a7httpwwwcidoccrmorgcidoccrmNTP56_does_not_bear_feature_of_typehttpvocabgettyeduaat300056130&#45;&gt;httpvocabgettyeduaat300056130 -->
<g id="edge6" class="edge">
<title>httpsdataligatusorgukstcatherinesmsf1abe675fc564e0d95f4fd6dc47bc3a7httpwwwcidoccrmorgcidoccrmNTP56_does_not_bear_feature_of_typehttpvocabgettyeduaat300056130&#45;&gt;httpvocabgettyeduaat300056130:w</title>
<path fill="none" stroke="black" d="M1558.02,-322.05C1627.5,-319.2 1714.16,-315.64 1743.63,-314.43"/>
<polygon fill="black" stroke="black" points="1744.15,-317.91 1754,-314 1743.86,-310.91 1744.15,-317.91"/>
</g>
<!-- 3e1d295c062f4c97a6c0a439fb52ec43 -->
<g id="node9" class="node">
<title>3e1d295c062f4c97a6c0a439fb52ec43</title>
<polygon fill="white" stroke="transparent" points="2498,-620 2498,-664 2552,-664 2552,-620 2498,-620"/>
<polygon fill="none" stroke="black" points="2498,-620 2498,-664 2552,-664 2552,-620 2498,-620"/>
<text text-anchor="start" x="2520.5" y="-642.8" font-family="Ubuntu" font-size="14.00">2</text>
<text text-anchor="start" x="2509" y="-633.6" font-family="FreeMono" font-size="8.00">Literal</text>
</g>
<!-- httpsdataligatusorgukstcatherinesms9b59ed56b0f644f1a3c4ca0bcba3bb43httpwwwcidoccrmorgcidoccrmP57_has_number_of_parts3e1d295c062f4c97a6c0a439fb52ec43 -->
<g id="node10" class="node">
<title>httpsdataligatusorgukstcatherinesms9b59ed56b0f644f1a3c4ca0bcba3bb43httpwwwcidoccrmorgcidoccrmP57_has_number_of_parts3e1d295c062f4c97a6c0a439fb52ec43</title>
<polygon fill="white" stroke="transparent" points="2142.5,-637 2142.5,-656 2273.5,-656 2273.5,-637 2142.5,-637"/>
<text text-anchor="start" x="2144.5" y="-642.8" font-family="Ubuntu" font-size="14.00">has number of parts</text>
<polygon fill="white" stroke="transparent" points="2142.5,-622 2142.5,-635 2273.5,-635 2273.5,-622 2142.5,-622"/>
<text text-anchor="start" x="2147" y="-626.6" font-family="FreeMono" font-size="8.00">crm:P57_has_number_of_parts</text>
</g>
<!-- httpsdataligatusorgukstcatherinesms9b59ed56b0f644f1a3c4ca0bcba3bb43httpwwwcidoccrmorgcidoccrmP57_has_number_of_parts3e1d295c062f4c97a6c0a439fb52ec43&#45;&gt;3e1d295c062f4c97a6c0a439fb52ec43 -->
<g id="edge8" class="edge">
<title>httpsdataligatusorgukstcatherinesms9b59ed56b0f644f1a3c4ca0bcba3bb43httpwwwcidoccrmorgcidoccrmP57_has_number_of_parts3e1d295c062f4c97a6c0a439fb52ec43&#45;&gt;3e1d295c062f4c97a6c0a439fb52ec43:w</title>
<path fill="none" stroke="black" d="M2275.05,-639.69C2346.27,-640.43 2453.52,-641.55 2486.79,-641.89"/>
<polygon fill="black" stroke="black" points="2486.96,-645.4 2497,-642 2487.04,-638.4 2486.96,-645.4"/>
</g>
<!-- httpsdataligatusorgukstcatherinesms9b59ed56b0f644f1a3c4ca0bcba3bb43 -->
<g id="node11" class="node">
<title>httpsdataligatusorgukstcatherinesms9b59ed56b0f644f1a3c4ca0bcba3bb43</title>
<polygon fill="#e1ba9c" stroke="transparent" points="1630,-540 1630,-584 2068,-584 2068,-540 1630,-540"/>
<polygon fill="none" stroke="black" points="1630,-540 1630,-584 2068,-584 2068,-540 1630,-540"/>
<text text-anchor="start" x="1641" y="-562.8" font-family="Ubuntu" font-size="14.00">Subset of &#39;Page&#45;markers of Arabica 0589&#39; with condition Dangling</text>
<text text-anchor="start" x="1752" y="-553.6" font-family="FreeMono" font-size="8.00">stcath:9b59ed56&#45;b0f6&#45;44f1&#45;a3c4&#45;ca0bcba3bb43</text>
<polygon fill="#e1ba9c" stroke="transparent" points="1630,-496 1630,-540 2068,-540 2068,-496 1630,-496"/>
<polygon fill="none" stroke="black" points="1630,-496 1630,-540 2068,-540 2068,-496 1630,-496"/>
<text text-anchor="start" x="1794.5" y="-518.8" font-family="Ubuntu" font-style="italic" font-size="14.00">Man&#45;Made Object</text>
<text text-anchor="start" x="1797" y="-509.6" font-family="FreeMono" font-size="8.00">crm:E22_Man&#45;Made_Object</text>
</g>
<!-- httpsdataligatusorgukstcatherinesms9b59ed56b0f644f1a3c4ca0bcba3bb43&#45;&gt;httpsdataligatusorgukstcatherinesms9b59ed56b0f644f1a3c4ca0bcba3bb43httpwwwcidoccrmorgcidoccrmP57_has_number_of_parts3e1d295c062f4c97a6c0a439fb52ec43 -->
<g id="edge7" class="edge">
<title>httpsdataligatusorgukstcatherinesms9b59ed56b0f644f1a3c4ca0bcba3bb43:e&#45;&gt;httpsdataligatusorgukstcatherinesms9b59ed56b0f644f1a3c4ca0bcba3bb43httpwwwcidoccrmorgcidoccrmP57_has_number_of_parts3e1d295c062f4c97a6c0a439fb52ec43</title>
<path fill="none" stroke="black" d="M2068,-562C2068,-562 2131.25,-597.16 2172.26,-619.97"/>
</g>
<!-- httpsdataligatusorgukstcatherinesms9b59ed56b0f644f1a3c4ca0bcba3bb43httpwwwcidoccrmorgcidoccrmP44_has_conditionhttpsdataligatusorgukstcatherinesms75d0d969d7b5416e9289598d65c7a5fc -->
<g id="node27" class="node">
<title>httpsdataligatusorgukstcatherinesms9b59ed56b0f644f1a3c4ca0bcba3bb43httpwwwcidoccrmorgcidoccrmP44_has_conditionhttpsdataligatusorgukstcatherinesms75d0d969d7b5416e9289598d65c7a5fc</title>
<polygon fill="white" stroke="transparent" points="2158.5,-560 2158.5,-579 2257.5,-579 2257.5,-560 2158.5,-560"/>
<text text-anchor="start" x="2165" y="-565.8" font-family="Ubuntu" font-size="14.00">has condition</text>
<polygon fill="white" stroke="transparent" points="2158.5,-545 2158.5,-558 2257.5,-558 2257.5,-545 2158.5,-545"/>
<text text-anchor="start" x="2160.5" y="-549.6" font-family="FreeMono" font-size="8.00">crm:P44_has_condition</text>
</g>
<!-- httpsdataligatusorgukstcatherinesms9b59ed56b0f644f1a3c4ca0bcba3bb43&#45;&gt;httpsdataligatusorgukstcatherinesms9b59ed56b0f644f1a3c4ca0bcba3bb43httpwwwcidoccrmorgcidoccrmP44_has_conditionhttpsdataligatusorgukstcatherinesms75d0d969d7b5416e9289598d65c7a5fc -->
<g id="edge27" class="edge">
<title>httpsdataligatusorgukstcatherinesms9b59ed56b0f644f1a3c4ca0bcba3bb43:e&#45;&gt;httpsdataligatusorgukstcatherinesms9b59ed56b0f644f1a3c4ca0bcba3bb43httpwwwcidoccrmorgcidoccrmP44_has_conditionhttpsdataligatusorgukstcatherinesms75d0d969d7b5416e9289598d65c7a5fc</title>
<path fill="none" stroke="black" d="M2068,-562C2068,-562 2116.19,-562 2155.71,-562"/>
</g>
<!-- httpw3idorglobconcept2474 -->
<g id="node13" class="node">
<title>httpw3idorglobconcept2474</title>
<polygon fill="#fab565" stroke="transparent" points="1766,-44 1766,-88 1933,-88 1933,-44 1766,-44"/>
<polygon fill="none" stroke="black" points="1766,-44 1766,-88 1933,-88 1933,-44 1766,-44"/>
<text text-anchor="start" x="1828" y="-66.8" font-family="Ubuntu" font-size="14.00">thread</text>
<text text-anchor="start" x="1777" y="-57.6" font-family="FreeMono" font-size="8.00">http://w3id.org/lob/concept/2474</text>
<polygon fill="#fab565" stroke="transparent" points="1766,0 1766,-44 1933,-44 1933,0 1766,0"/>
<polygon fill="none" stroke="black" points="1766,0 1766,-44 1933,-44 1933,0 1766,0"/>
<text text-anchor="start" x="1823" y="-22.8" font-family="Ubuntu" font-style="italic" font-size="14.00">Material</text>
<text text-anchor="start" x="1813" y="-13.6" font-family="FreeMono" font-size="8.00">crm:E57_Material</text>
</g>
<!-- httpsdataligatusorgukstcatherinesmsf1abe675fc564e0d95f4fd6dc47bc3a7httpwwwcidoccrmorgcidoccrmP45_consists_ofhttpw3idorglobconcept2474&#45;&gt;httpw3idorglobconcept2474 -->
<g id="edge10" class="edge">
<title>httpsdataligatusorgukstcatherinesmsf1abe675fc564e0d95f4fd6dc47bc3a7httpwwwcidoccrmorgcidoccrmP45_consists_ofhttpw3idorglobconcept2474&#45;&gt;httpw3idorglobconcept2474:w</title>
<path fill="none" stroke="black" d="M1508.02,-160.99C1580.86,-134.06 1718.29,-83.26 1755.51,-69.51"/>
<polygon fill="black" stroke="black" points="1756.83,-72.75 1765,-66 1754.41,-66.18 1756.83,-72.75"/>
</g>
<!-- httpw3idorglobconcept2944 -->
<g id="node15" class="node">
<title>httpw3idorglobconcept2944</title>
<polygon fill="#fab565" stroke="transparent" points="1766,-168 1766,-212 1933,-212 1933,-168 1766,-168"/>
<polygon fill="none" stroke="black" points="1766,-168 1766,-212 1933,-212 1933,-168 1766,-168"/>
<text text-anchor="start" x="1790.5" y="-190.8" font-family="Ubuntu" font-size="14.00">leaf string markers</text>
<text text-anchor="start" x="1777" y="-181.6" font-family="FreeMono" font-size="8.00">http://w3id.org/lob/concept/2944</text>
<polygon fill="#fab565" stroke="transparent" points="1766,-124 1766,-168 1933,-168 1933,-124 1766,-124"/>
<polygon fill="none" stroke="black" points="1766,-124 1766,-168 1933,-168 1933,-124 1766,-124"/>
<text text-anchor="start" x="1834.5" y="-146.8" font-family="Ubuntu" font-style="italic" font-size="14.00">Type</text>
<text text-anchor="start" x="1822" y="-137.6" font-family="FreeMono" font-size="8.00">crm:E55_Type</text>
</g>
<!-- httpsdataligatusorgukstcatherinesmsf1abe675fc564e0d95f4fd6dc47bc3a7httpwwwcidoccrmorgcidoccrmP2_has_typehttpw3idorglobconcept2944&#45;&gt;httpw3idorglobconcept2944 -->
<g id="edge12" class="edge">
<title>httpsdataligatusorgukstcatherinesmsf1abe675fc564e0d95f4fd6dc47bc3a7httpwwwcidoccrmorgcidoccrmP2_has_typehttpw3idorglobconcept2944&#45;&gt;httpw3idorglobconcept2944:w</title>
<path fill="none" stroke="black" d="M1499.15,-244.4C1568.84,-230.14 1715.71,-200.09 1755.1,-192.03"/>
<polygon fill="black" stroke="black" points="1755.9,-195.43 1765,-190 1754.5,-188.58 1755.9,-195.43"/>
</g>
<!-- httpsdataligatusorgukstcatherinesms75d0d969d7b5416e9289598d65c7a5fchttpwwwcidoccrmorgcidoccrmP2_has_typehttpstcathdangling -->
<g id="node16" class="node">
<title>httpsdataligatusorgukstcatherinesms75d0d969d7b5416e9289598d65c7a5fchttpwwwcidoccrmorgcidoccrmP2_has_typehttpstcathdangling</title>
<polygon fill="white" stroke="transparent" points="2777,-560 2777,-579 2849,-579 2849,-560 2777,-560"/>
<text text-anchor="start" x="2786" y="-565.8" font-family="Ubuntu" font-size="14.00">has type</text>
<polygon fill="white" stroke="transparent" points="2777,-545 2777,-558 2849,-558 2849,-545 2777,-545"/>
<text text-anchor="start" x="2779" y="-549.6" font-family="FreeMono" font-size="8.00">crm:P2_has_type</text>
</g>
<!-- httpsdataligatusorgukstcatherinesms75d0d969d7b5416e9289598d65c7a5fchttpwwwcidoccrmorgcidoccrmP2_has_typehttpstcathdangling&#45;&gt;httpstcathdangling -->
<g id="edge14" class="edge">
<title>httpsdataligatusorgukstcatherinesms75d0d969d7b5416e9289598d65c7a5fchttpwwwcidoccrmorgcidoccrmP2_has_typehttpstcathdangling&#45;&gt;httpstcathdangling:w</title>
<path fill="none" stroke="black" d="M2851.21,-562C2872.92,-562 2898.71,-562 2912.71,-562"/>
<polygon fill="black" stroke="black" points="2913,-565.5 2923,-562 2913,-558.5 2913,-565.5"/>
</g>
<!-- httpsdataligatusorgukstcatherinesms75d0d969d7b5416e9289598d65c7a5fc -->
<g id="node17" class="node">
<title>httpsdataligatusorgukstcatherinesms75d0d969d7b5416e9289598d65c7a5fc</title>
<polygon fill="#ffffff" stroke="transparent" points="2347,-540 2347,-584 2703,-584 2703,-540 2347,-540"/>
<polygon fill="none" stroke="black" points="2347,-540 2347,-584 2703,-584 2703,-540 2347,-540"/>
<text text-anchor="start" x="2358" y="-562.8" font-family="Ubuntu" font-size="14.00">Condition of subset of Page&#45;markers of Arabica 0589</text>
<text text-anchor="start" x="2428" y="-553.6" font-family="FreeMono" font-size="8.00">stcath:75d0d969&#45;d7b5&#45;416e&#45;9289&#45;598d65c7a5fc</text>
<polygon fill="#ffffff" stroke="transparent" points="2347,-496 2347,-540 2703,-540 2703,-496 2347,-496"/>
<polygon fill="none" stroke="black" points="2347,-496 2347,-540 2703,-540 2703,-496 2347,-496"/>
<text text-anchor="start" x="2477.5" y="-518.8" font-family="Ubuntu" font-style="italic" font-size="14.00">Condition State</text>
<text text-anchor="start" x="2475" y="-509.6" font-family="FreeMono" font-size="8.00">crm:E3_Condition_State</text>
</g>
<!-- httpsdataligatusorgukstcatherinesms75d0d969d7b5416e9289598d65c7a5fc&#45;&gt;httpsdataligatusorgukstcatherinesms75d0d969d7b5416e9289598d65c7a5fchttpwwwcidoccrmorgcidoccrmP2_has_typehttpstcathdangling -->
<g id="edge13" class="edge">
<title>httpsdataligatusorgukstcatherinesms75d0d969d7b5416e9289598d65c7a5fc:e&#45;&gt;httpsdataligatusorgukstcatherinesms75d0d969d7b5416e9289598d65c7a5fchttpwwwcidoccrmorgcidoccrmP2_has_typehttpstcathdangling</title>
<path fill="none" stroke="black" d="M2703,-562C2703,-562 2743.22,-562 2774.79,-562"/>
</g>
<!-- httpsdataligatusorgukstcatherinesms5b9532ba730d45dd9f6f2127545de752 -->
<g id="node19" class="node">
<title>httpsdataligatusorgukstcatherinesms5b9532ba730d45dd9f6f2127545de752</title>
<polygon fill="#e1ba9c" stroke="transparent" points="1671,-416 1671,-460 2027,-460 2027,-416 1671,-416"/>
<polygon fill="none" stroke="black" points="1671,-416 1671,-460 2027,-460 2027,-416 1671,-416"/>
<text text-anchor="start" x="1682" y="-438.8" font-family="Ubuntu" font-size="14.00">Subset of &#39;Page&#45;markers of Arabica 0589&#39; on Foredge</text>
<text text-anchor="start" x="1752" y="-429.6" font-family="FreeMono" font-size="8.00">stcath:5b9532ba&#45;730d&#45;45dd&#45;9f6f&#45;2127545de752</text>
<polygon fill="#e1ba9c" stroke="transparent" points="1671,-372 1671,-416 2027,-416 2027,-372 1671,-372"/>
<polygon fill="none" stroke="black" points="1671,-372 1671,-416 2027,-416 2027,-372 1671,-372"/>
<text text-anchor="start" x="1794.5" y="-394.8" font-family="Ubuntu" font-style="italic" font-size="14.00">Man&#45;Made Object</text>
<text text-anchor="start" x="1797" y="-385.6" font-family="FreeMono" font-size="8.00">crm:E22_Man&#45;Made_Object</text>
</g>
<!-- httpsdataligatusorgukstcatherinesmsf1abe675fc564e0d95f4fd6dc47bc3a7httpwwwcidoccrmorgcidoccrmP46_is_composed_ofhttpsdataligatusorgukstcatherinesms5b9532ba730d45dd9f6f2127545de752&#45;&gt;httpsdataligatusorgukstcatherinesms5b9532ba730d45dd9f6f2127545de752 -->
<g id="edge16" class="edge">
<title>httpsdataligatusorgukstcatherinesmsf1abe675fc564e0d95f4fd6dc47bc3a7httpwwwcidoccrmorgcidoccrmP46_is_composed_ofhttpsdataligatusorgukstcatherinesms5b9532ba730d45dd9f6f2127545de752&#45;&gt;httpsdataligatusorgukstcatherinesms5b9532ba730d45dd9f6f2127545de752:w</title>
<path fill="none" stroke="black" d="M1515.03,-428.31C1564.37,-431.4 1634.07,-435.75 1659.87,-437.37"/>
<polygon fill="black" stroke="black" points="1659.8,-440.87 1670,-438 1660.24,-433.88 1659.8,-440.87"/>
</g>
<!-- httpsdataligatusorgukstcatherinesms5b9532ba730d45dd9f6f2127545de752httpwwwcidoccrmorgcidoccrmP57_has_number_of_parts35eccfc76fc1423fb07aa4f5da07ceb1 -->
<g id="node24" class="node">
<title>httpsdataligatusorgukstcatherinesms5b9532ba730d45dd9f6f2127545de752httpwwwcidoccrmorgcidoccrmP57_has_number_of_parts35eccfc76fc1423fb07aa4f5da07ceb1</title>
<polygon fill="white" stroke="transparent" points="2142.5,-436 2142.5,-455 2273.5,-455 2273.5,-436 2142.5,-436"/>
<text text-anchor="start" x="2144.5" y="-441.8" font-family="Ubuntu" font-size="14.00">has number of parts</text>
<polygon fill="white" stroke="transparent" points="2142.5,-421 2142.5,-434 2273.5,-434 2273.5,-421 2142.5,-421"/>
<text text-anchor="start" x="2147" y="-425.6" font-family="FreeMono" font-size="8.00">crm:P57_has_number_of_parts</text>
</g>
<!-- httpsdataligatusorgukstcatherinesms5b9532ba730d45dd9f6f2127545de752&#45;&gt;httpsdataligatusorgukstcatherinesms5b9532ba730d45dd9f6f2127545de752httpwwwcidoccrmorgcidoccrmP57_has_number_of_parts35eccfc76fc1423fb07aa4f5da07ceb1 -->
<g id="edge21" class="edge">
<title>httpsdataligatusorgukstcatherinesms5b9532ba730d45dd9f6f2127545de752:e&#45;&gt;httpsdataligatusorgukstcatherinesms5b9532ba730d45dd9f6f2127545de752httpwwwcidoccrmorgcidoccrmP57_has_number_of_parts35eccfc76fc1423fb07aa4f5da07ceb1</title>
<path fill="none" stroke="black" d="M2028,-438C2028,-438 2089.08,-438 2139.78,-438"/>
</g>
<!-- httpstcathlooped -->
<g id="node20" class="node">
<title>httpstcathlooped</title>
<polygon fill="#fab565" stroke="transparent" points="635,-94 635,-138 748,-138 748,-94 635,-94"/>
<polygon fill="none" stroke="black" points="635,-94 635,-138 748,-138 748,-94 635,-94"/>
<text text-anchor="start" x="669" y="-116.8" font-family="Ubuntu" font-size="14.00">looped</text>
<text text-anchor="start" x="646" y="-107.6" font-family="FreeMono" font-size="8.00">http://stcath.looped</text>
<polygon fill="#fab565" stroke="transparent" points="635,-50 635,-94 748,-94 748,-50 635,-50"/>
<polygon fill="none" stroke="black" points="635,-50 635,-94 748,-94 748,-50 635,-50"/>
<text text-anchor="start" x="676.5" y="-72.8" font-family="Ubuntu" font-style="italic" font-size="14.00">Type</text>
<text text-anchor="start" x="664" y="-63.6" font-family="FreeMono" font-size="8.00">crm:E55_Type</text>
</g>
<!-- httpsdataligatusorgukstcatherinesmsf1abe675fc564e0d95f4fd6dc47bc3a7httpwwwcidoccrmorgcidoccrmP46_is_composed_ofhttpsdataligatusorgukstcatherinesms9b59ed56b0f644f1a3c4ca0bcba3bb43&#45;&gt;httpsdataligatusorgukstcatherinesms9b59ed56b0f644f1a3c4ca0bcba3bb43 -->
<g id="edge18" class="edge">
<title>httpsdataligatusorgukstcatherinesmsf1abe675fc564e0d95f4fd6dc47bc3a7httpwwwcidoccrmorgcidoccrmP46_is_composed_ofhttpsdataligatusorgukstcatherinesms9b59ed56b0f644f1a3c4ca0bcba3bb43&#45;&gt;httpsdataligatusorgukstcatherinesms9b59ed56b0f644f1a3c4ca0bcba3bb43:w</title>
<path fill="none" stroke="black" d="M1515.16,-553.11C1552.65,-556.01 1599.66,-559.65 1619.93,-561.22"/>
<polygon fill="black" stroke="black" points="1619.76,-564.72 1630,-562 1620.3,-557.74 1619.76,-564.72"/>
</g>
<!-- httpsdataligatusorgukstcatherinesms8dc2dd1954a04907858e924e32e5fb1dhttpwwwcidoccrmorgcidoccrmTP46_is_composed_of_physical_thing_of_typehttpw3idorglobconcept2944&#45;&gt;httpw3idorglobconcept2944 -->
<g id="edge20" class="edge">
<title>httpsdataligatusorgukstcatherinesms8dc2dd1954a04907858e924e32e5fb1dhttpwwwcidoccrmorgcidoccrmTP46_is_composed_of_physical_thing_of_typehttpw3idorglobconcept2944&#45;&gt;httpw3idorglobconcept2944:w</title>
<path fill="none" stroke="black" d="M1292.16,-150.95C1446.93,-163.7 1701.87,-184.71 1755.79,-189.16"/>
<polygon fill="black" stroke="black" points="1755.75,-192.67 1766,-190 1756.32,-185.69 1755.75,-192.67"/>
</g>
<!-- 35eccfc76fc1423fb07aa4f5da07ceb1 -->
<g id="node23" class="node">
<title>35eccfc76fc1423fb07aa4f5da07ceb1</title>
<polygon fill="white" stroke="transparent" points="2498,-416 2498,-460 2552,-460 2552,-416 2498,-416"/>
<polygon fill="none" stroke="black" points="2498,-416 2498,-460 2552,-460 2552,-416 2498,-416"/>
<text text-anchor="start" x="2520.5" y="-438.8" font-family="Ubuntu" font-size="14.00">2</text>
<text text-anchor="start" x="2509" y="-429.6" font-family="FreeMono" font-size="8.00">Literal</text>
</g>
<!-- httpsdataligatusorgukstcatherinesms5b9532ba730d45dd9f6f2127545de752httpwwwcidoccrmorgcidoccrmP57_has_number_of_parts35eccfc76fc1423fb07aa4f5da07ceb1&#45;&gt;35eccfc76fc1423fb07aa4f5da07ceb1 -->
<g id="edge22" class="edge">
<title>httpsdataligatusorgukstcatherinesms5b9532ba730d45dd9f6f2127545de752httpwwwcidoccrmorgcidoccrmP57_has_number_of_parts35eccfc76fc1423fb07aa4f5da07ceb1&#45;&gt;35eccfc76fc1423fb07aa4f5da07ceb1:w</title>
<path fill="none" stroke="black" d="M2275.05,-438C2346.27,-438 2453.52,-438 2486.79,-438"/>
<polygon fill="black" stroke="black" points="2487,-441.5 2497,-438 2487,-434.5 2487,-441.5"/>
</g>
<!-- httpsdataligatusorgukstcatherinesmsbc676a40931c431e8491926838964df6httpwwwcidoccrmorgcidoccrmP32_used_general_techniquehttpstcathlooped&#45;&gt;httpstcathlooped -->
<g id="edge24" class="edge">
<title>httpsdataligatusorgukstcatherinesmsbc676a40931c431e8491926838964df6httpwwwcidoccrmorgcidoccrmP32_used_general_techniquehttpstcathlooped&#45;&gt;httpstcathlooped:w</title>
<path fill="none" stroke="black" d="M511.04,-131.37C554.18,-125.98 603.34,-119.83 624.01,-117.25"/>
<polygon fill="black" stroke="black" points="624.51,-120.71 634,-116 623.64,-113.77 624.51,-120.71"/>
</g>
<!-- httpsdataligatusorgukstcatherinesmsbc676a40931c431e8491926838964df6httpwwwcidoccrmorgcidoccrmP111_addedhttpsdataligatusorgukstcatherinesmsf1abe675fc564e0d95f4fd6dc47bc3a7&#45;&gt;httpsdataligatusorgukstcatherinesmsf1abe675fc564e0d95f4fd6dc47bc3a7 -->
<g id="edge26" class="edge">
<title>httpsdataligatusorgukstcatherinesmsbc676a40931c431e8491926838964df6httpwwwcidoccrmorgcidoccrmP111_addedhttpsdataligatusorgukstcatherinesmsf1abe675fc564e0d95f4fd6dc47bc3a7&#45;&gt;httpsdataligatusorgukstcatherinesmsf1abe675fc564e0d95f4fd6dc47bc3a7:w</title>
<path fill="none" stroke="black" d="M727.06,-317C809.04,-317 1005.97,-317 1053.2,-317"/>
<polygon fill="black" stroke="black" points="1053.5,-320.5 1063.5,-317 1053.5,-313.5 1053.5,-320.5"/>
</g>
<!-- httpsdataligatusorgukstcatherinesms9b59ed56b0f644f1a3c4ca0bcba3bb43httpwwwcidoccrmorgcidoccrmP44_has_conditionhttpsdataligatusorgukstcatherinesms75d0d969d7b5416e9289598d65c7a5fc&#45;&gt;httpsdataligatusorgukstcatherinesms75d0d969d7b5416e9289598d65c7a5fc -->
<g id="edge28" class="edge">
<title>httpsdataligatusorgukstcatherinesms9b59ed56b0f644f1a3c4ca0bcba3bb43httpwwwcidoccrmorgcidoccrmP44_has_conditionhttpsdataligatusorgukstcatherinesms75d0d969d7b5416e9289598d65c7a5fc&#45;&gt;httpsdataligatusorgukstcatherinesms75d0d969d7b5416e9289598d65c7a5fc:w</title>
<path fill="none" stroke="black" d="M2259.29,-562C2287.7,-562 2320.58,-562 2336.83,-562"/>
<polygon fill="black" stroke="black" points="2337,-565.5 2347,-562 2337,-558.5 2337,-565.5"/>
</g>
</g>
</svg>
